<svg id="e9POniTzBMr1" xmlns="http://www.w3.org/2000/svg" xmlns:xlink="http://www.w3.org/1999/xlink" viewBox="0 0 1264 700" shape-rendering="geometricPrecision" text-rendering="geometricPrecision" width="1264" height="700"><style><![CDATA[#e9POniTzBMr14_to {animation: e9POniTzBMr14_to__to 3000ms linear infinite alternate forwards}@keyframes e9POniTzBMr14_to__to { 0% {transform: translate(98.056645px,80.602467px)} 3.333333% {transform: translate(98.056645px,80.602467px)} 100% {transform: translate(273.720152px,79.787px)}} #e9POniTzBMr16_to {animation: e9POniTzBMr16_to__to 3000ms linear infinite alternate forwards}@keyframes e9POniTzBMr16_to__to { 0% {transform: translate(127.478957px,478.454156px)} 100% {transform: translate(342.467494px,478.454156px)}} #e9POniTzBMr20_to {animation: e9POniTzBMr20_to__to 3000ms linear infinite alternate forwards}@keyframes e9POniTzBMr20_to__to { 0% {transform: translate(322.218742px,616.938884px)} 100% {transform: translate(70.164351px,616px)}} #e9POniTzBMr25_to {animation: e9POniTzBMr25_to__to 3000ms linear infinite alternate forwards}@keyframes e9POniTzBMr25_to__to { 0% {transform: translate(912.583941px,646.028921px)} 100% {transform: translate(1140.22px,646.02892px)}} #e9POniTzBMr30_to {animation: e9POniTzBMr30_to__to 3000ms linear infinite alternate forwards}@keyframes e9POniTzBMr30_to__to { 0% {transform: translate(1053.719971px,391.25px)} 100% {transform: translate(886.968256px,400.184947px)}} #e9POniTzBMr34_to {animation: e9POniTzBMr34_to__to 3000ms linear infinite alternate forwards}@keyframes e9POniTzBMr34_to__to { 0% {transform: translate(1140.86738px,89.75px)} 3.333333% {transform: translate(1140.86738px,89.75px)} 100% {transform: translate(1305.782501px,89.75px)}} #e9POniTzBMr40_to {animation: e9POniTzBMr40_to__to 3000ms linear infinite alternate forwards}@keyframes e9POniTzBMr40_to__to { 0% {transform: translate(32.96983px,292.211444px)} 100% {transform: translate(281.35783px,292.211444px)}} #e9POniTzBMr41_to {animation: e9POniTzBMr41_to__to 3000ms linear infinite alternate forwards}@keyframes e9POniTzBMr41_to__to { 0% {transform: translate(101.469852px,531.5px)} 100% {transform: translate(234.558403px,529.220911px)}} #e9POniTzBMr50_to {animation: e9POniTzBMr50_to__to 3000ms linear infinite alternate forwards}@keyframes e9POniTzBMr50_to__to { 0% {transform: translate(77.108101px,86.59441px)} 100% {transform: translate(315.070626px,89.923515px)}} #e9POniTzBMr51_to {animation: e9POniTzBMr51_to__to 3000ms linear infinite alternate forwards}@keyframes e9POniTzBMr51_to__to { 0% {transform: translate(104.6885px,62.60325px)} 100% {transform: translate(209.7045px,61.199263px)}} #e9POniTzBMr60_to {animation: e9POniTzBMr60_to__to 3000ms linear infinite alternate forwards}@keyframes e9POniTzBMr60_to__to { 0% {transform: translate(232.062654px,561.419009px)} 100% {transform: translate(406.401204px,563.332009px)}} #e9POniTzBMr63_to {animation: e9POniTzBMr63_to__to 3000ms linear infinite alternate forwards}@keyframes e9POniTzBMr63_to__to { 0% {transform: translate(563.779354px,528.9841px)} 3.333333% {transform: translate(563.006485px,526.803009px)} 100% {transform: translate(342.467454px,531.08502px)}} #e9POniTzBMr64_to {animation: e9POniTzBMr64_to__to 3000ms linear infinite alternate forwards}@keyframes e9POniTzBMr64_to__to { 0% {transform: translate(730.941498px,614.090485px)} 3.333333% {transform: translate(730.941498px,614.090485px)} 100% {transform: translate(351.72px,612.961px)}} #e9POniTzBMr66_to {animation: e9POniTzBMr66_to__to 3000ms linear infinite alternate forwards}@keyframes e9POniTzBMr66_to__to { 0% {transform: translate(903.249023px,44.271402px)} 100% {transform: translate(729.964029px,52.46976px)}} #e9POniTzBMr68_to {animation: e9POniTzBMr68_to__to 3000ms linear infinite alternate forwards}@keyframes e9POniTzBMr68_to__to { 0% {transform: translate(649.621584px,158.468288px)} 100% {transform: translate(1097.801002px,161.193015px)}} #e9POniTzBMr81_to {animation: e9POniTzBMr81_to__to 3000ms linear infinite alternate forwards}@keyframes e9POniTzBMr81_to__to { 0% {transform: translate(110.259056px,375.945496px)} 100% {transform: translate(273.722006px,375.945496px)}} #e9POniTzBMr82_to {animation: e9POniTzBMr82_to__to 3000ms linear infinite alternate forwards}@keyframes e9POniTzBMr82_to__to { 0% {transform: translate(459.833008px,605.329498px)} 100% {transform: translate(54.530044px,609.0275px)}} #e9POniTzBMr84_to {animation: e9POniTzBMr84_to__to 3000ms linear infinite alternate forwards}@keyframes e9POniTzBMr84_to__to { 0% {transform: translate(798.271445px,577.470987px)} 100% {transform: translate(996.389977px,577.470987px)}} #e9POniTzBMr90_to {animation: e9POniTzBMr90_to__to 3000ms linear infinite alternate forwards}@keyframes e9POniTzBMr90_to__to { 0% {transform: translate(608.096706px,171.187796px)} 100% {transform: translate(354.407664px,170.775px)}} #e9POniTzBMr93_to {animation: e9POniTzBMr93_to__to 3000ms linear infinite alternate forwards}@keyframes e9POniTzBMr93_to__to { 0% {transform: translate(102.605266px,72.128113px)} 100% {transform: translate(156.120806px,69.952184px)}} #e9POniTzBMr94_to {animation: e9POniTzBMr94_to__to 3000ms linear infinite alternate forwards}@keyframes e9POniTzBMr94_to__to { 0% {transform: translate(402.219978px,168.094234px)} 3.333333% {transform: translate(402.219978px,168.094234px)} 100% {transform: translate(644.278449px,168.094235px)}} #e9POniTzBMr97_to {animation: e9POniTzBMr97_to__to 3000ms linear infinite alternate forwards}@keyframes e9POniTzBMr97_to__to { 0% {transform: translate(272.376999px,410.042999px)} 100% {transform: translate(397.312999px,410.042999px)}} #e9POniTzBMr100_to {animation: e9POniTzBMr100_to__to 3000ms linear infinite alternate forwards}@keyframes e9POniTzBMr100_to__to { 0% {transform: translate(365.906501px,381.36px)} 100% {transform: translate(621.604741px,382.138283px)}} #e9POniTzBMr101_to {animation: e9POniTzBMr101_to__to 3000ms linear infinite alternate forwards}@keyframes e9POniTzBMr101_to__to { 0% {transform: translate(971.720011px,464.49649px)} 100% {transform: translate(748.161011px,464.49649px)}} #e9POniTzBMr102_to {animation: e9POniTzBMr102_to__to 3000ms linear infinite alternate forwards}@keyframes e9POniTzBMr102_to__to { 0% {transform: translate(944.845455px,580.500011px)} 100% {transform: translate(1169.440018px,578.035876px)}} #e9POniTzBMr103_to {animation: e9POniTzBMr103_to__to 3000ms linear infinite alternate forwards}@keyframes e9POniTzBMr103_to__to { 0% {transform: translate(1002.777496px,45.956802px)} 100% {transform: translate(1234.63px,45.9568px)}} #e9POniTzBMr104_to {animation: e9POniTzBMr104_to__to 3000ms linear infinite alternate forwards}@keyframes e9POniTzBMr104_to__to { 0% {transform: translate(1163.334991px,54.130997px)} 100% {transform: translate(821.719991px,50.504997px)}} #e9POniTzBMr106_to {animation: e9POniTzBMr106_to__to 3000ms linear infinite alternate forwards}@keyframes e9POniTzBMr106_to__to { 0% {transform: translate(1070.445007px,315.655502px)} 100% {transform: translate(1306.375007px,317.505502px)}} #e9POniTzBMr111_to {animation: e9POniTzBMr111_to__to 3000ms linear infinite alternate forwards}@keyframes e9POniTzBMr111_to__to { 0% {transform: translate(1251.849976px,469.738998px)} 100% {transform: translate(1104.53px,472.25px)}} #e9POniTzBMr115_to {animation: e9POniTzBMr115_to__to 3000ms linear infinite alternate forwards}@keyframes e9POniTzBMr115_to__to { 0% {transform: translate(808.506985px,167.499989px)} 100% {transform: translate(598.039985px,167.499989px)}} #e9POniTzBMr116_to {animation: e9POniTzBMr116_to__to 3000ms linear infinite alternate forwards}@keyframes e9POniTzBMr116_to__to { 0% {transform: translate(221.848349px,45.956798px)} 100% {transform: translate(-6.041546px,63.999998px)}} #e9POniTzBMr117_to {animation: e9POniTzBMr117_to__to 3000ms linear infinite alternate forwards}@keyframes e9POniTzBMr117_to__to { 0% {transform: translate(296.219999px,224.570006px)} 100% {transform: translate(127.478949px,226.351006px)}} #e9POniTzBMr118_to {animation: e9POniTzBMr118_to__to 3000ms linear infinite alternate forwards}@keyframes e9POniTzBMr118_to__to { 0% {transform: translate(218.89999px,430.411004px)} 100% {transform: translate(554.01449px,424.500004px)}} #e9POniTzBMr120_to {animation: e9POniTzBMr120_to__to 3000ms linear infinite alternate forwards}@keyframes e9POniTzBMr120_to__to { 0% {transform: translate(946.464938px,315.633492px)} 100% {transform: translate(1152.219938px,317.505481px)}} #e9POniTzBMr122_to {animation: e9POniTzBMr122_to__to 3000ms linear infinite alternate forwards}@keyframes e9POniTzBMr122_to__to { 0% {transform: translate(994.72px,183.166997px)} 100% {transform: translate(825.22px,183.166997px)}}]]></style><g transform="translate(-1.968422 0)" opacity="0.8"><g mask="url(#e9POniTzBMr4)"><mask id="e9POniTzBMr4" mask-type="alpha"><rect width="1264" height="700" rx="40" ry="40" fill="#fff"/></mask><g><path d="M706.72,108.5h83l35.5,50.5h-80.5l35.5,56.5-56.5-20.5-17,50.5-92-30l66-20.5-66-67.5l34-38l43,69.5l15-50.5Z" transform="translate(0 182.5)" fill="#b80065"/><path d="M524.72,41l-71.5-11.5L392.72,7l90.5-49L695.72,7l-53,22.5l66,51-133.5-51l11.5,51-36,31.5l92,49-80.5,51-11.5-17l11.5-47h-92l41-67.5L430.72,65l94-24Z" fill="#ef98b8"/><path d="M105.22,373.5l39.5-58.5l96,32l101.5-15-51,77l73.5-13l60,60-133.5-24l98,73-201-13l95.5-118.5h-86.5l43.5,51-73.5,31.5-62,28.5-56.5003-47L167.22,396l-62-22.5Z" fill="#fc8790"/><path d="M54.7197,272l22.5,66-43.5,24L0.219727,298.5L-52.7803,242h60.28975L0.219727,182L54.7197,257v15Z" fill="#f8c2a0"/><path d="M165.72,174.5l-86.5003,11-34,28h79.0003L79.2197,238L124.22,260.5l88.5-35.5-47-50.5Z" fill="#0080a1"/><path d="M278.22,132h-71l-7,15.5h-17.5l3.5-25.5-22-10.5l6,20.5l16,41l58,4.5l42.5-13-59.5-6.5l17-14.5l34-11.5Z" fill="#015486"/><path d="M272.22,65.5l-81.5-30h30.5h11.5l49-11.5l5,37l10.312-6.8137L286.72,46l19.395,2.1854L342.72,24l55.5,17.5h-40.5l59,12.5-42,42-17-42-51.605-5.8146-9.083,6.0009L335.22,84.5l-136,19.5l73-38.5Z" fill="#4403b9"/><g id="e9POniTzBMr14_to" transform="translate(98.056645,80.602467)"><path d="M82.7197,43.5l-34,8.5l9,20h-15l18.5,18.5-18.5,18.5h-8l23,23-9,9l34,34v-66h25.0003l42,42v-107.5l-15,15h-52.0003v-15Z" transform="translate(-92.219852,-109.25)" fill="#f4057d"/></g><path d="M325.22,245.5l-191.5,36l101.5,32l90-68Z" fill="#e5af0f"/><g id="e9POniTzBMr16_to" transform="translate(127.478957,478.454156)"><path d="M111.22,526L56.2197,512.5L1.71973,479L17.2197,546.5l-75.5-5.5l84.5,63.5h45.5L178.72,584L56.2197,552L111.22,526Z" transform="scale(3.473373,3.473373) translate(-60.219852,-541.75)" fill="#f83084"/></g><path d="M357.22,135l88.5-53-17,53v43v13l81,9.5l30,118.5-45.5,45-16.5-112.5-49,97.5h-47v-30l-71.5-22.5L445.72,227h-122.5l-69.5-26.5l56.5-9.5l118.5-56h-71.5Z" fill="#5591a9"/><path d="M201.22,514.5l-37.5,13l37.5,43.5h50.5l-30,18.5l71.5,28.5l22.5-47h81l54.5-75.5-114.5,32L201.22,550l60-35.5h-60Z" fill="#e83b62"/><path d="M37.7197,629l-64,21l64,47-120.5-15l96,32h-111l54.5,50.5l115-26.5L216.22,650h-43l43-21h-105L48.7197,682l-11-53Z" fill="#460336"/><g id="e9POniTzBMr20_to" transform="translate(322.218742,616.938884)"><path d="M329.22,593.5L285.72,648l-35.5-26.5v26.5l-118.5,64l32,18.5l64-43l69.5,52.5-69.5-9.5l84.5,51l17-51l131.5-43-96-13l96-26.5-17-99.5-22.5,28-11.5,17-86.5,47l19-47h-13Z" transform="scale(2.540135,2.540135) translate(-296.220001,-665)" fill="#6d0542"/></g><path d="M443.72,354.5l-41.5,19l73.5,99.5h58l-99.5-69.5h60v-30h-50.5v-19Z" fill="#ecb5b2"/><path d="M607.22,341.5l22.5-90l98,41-98,13.5l79,82.5h-67.5l45,28.5-32,63.5L550.72,430l79-13-58-43.5l35.5-32Z" fill="#93095e"/><path d="M601.72,509h-118.5v45h52.5l-30,28l39.5,98l109-37.5l30-105.5-103.5,67.5l21-95.5Z" fill="#f9587a"/><path d="M823.22,509h-97.5l82.5-36l73.5-41-35.5,88l152-35.5-96,54.5l81-9.5-175,62h133.5l-144.5,21h126l-115,22.5l73.5,65.5-73.5,32l38,15h-137.5l36,30-190-30l154-82.044v-90.956l75-13l39.5-52.5Z" fill="#201a6c"/><g id="e9POniTzBMr25_to" transform="translate(912.583941,646.028921)"><path d="M985.22,687.5l45-58.5-82.75,18.999-77.25,3.501l45.5,49-17,36l48.75,30l48.75,5.5-80.5,15l52.5,39.5l124-126-107-13Z" transform="scale(2.046462,2.046462) translate(-1092.453925,-727.750001)" fill="#06094c"/></g><path d="M872.22,-42l-150.5,19-15,41v38l88.5,26l77-54.5-65.5,15l75-65.5-109,30l99.5-49Z" fill="#b5168a"/><path d="M842.22,116l58.5-75l112.5,75-69.5,28h107l-88,26.5l50.5,24.5-84.5,39.5-28,20.5-100-20.5l19-26.5h81v-50.5l-38,28l38-82.5-58.5,13Z" fill="#fa96b0"/><path d="M1062.22,59.5L994.72,22l-34-54.5l178.5,66-30,63.5l82.5-18.5l41.5,84.5-71.5-49l30,120.5-65.5,28-32,15L960.72,253l92-18.5-32-62l41.5,9.5l64,43-17-79-47-32-101.5-54.5h101.5Z" fill="#fc6e99"/><path d="M787.72,307.5l84.5-22.5l139,36-112.5-13.5l37.5,96L770.72,362l86.5-30-69.5-24.5Z" fill="#fd18b0"/><g id="e9POniTzBMr30_to" transform="translate(1053.719971,391.25)"><path d="M1080.72,307.5l-60,34h-80.5l26,52.5-26,34l26,47l43.5-30h105l52.5-62-86.5,11l70-63.5-70-23Z" transform="scale(2.229074,2.229074) translate(-1053.719971,-391.25)" fill="#d7288f"/></g><path d="M1105.22,471.5l-84.5-11.5l36,41.5-23,30l71.5,41.5l13.5-41.5l71.5,24.5l69.5-39.5-154.5-15h51l-11.5-41.5-39.5,11.5Z" fill="#ac0d51"/><path d="M1005.72,552l-34,26.5l56.5,20.5l66,69.5v-50.5l88,11l34-50.5-79-26.5l21,47-101.5-20.5-51-26.5Z" fill="#070a4f"/><path d="M1174.72,277.5l101.5-64l103.5,51-103.5,97.5-60,21-60-21l43-28l17-22.5h-75l-15-34h48.5Z" fill="#fd3775"/><g id="e9POniTzBMr34_to" transform="translate(1140.86738,89.75)"><path d="M1186.22,33.5l-32-47l173,47-17,133-71.5,26.5v-52.5l-22.5-68l22.5-39h-52.5Z" transform="scale(2.036677,2.036677) translate(-1240.719971,-89.75)" fill="#fd418a"/></g><path d="M1206.72,400l109-36l11.5,62l13,154.5-71.5-113v-56.5l-43,56.5-60-26.5l16.5-30l24.5-11Z" fill="#fc8790"/><path d="M821.72,400l-96-9.5-19,35.5l34,41.5l54.5-41.5l26.5-26Z" fill="#fc8790"/><path d="M795.22,242h-54.5l-49,97.5h49l24.5-50.5l30-47Z" fill="#fc8790"/><path d="M545.22,640.5h-75l15,26.5-28.5,97.5l62-37.5l26.5-86.5Z" fill="#fb538e"/><path d="M635.22,236.5h-95.5L451.22,400l64,99.5l120-111L504.72,367l130.5-130.5Z" fill="#b84684"/><g id="e9POniTzBMr40_to" transform="translate(32.96983,292.211444)"><path d="M-48.7803,324.5l97.9759,33.1L114.72,264.5v184l-129.5003,62-34-186Z" transform="scale(3.103972,3.103972) translate(-32.969852,-387.5)" fill="#fa96b0"/></g><g id="e9POniTzBMr41_to" transform="translate(101.469852,531.5)"><path d="M150.22,490L-41.2803,518.5L114.72,638.5l84.5-34-20.5-39l65.5-94-26-47-68,65.5Z" transform="scale(1.592784,1.592784) translate(-101.469852,-531.5)" fill="#c996a7"/></g><path d="M517.22,582l-71.5,24.5l17,28.5l95.5,73-182-54.5l86.5,66h-111l69.5,60l137-22.5l126-79-79-43-88-53Z" fill="#13043b"/><path d="M708.72,469.5l-111-22.5-52.5,22.5l62,86.5h126l77-34h-169l67.5-52.5Z" fill="#cc0f83"/><path d="M970.22,401.5l-126-31.5-73.5,48.5l49,51l96,26l79-48.5-79-28.5l54.5-17Z" fill="#93095e"/><path d="M1030.22,229h-128l-112.5,30l58,26l171,26.5l38-26.5h-90.5l64-56Z" fill="#f76187"/><path d="M1246.22,620h60.5l-60.5,73-39.5,71.5-114.5,51-11.5-100l38-43v75l107-54.5-94-39.5l114.5-86.5v53Z" fill="#b92281"/><path d="M794.919,107.186l80.172,21.482l21.22,57.967L818.554,165.8l19.667,63.763-49.269-34.425-29.491,44.38-81.101-52.789l69.057-2.72-46.28-82.282l42.676-27.9052L767.36,152.083l27.559-44.897Z" fill="#b80065"/><path d="M636.591,-5.11912L570.503,-34.7328l-52.615-37.3919L617.987,-96.032L810.564,6.29746L753.546,14.3134l50.552,66.3443L688.346,-3.15691L686.255,49.0817L643.328,70.1909l76.183,71.1421-90.956,28.427-6.709-19.397l23.273-42.422-88.865-23.8117l57.073-54.5884-73.745-35.80679l97.009,1.14677Z" fill="#ef98b8"/><path d="M145.328,207.477l53.295-46.284L283.07,216.95l101.923,11.781-69.191,61.176l74.36,6.466l42.427,73.485-122.74-57.734L385.616,408L194.83,343.421l122.916-89.745-83.553-22.388l28.818,60.521-79.148,11.403-67.264,11.482-42.4103-60.021l125.2033-9.416-54.064-37.78Z" fill="#fc8790"/><g id="e9POniTzBMr50_to" transform="translate(77.108101,86.59441)"><path d="M122.819,96.3648l4.651,69.5742-48.2295,11.924L63.317,107.856L26.7462,39.5639L84.9816,55.1681l8.4879-59.84229L126.701,81.8759l-3.882,14.4889Z" transform="scale(2.945915,2.945915) translate(-77.108101,-86.59441)" fill="#f8c2a0"/></g><g id="e9POniTzBMr51_to" transform="translate(104.6885,62.60325)"><path d="M255.272,30.9162l-86.4-11.7627-40.089,18.2461l76.309,20.4467-49.808,12.0184l37.643,33.3803L287.6,91.86L255.272,30.9162Z" transform="translate(-209.7045,-61.19925)" fill="#0080a1"/></g><path d="M374.938,18.9812L306.357,0.605014L295.584,13.7651L278.68,9.2358l9.981-23.7252-18.533-15.8363.49,21.35441l4.843,43.74409L330.32,54.1309l44.416-1.5572-55.79-21.6782l20.174-9.606l35.818-2.3083Z" fill="#015486"/><path d="M386.354,-46.8057l-70.959-50.0715l29.461,7.894l11.108,2.9764l50.307,1.574-4.747,37.0333l11.725-3.9124-7.843-10.5765l18.169,7.1308l41.617-13.8873l49.08,31.2682-39.12-10.4822l53.754,27.3444L477.467,9.18401l-5.55-44.96881-48.342-18.9728-10.326,3.4457l29.04,39.1644-136.413-16.3638l80.478-18.2944Z" fill="#4403b9"/><path d="M209.005,-117.102l-35.042-.59l3.517,21.6483-14.489-3.8823l13.082,22.6578-22.658,13.0815-7.728-2.0705l16.264,28.1691-11.023,6.3639L174.97,9.91717l17.082-63.75107l24.148,6.4704L245.899,4.07582L273.722,-99.7612L255.35,-89.1546l-50.228-13.4584l3.883-14.489Z" fill="#f4057d"/><path d="M390.96,140.778l-194.292-14.79l89.759,57.179L390.96,140.778Z" fill="#e5af0f"/><path d="M111.654,356.333L62.0218,329.058L18.0493,282.594l-2.4984,69.212-71.5039-24.854L9.23269,410.159L53.1823,421.935l108.6597,7.892L51.7985,367.212l59.8555-10.879Z" fill="#f83084"/><path d="M450.469,42.3256L549.671,14.037L519.533,60.8312L508.404,102.366l-3.365,12.557l75.781,30.141-1.692,122.226-55.596,31.691l13.179-112.937-72.565,81.495-45.399-12.164l7.765-28.978-63.24-40.239l148.87-32.062-118.326-31.705-60.273-43.585l57.034,5.4469L519.533,60.8312L450.469,42.3256Z" fill="#5591a9"/><path d="M201.563,368.519l-39.587,2.851l24.964,51.724l48.779,13.07-33.766,10.105l61.687,46.034l33.898-39.575l78.24,20.965l72.184-58.822-118.881,1.275-136.706-13.337l67.144-18.761-57.956-15.529Z" fill="#e83b62"/><path d="M13.9996,436.8l-67.2544,3.72l49.65475,61.963L-116.112,456.807l84.4468,55.756-107.2178-28.729l39.5727,62.885l117.9401,4.167L180.982,503.284l-41.535-11.129L186.417,483L84.9952,455.824L10.9074,490.842L13.9996,436.8Z" fill="#460336"/><g id="e9POniTzBMr60_to" transform="translate(232.062654,561.419009)"><path d="M304.755,477.956L248.631,519.34L221.2,484.555l-6.859,25.597L83.3144,541.301l26.1216,26.152l72.948-24.97l53.544,68.699-64.673-27.164l68.421,71.132l29.621-44.862l138.148-7.5-89.364-37.404l99.587-.75L427,464.124l-28.98,21.223-15.508,13.444-95.717,23.011l30.517-40.481-12.557-3.365Z" transform="translate(-255.157204,-559.637009)" fill="#6d0542"/></g><path d="M477.211,276.734l-45.003,7.612l45.243,115.133l56.024,15.011-78.122-92.884l57.956,15.529l7.764-28.978-48.779-13.07l4.917-18.353Z" fill="#ecb5b2"/><path d="M638.505,306.494l45.027-81.11l84.049,64.967-98.155-12.324l54.956,100.136-65.2-17.471l36.09,39.176-47.345,53.054-86.903-75.567l79.673,7.89-44.765-57.029l42.573-21.722Z" fill="#93095e"/><g id="e9POniTzBMr63_to" transform="translate(563.779354,528.9841)"><path d="M589.84,466.863l-114.462-30.67-11.647,43.467l50.711,13.588-36.225,19.281l12.79,104.884l114.992-8.01l56.283-94.141-117.444,38.412l45.002-86.811Z" transform="scale(2.218478,2.218478) translate(-563.006485,-526.803009)" fill="#f9587a"/></g><g id="e9POniTzBMr64_to" transform="translate(730.941498,614.090485)"><path d="M803.792,524.191l-94.178-25.234l89.007-13.421l81.607-20.58-57.067,75.813L979.17,545.82L872.336,573.616l80.698,11.788-185.083,14.594L896.902,634.55L751.89,617.435l121.707,32.612-116.905-8.031l54.043,82.291-79.278,11.887l32.823,24.324L631.465,724.93l27.009,38.295-175.761-78.153L652.7,645.682l23.541-87.857l75.809,6.854l51.742-40.488Z" transform="translate(-351.72,-612.960998)" fill="#201a6c"/></g><path d="M914.073,738.538l58.608-44.86-84.848-3.066L812.309,674l31.268,59.107-25.738,30.373l39.324,41.596l45.665,17.93-81.639-6.346l40.488,51.742l152.383-89.613-99.987-40.251Z" fill="#06094c"/><g id="e9POniTzBMr66_to" transform="translate(903.249023,44.271402)"><path d="M993.732,4.64852L843.442,-15.9512l-25.1,35.7207-9.835,36.7052l78.755,48.0193l88.482-32.7136-67.151-2.4638l89.398-43.8567-113.051.7665L993.732,4.64852Z" transform="scale(1.239904,1.239904) translate(-903.249023,-44.271402)" fill="#b5168a"/></g><path d="M923.861,149.5l75.918-57.3032L1089.03,193.758l-74.37,9.058l103.35,27.694-91.86,2.821l42.44,36.736-91.846,16.283-32.352,12.555-91.287-45.683l25.211-20.68l78.24,20.964l13.071-48.779-43.952,17.211l58.057-69.854-59.871-2.584Z" fill="#fa96b0"/><g id="e9POniTzBMr68_to" transform="translate(649.621584,158.468288)"><path d="M1150.99,151.866l-55.5-53.6927-18.73-61.4428L1232.09,146.681l-45.41,53.571l84.48,3.483l18.21,92.362-56.38-65.836-2.21,124.159-70.51,10.093-34.79,6.207-122.62-58.218l93.66,5.942-14.86-68.17l37.62,19.918l50.69,58.099l4.03-80.708-37.12-43.074-83.93-78.913l98.04,26.27Z" transform="scale(2.859062,2.859062) translate(-1155.293736,-255.941817)" fill="#fc6e99"/></g><path d="M821.654,320.37l87.444.136l124.942,70.75-105.168-42.158l11.375,102.435-149.119-82.92l91.317-6.59-60.791-41.653Z" fill="#fd18b0"/><path d="M1104.67,396.203l-66.75,17.313-77.762-20.835l11.526,57.44-33.914,26.112l12.95,52.128l49.78-17.719l101.42,27.176l66.76-46.299-86.4-11.763l84.05-43.219-61.66-40.334Z" fill="#d7288f"/><path d="M1085.89,560.956l-78.64-32.978l24.03,49.403-29.98,23.025l58.32,58.592l23.78-36.592l62.72,42.171l77.36-20.166-145.36-54.477l49.27,13.2-.37-43.062-41.13.884Z" fill="#ac0d51"/><path d="M968.945,612.961l-39.7,16.797l49.269,34.425l45.766,84.214l13.07-48.779l82.15,33.401l45.91-39.98-69.45-46.043l8.12,50.833-92.73-46.071-42.405-38.797Z" fill="#070a4f"/><path d="M1203.23,391.555l114.61-35.55l86.77,76.05-125.21,67.39-63.39,4.756-52.52-35.814l48.78-15.917l22.25-17.333-72.45-19.411-5.69-36.724l46.85,12.553Z" fill="#fd3775"/><path d="M1277.49,158.845l-18.74-53.68l154.94,90.174-50.85,124.068-75.92,7.091l13.59-50.711-4.13-71.506l31.82-31.848-50.71-13.588Z" fill="#fd418a"/><path d="M1202.44,518.163l114.6-6.562-4.94,62.864-27.43,152.6-39.82-127.655l14.63-54.575-56.16,43.446-51.1-41.127l23.7-24.707l26.52-4.284Z" fill="#fc8790"/><path d="M830.555,418.518l-90.27-34.023-27.541,29.373l22.101,48.885l63.384-25.98l32.326-18.255Z" fill="#fc8790"/><path d="M845.851,259.043l-52.643-14.106-72.565,81.496l47.33,12.682l36.736-42.438l41.142-37.634Z" fill="#fc8790"/><path d="M501.231,579.259l-72.445-19.411l7.63,29.479-52.763,86.802l69.593-20.176l47.985-76.694Z" fill="#fb538e"/><path d="M692.726,212.319l-92.245-24.717L472.679,322.625l36.067,112.674l144.64-76.159-120.489-54.544l159.829-92.277Z" fill="#b84684"/><path d="M9.25748,120.288L95.328,177.618l87.387-72.969L135.093,282.38L-6.04139,308.75L9.25748,120.288Z" fill="#fa96b0"/><g id="e9POniTzBMr81_to" transform="translate(110.259056,375.945496)"><path d="M158.642,331.654L-33.7089,309.619L85.9173,465.906l90.4207-10.972-9.708-42.976l87.597-73.845-12.949-52.128-82.636,45.669Z" transform="translate(-110.259056,-375.945496)" fill="#c996a7"/></g><g id="e9POniTzBMr82_to" transform="translate(459.833008,605.329498)"><path d="M489.326,515.505l-75.405,5.16l9.044,31.929l73.352,95.23-161.693-99.748l66.471,86.139-107.218-28.729l51.603,75.943l138.155,13.725l142.154-43.697-65.179-61.981-71.284-73.971Z" transform="translate(-450.849044,-610.208)" fill="#13043b"/></g><path d="M703.417,456.403L602.023,405.941l-56.535,8.145l37.5,99.599l121.706,32.611l83.176-12.912-163.241-43.74l78.788-33.241Z" fill="#cc0f83"/><g id="e9POniTzBMr84_to" transform="translate(798.271445,577.470987)"><path d="M973.607,458.401L860.053,395.363l-83.548,27.824l34.13,61.945l86,49.96l88.861-26.4-68.932-47.976l57.043-2.315Z" transform="scale(1.911274,1.911274) translate(-881.000488,-465.227493)" fill="#93095e"/></g><path d="M1076.21,307.308L952.57,274.179l-116.431-.139l49.294,40.125L1043.75,384.02l43.56-15.761-87.415-23.424l76.315-37.527Z" fill="#f76187"/><path d="M1076.21,307.308L952.57,274.179l-116.431-.139l49.294,40.125L1043.75,384.02l43.56-15.761-87.415-23.424l76.315-37.527Z" fill="#f76187"/><path d="M1183.65,740.89l58.44,15.659-77.33,54.854-56.66,58.84L984.298,889.87l14.774-99.569l47.838-31.699-19.41,72.444l117.45-24.949-80.57-62.483l132.99-53.918-13.72,51.194Z" fill="#b92281"/><path d="M812.139,-42.4083l80.172,21.482l21.22,57.9673-77.757-20.8349l19.667,63.7628-49.269-34.4247-29.491,44.3793L695.58,37.1344l69.057-2.7194-46.281-82.2821l42.677-27.9053L784.58,2.48864l27.559-44.89694Z" transform="matrix(2.683305 0 0 2.683305-1061.897795 87.737823)" fill="#b80065"/><path d="M653.81,-154.713l-66.087-29.614-52.615-37.392l100.098-23.907l192.577,102.329-57.017,8.016l50.551,66.3444-115.751-83.8144-2.092,52.238-42.926,21.1097l76.183,71.14168L645.774,20.1657L639.066,0.76851l23.273-42.42211-88.865-23.8113l57.073-54.5881-73.745-35.807l97.008,1.147Z" fill="#ef98b8"/><g id="e9POniTzBMr90_to" transform="translate(608.096706,171.187796)"><path d="M162.548,57.8824l53.295-46.2833l84.446,55.7562L402.213,79.1366L333.022,140.313l74.36,6.466l42.426,73.485-122.739-57.735l75.767,95.877-190.787-64.579l122.916-89.745-83.552-22.3883l28.818,60.5213-79.149,11.403L133.819,165.1L91.4084,105.078L216.612,95.6625L162.548,57.8824Z" transform="scale(1.682274,1.682274) translate(-270.6082,-135.00255)" fill="#fc8790"/></g><path d="M140.038,-53.2295l4.652,69.5746L96.4603,28.2687L80.5368,-41.7381L43.966,-110.03l58.235,15.6038l8.488-59.8418l33.232,86.5496-3.883,14.4889Z" fill="#f8c2a0"/><path d="M408.18,-8.81604L213.888,-23.6066l89.759,57.1798L408.18,-8.81604Z" fill="#e5af0f"/><g id="e9POniTzBMr93_to" transform="translate(102.605266,72.128113)"><path d="M128.873,206.739L79.2415,179.464L35.269,133l-2.4984,69.212-71.5039-24.854l65.1857,83.207L70.402,272.341l108.66,7.892L69.0182,217.618l59.8548-10.879Z" transform="translate(-68.947266,-201.578613)" fill="#f83084"/></g><g id="e9POniTzBMr94_to" transform="translate(402.219978,168.094234)"><path d="M467.689,-107.269l99.202-28.288-30.138,46.7939-11.13,41.5348-3.364,12.5571L598.04,-4.5306L596.348,117.696l-55.597,31.691l13.18-112.9376-72.566,81.4956-45.398-12.164l7.764-28.9782-63.24-40.2389L529.362,4.50201L411.036,-27.2033l-60.273-43.585l57.034,5.447l128.956-23.4218-69.064-18.5059Z" transform="scale(2.048864,2.048864) translate(-474.401489,-6.914993)" fill="#5591a9"/></g><path d="M218.783,218.925l-39.587,2.851l24.963,51.723l48.78,13.071-33.766,10.105l61.687,46.034l33.898-39.575l78.24,20.964l72.184-58.821-118.881,1.275-136.706-13.337l67.143-18.761-57.955-15.529Z" fill="#e83b62"/><path d="M31.2194,287.206l-67.2545,3.72l49.6548,61.963-112.5118-45.676l84.4467,55.756L-121.663,334.24l39.5724,62.885l117.9402,4.167L198.202,353.69l-41.535-11.129l46.97-9.156-101.422-27.176-74.0879,35.018l3.0923-54.041Z" fill="#460336"/><g id="e9POniTzBMr97_to" transform="translate(272.376999,410.042999)"><path d="M321.975,328.362l-56.124,41.384-27.432-34.785-6.858,25.597-131.027,31.149l26.122,26.152l72.948-24.97l53.544,68.699-64.673-27.165l68.421,71.133l29.62-44.862l138.149-7.501-89.364-37.403l99.587-.751L444.22,314.53l-28.98,21.222-15.508,13.445-95.717,23.01l30.517-40.481-12.557-3.364Z" transform="translate(-272.376999,-410.042999)" fill="#6d0542"/></g><path d="M494.431,127.14l-45.003,7.612l45.243,115.132l56.023,15.012-78.121-92.884l57.955,15.529l7.765-28.978-48.779-13.07l4.917-18.353Z" fill="#ecb5b2"/><path d="M655.724,156.9l45.027-81.11l84.05,64.967-98.155-12.324l54.955,100.136-65.2-17.471l36.091,39.176-47.345,53.054-86.903-75.567l79.673,7.89-44.765-57.03L655.724,156.9Z" fill="#93095e"/><g id="e9POniTzBMr100_to" transform="translate(365.906501,381.36)"><path d="M623.018279,301.310722L492.598,286.599l-11.647,43.467l50.711,13.588-36.225,19.281l12.79,104.884l114.992-8.011l56.283-94.14L562.058,404.08l60.960279-102.769278Z" transform="scale(1.493651,1.493651) translate(-589.372406,-393.032643)" fill="#f9587a"/></g><g id="e9POniTzBMr101_to" transform="translate(971.720011,464.49649)"><path d="M821.012,374.597l-94.178-25.235l89.006-13.42l81.608-20.58-57.067,75.813l156.009,5.05-106.835,27.797l80.699,11.788L785.17,450.404l128.951,34.552L769.11,467.841l121.707,32.611-116.905-8.03l54.043,82.291-79.278,11.886L781.5,610.923L648.685,575.336l27.009,38.295-175.762-78.153l169.987-39.39l23.542-87.857l75.809,6.854l51.742-40.488Z" transform="translate(-748.161011,-464.49649)" fill="#201a6c"/></g><g id="e9POniTzBMr102_to" transform="translate(944.845455,580.500011)"><path d="M931.293,588.944l58.608-44.86-84.848-3.066-75.524-16.612l31.268,59.107-25.739,30.373l39.325,41.595l45.665,17.93-81.639-6.346l40.488,51.742l152.383-89.613-99.987-40.25Z" transform="scale(1.726142,1.726142) translate(-930.40451,-621.606506)" fill="#06094c"/></g><g id="e9POniTzBMr103_to" transform="translate(1002.777496,45.956802)"><path d="M941.081,-0.093871L1017,-57.3974l89.25,101.5616-74.37,9.058l103.35,27.6936-91.86,2.821l42.44,36.7352-91.847,16.284-32.351,12.555-91.287-45.684l25.211-20.6791l78.24,20.9641l13.07-48.779-43.952,17.2108L1000.95,2.49001l-59.869-2.583881Z" transform="translate(-1234.629999,-45.9568)" fill="#fa96b0"/></g><g id="e9POniTzBMr104_to" transform="translate(1163.334991,54.130997)"><path d="M1168.21,2.27154l-55.5-53.69254-18.73-61.443L1249.31,-2.91347L1203.9,50.6583l84.48,3.4829l18.21,92.3618-56.38-65.836L1248,204.826l-70.51,10.093-34.8,6.207-122.61-58.218l93.66,5.942-14.86-68.17l37.62,19.917l50.69,58.1l4.03-80.7084-37.12-43.0741-83.93-78.9131l98.04,26.27014Z" transform="translate(-1163.334991,-54.130997)" fill="#fc6e99"/></g><path d="M838.874,170.775l87.444.137l124.942,70.749-105.169-42.157l11.376,102.435-149.12-82.921l91.317-6.59-60.79-41.653Z" fill="#fd18b0"/><g id="e9POniTzBMr106_to" transform="translate(1070.445007,315.655502)"><path d="M1121.89,246.609l-66.76,17.313-77.752-20.835l11.526,57.44-33.914,26.112l12.95,52.128l49.78-17.719l101.42,27.176l66.76-46.3-86.4-11.762l84.05-43.219-61.66-40.334Z" transform="translate(-1070.445007,-315.655502)" fill="#d7288f"/></g><path d="M1103.11,411.362l-78.65-32.978l24.04,49.403-29.98,23.025l58.32,58.592l23.78-36.592l62.72,42.17l77.36-20.166-145.36-54.476l49.27,13.2-.37-43.063-41.13.885Z" fill="#ac0d51"/><path d="M986.165,463.367l-39.7,16.797l49.269,34.425l45.766,84.214l13.07-48.78l82.15,33.402l45.91-39.98-69.45-46.044l8.12,50.834-92.73-46.071-42.405-38.797Z" fill="#070a4f"/><path d="M1220.45,241.96l114.61-35.549l86.77,76.05-125.21,67.39-63.39,4.756-52.52-35.814l48.78-15.917l22.25-17.333-72.45-19.412-5.69-36.723l46.85,12.552Z" fill="#fd3775"/><path d="M1294.71,9.25104l-18.74-53.68074l154.94,90.1742-50.85,124.0685-75.92,7.091l13.59-50.711-4.13-71.5063l31.82-31.8477-50.71-13.58796Z" fill="#fd418a"/><g id="e9POniTzBMr111_to" transform="translate(1251.849976,469.738998)"><path d="M1219.66,368.569l114.6-6.562-4.94,62.863-27.43,152.601-39.82-127.655l14.63-54.575-56.16,43.445-51.1-41.126l23.7-24.707l26.52-4.284Z" transform="translate(-1104.529994,-472.25)" fill="#fc8790"/></g><path d="M847.775,268.923L757.505,234.9l-27.541,29.373l22.1,48.886l63.384-25.98l32.327-18.256Z" fill="#fc8790"/><path d="M863.071,109.448L810.428,95.3428L737.863,176.838l47.33,12.683l36.736-42.439l41.142-37.634Z" fill="#fc8790"/><path d="M518.45,429.665l-72.444-19.411l7.63,29.479-52.764,86.802l69.593-20.176l47.985-76.694Z" fill="#fb538e"/><g id="e9POniTzBMr115_to" transform="translate(808.506985,167.499989)"><path d="M709.946,62.7248L617.7,38.0075L489.899,173.031l36.067,112.674l144.64-76.16-120.489-54.543L709.946,62.7248Z" transform="translate(-599.922485,-161.856239)" fill="#b84684"/></g><g id="e9POniTzBMr116_to" transform="translate(221.848349,45.956798)"><path d="M26.4772,-29.3062L112.548,28.0239l87.387-72.9687L152.313,132.786L11.1783,159.156L26.4772,-29.3062Z" transform="translate(-105.556649,-57.105598)" fill="#fa96b0"/></g><g id="e9POniTzBMr117_to" transform="translate(296.219999,224.570006)"><path d="M175.862,182.06L-16.4891,160.025L103.137,316.311l90.421-10.971-9.708-42.977l87.597-73.844-12.949-52.128-82.636,45.669Z" transform="translate(-127.478949,-226.351006)" fill="#c996a7"/></g><g id="e9POniTzBMr118_to" transform="translate(218.89999,430.411004)"><path d="M506.545,365.911l-75.404,5.16L440.185,403l73.352,95.229-161.693-99.748l66.471,86.139-107.218-28.729L362.7,531.835L500.855,545.56l142.153-43.697-65.179-61.982-71.284-73.97Z" transform="translate(-477.05249,-455.735504)" fill="#13043b"/></g><path d="M720.637,306.809L619.242,256.346l-56.534,8.146l37.499,99.599l121.707,32.611L805.09,383.79L641.849,340.049l78.788-33.24Z" fill="#cc0f83"/><g id="e9POniTzBMr120_to" transform="translate(946.464938,315.633492)"><path d="M990.827,308.807L877.273,245.769l-83.548,27.824l34.13,61.944l86,49.961l88.865-26.401-68.936-47.975l57.043-2.315Z" transform="scale(2.313411,2.313411) translate(-898.222473,-315.633492)" fill="#93095e"/></g><path d="M1093.43,157.714L969.79,124.585l-116.432-.139l49.295,40.125l158.317,69.855l43.56-15.762-87.41-23.423l76.31-37.527Z" fill="#f76187"/><g id="e9POniTzBMr122_to" transform="translate(994.72,183.166997)"><path d="M1093.43,157.714L969.79,124.585l-116.432-.139l49.295,40.125l158.317,69.855l43.56-15.762-87.41-23.423l76.31-37.527Z" transform="translate(-978.944,-179.435997)" fill="#f76187"/></g><path d="M1200.87,591.296l58.44,15.658-77.33,54.854-56.66,58.841-123.8,19.627l14.77-99.569l47.84-31.7-19.42,72.445l117.46-24.949-80.57-62.484l132.99-53.917-13.72,51.194Z" fill="#b92281"/></g></g></g><path d="M-187.16506,260.565c0,0-19.290534-153.6955-27.557906-219.565l-82.67372,201l110.231626,18.565Z" fill="none" stroke="#3f5787" stroke-width="2.528"/></svg>