<svg id="ewCH2RtGjgl1" xmlns="http://www.w3.org/2000/svg" xmlns:xlink="http://www.w3.org/1999/xlink" viewBox="0 0 1512 1571" shape-rendering="geometricPrecision" text-rendering="geometricPrecision"><style><![CDATA[#ewCH2RtGjgl95_to {animation: ewCH2RtGjgl95_to__to 3000ms linear infinite alternate forwards}@keyframes ewCH2RtGjgl95_to__to { 0% {transform: translate(-6.725023px,673.360094px)} 100% {transform: translate(172.162903px,506.832094px)}} #ewCH2RtGjgl96_to {animation: ewCH2RtGjgl96_to__to 3000ms linear infinite alternate forwards}@keyframes ewCH2RtGjgl96_to__to { 0% {transform: translate(283.771996px,826.517517px)} 100% {transform: translate(69.160996px,881.949017px)}} #ewCH2RtGjgl100_to {animation: ewCH2RtGjgl100_to__to 3000ms linear infinite alternate forwards}@keyframes ewCH2RtGjgl100_to__to { 0% {transform: translate(516.206512px,1346.549988px)} 100% {transform: translate(968.260021px,1346.549988px)}} #ewCH2RtGjgl117_to {animation: ewCH2RtGjgl117_to__to 3000ms linear infinite alternate forwards}@keyframes ewCH2RtGjgl117_to__to { 0% {transform: translate(305.788498px,1082.100525px)} 100% {transform: translate(63.590996px,1272.601267px)}} #ewCH2RtGjgl134_to {animation: ewCH2RtGjgl134_to__to 3000ms linear infinite alternate forwards}@keyframes ewCH2RtGjgl134_to__to { 0% {transform: translate(388.765991px,714.139496px)} 100% {transform: translate(155.655491px,830.477496px)}} #ewCH2RtGjgl138_to {animation: ewCH2RtGjgl138_to__to 3000ms linear infinite alternate forwards}@keyframes ewCH2RtGjgl138_to__to { 0% {transform: translate(509.57402px,1292.955017px)} 100% {transform: translate(849.364534px,1165.877017px)}} #ewCH2RtGjgl139_to {animation: ewCH2RtGjgl139_to__to 3000ms linear infinite alternate forwards}@keyframes ewCH2RtGjgl139_to__to { 0% {transform: translate(378.541504px,1549.984985px)} 100% {transform: translate(794.367013px,1540.82035px)}} #ewCH2RtGjgl178_to {animation: ewCH2RtGjgl178_to__to 3000ms linear infinite alternate forwards}@keyframes ewCH2RtGjgl178_to__to { 0% {transform: translate(1550.425094px,1380.57455px)} 100% {transform: translate(1152.850051px,1374.000433px)}} #ewCH2RtGjgl179_to {animation: ewCH2RtGjgl179_to__to 3000ms linear infinite alternate forwards}@keyframes ewCH2RtGjgl179_to__to { 0% {transform: translate(1358.760169px,1454.03673px)} 100% {transform: translate(900.942734px,1517.240107px)}} #ewCH2RtGjgl181_to {animation: ewCH2RtGjgl181_to__to 3000ms linear infinite alternate forwards}@keyframes ewCH2RtGjgl181_to__to { 0% {transform: translate(108.215612px,1612.934151px)} 100% {transform: translate(495.301514px,1521.064151px)}} #ewCH2RtGjgl198_to {animation: ewCH2RtGjgl198_to__to 3000ms linear infinite alternate forwards}@keyframes ewCH2RtGjgl198_to__to { 0% {transform: translate(867.549508px,307.558704px)} 100% {transform: translate(730.265008px,168.843004px)}} #ewCH2RtGjgl203_to {animation: ewCH2RtGjgl203_to__to 3000ms linear infinite alternate forwards}@keyframes ewCH2RtGjgl203_to__to { 0% {transform: translate(894.360465px,135.090003px)} 100% {transform: translate(538.898987px,154.815453px)}} #ewCH2RtGjgl204_to {animation: ewCH2RtGjgl204_to__to 3000ms linear infinite alternate forwards}@keyframes ewCH2RtGjgl204_to__to { 0% {transform: translate(430.011006px,299.703205px)} 100% {transform: translate(620.736936px,179.524605px)}} #ewCH2RtGjgl205_to {animation: ewCH2RtGjgl205_to__to 3000ms linear infinite alternate forwards}@keyframes ewCH2RtGjgl205_to__to { 0% {transform: translate(682.593997px,162.854354px)} 100% {transform: translate(423.480997px,184.195854px)}} #ewCH2RtGjgl232_to {animation: ewCH2RtGjgl232_to__to 3000ms linear infinite alternate forwards}@keyframes ewCH2RtGjgl232_to__to { 0% {transform: translate(1442.105017px,263.239015px)} 100% {transform: translate(1281.305017px,318.493515px)}} #ewCH2RtGjgl233_to {animation: ewCH2RtGjgl233_to__to 3000ms linear infinite alternate forwards}@keyframes ewCH2RtGjgl233_to__to { 0% {transform: translate(71.040348px,252.263991px)} 100% {transform: translate(240.478698px,209.265991px)}} #ewCH2RtGjgl237_to {animation: ewCH2RtGjgl237_to__to 3000ms linear infinite alternate forwards}@keyframes ewCH2RtGjgl237_to__to { 0% {transform: translate(1157.512496px,308.263004px)} 100% {transform: translate(1012.033496px,181.374084px)}} #ewCH2RtGjgl240_to {animation: ewCH2RtGjgl240_to__to 3000ms linear infinite alternate forwards}@keyframes ewCH2RtGjgl240_to__to { 0% {transform: translate(809.399993px,65.243493px)} 100% {transform: translate(563.205993px,84.568493px)}} #ewCH2RtGjgl244_to {animation: ewCH2RtGjgl244_to__to 3000ms linear infinite alternate forwards}@keyframes ewCH2RtGjgl244_to__to { 0% {transform: translate(330.051579px,695.959956px)} 100% {transform: translate(625.103057px,653.090956px)}} #ewCH2RtGjgl261_to {animation: ewCH2RtGjgl261_to__to 3000ms linear infinite alternate forwards}@keyframes ewCH2RtGjgl261_to__to { 0% {transform: translate(181.031002px,484.126707px)} 100% {transform: translate(433.355026px,350.757707px)}} #ewCH2RtGjgl267_to {animation: ewCH2RtGjgl267_to__to 3000ms linear infinite alternate forwards}@keyframes ewCH2RtGjgl267_to__to { 0% {transform: translate(1373.859985px,515.813995px)} 100% {transform: translate(1525.139985px,524.320995px)}} #ewCH2RtGjgl268_to {animation: ewCH2RtGjgl268_to__to 3000ms linear infinite alternate forwards}@keyframes ewCH2RtGjgl268_to__to { 0% {transform: translate(1236.714995px,505.583498px)} 100% {transform: translate(1446.724995px,343.981498px)}} #ewCH2RtGjgl269_to {animation: ewCH2RtGjgl269_to__to 3000ms linear infinite alternate forwards}@keyframes ewCH2RtGjgl269_to__to { 0% {transform: translate(1013.39593px,293.231005px)} 100% {transform: translate(1027.19243px,2.353005px)}} #ewCH2RtGjgl272_to {animation: ewCH2RtGjgl272_to__to 3000ms linear infinite alternate forwards}@keyframes ewCH2RtGjgl272_to__to { 0% {transform: translate(1509.769985px,261.268854px)} 100% {transform: translate(1319.339985px,135.090004px)}} #ewCH2RtGjgl273_to {animation: ewCH2RtGjgl273_to__to 3000ms linear infinite alternate forwards}@keyframes ewCH2RtGjgl273_to__to { 0% {transform: translate(863.003021px,283.697002px)} 100% {transform: translate(856.305021px,96.265002px)}} #ewCH2RtGjgl274_to {animation: ewCH2RtGjgl274_to__to 3000ms linear infinite alternate forwards}@keyframes ewCH2RtGjgl274_to__to { 0% {transform: translate(305.169017px,195.817499px)} 100% {transform: translate(53.377017px,225.485499px)}} #ewCH2RtGjgl275_to {animation: ewCH2RtGjgl275_to__to 3000ms linear infinite alternate forwards}@keyframes ewCH2RtGjgl275_to__to { 0% {transform: translate(1048.015533px,237.407501px)} 100% {transform: translate(1250.500066px,350.891495px)}} #ewCH2RtGjgl277_to {animation: ewCH2RtGjgl277_to__to 3000ms linear infinite alternate forwards}@keyframes ewCH2RtGjgl277_to__to { 0% {transform: translate(609.205018px,472.893632px)} 100% {transform: translate(887.313084px,400.092305px)}} #ewCH2RtGjgl278_to {animation: ewCH2RtGjgl278_to__to 3000ms linear infinite alternate forwards}@keyframes ewCH2RtGjgl278_to__to { 0% {transform: translate(1166.310007px,629.249446px)} 100% {transform: translate(806.747462px,629.249446px)}} #ewCH2RtGjgl281_to {animation: ewCH2RtGjgl281_to__to 3000ms linear infinite alternate forwards}@keyframes ewCH2RtGjgl281_to__to { 0% {transform: translate(1614.706152px,760.92918px)} 100% {transform: translate(1238.041152px,738.957px)}} #ewCH2RtGjgl283_to {animation: ewCH2RtGjgl283_to__to 3000ms linear infinite alternate forwards}@keyframes ewCH2RtGjgl283_to__to { 0% {transform: translate(1181.179993px,746.362976px)} 100% {transform: translate(898.661993px,882.450976px)}} #ewCH2RtGjgl284_to {animation: ewCH2RtGjgl284_to__to 3000ms linear infinite alternate forwards}@keyframes ewCH2RtGjgl284_to__to { 0% {transform: translate(857.345098px,1080.766001px)} 100% {transform: translate(1127.400098px,915.855046px)}} #ewCH2RtGjgl285_to {animation: ewCH2RtGjgl285_to__to 3000ms linear infinite alternate forwards}@keyframes ewCH2RtGjgl285_to__to { 0% {transform: translate(758.195564px,1098.79134px)} 100% {transform: translate(501.968016px,1194.884931px)}} #ewCH2RtGjgl287_to {animation: ewCH2RtGjgl287_to__to 3000ms linear infinite alternate forwards}@keyframes ewCH2RtGjgl287_to__to { 0% {transform: translate(1274.460022px,1181.865051px)} 100% {transform: translate(763.258055px,1281.180126px)}} #ewCH2RtGjgl289_to {animation: ewCH2RtGjgl289_to__to 3000ms linear infinite alternate forwards}@keyframes ewCH2RtGjgl289_to__to { 0% {transform: translate(1222.359975px,1214.740007px)} 100% {transform: translate(1548.959475px,1207.970007px)}} #ewCH2RtGjgl290_to {animation: ewCH2RtGjgl290_to__to 3000ms linear infinite alternate forwards}@keyframes ewCH2RtGjgl290_to__to { 0% {transform: translate(1058.710022px,598.895996px)} 100% {transform: translate(1303.495022px,557.919996px)}} #ewCH2RtGjgl293_to {animation: ewCH2RtGjgl293_to__to 3000ms linear infinite alternate forwards}@keyframes ewCH2RtGjgl293_to__to { 0% {transform: translate(1116.624542px,326.399498px)} 100% {transform: translate(1443.330539px,326.399498px)}} #ewCH2RtGjgl294_to {animation: ewCH2RtGjgl294_to__to 3000ms linear infinite alternate forwards}@keyframes ewCH2RtGjgl294_to__to { 0% {transform: translate(868.561006px,316.791502px)} 100% {transform: translate(652.343006px,359.788502px)}} #ewCH2RtGjgl295_to {animation: ewCH2RtGjgl295_to__to 3000ms linear infinite alternate forwards}@keyframes ewCH2RtGjgl295_to__to { 0% {transform: translate(955.618011px,501.89949px)} 100% {transform: translate(762.930011px,632.48849px)}} #ewCH2RtGjgl296_to {animation: ewCH2RtGjgl296_to__to 3000ms linear infinite alternate forwards}@keyframes ewCH2RtGjgl296_to__to { 0% {transform: translate(1069.897491px,746.048492px)} 100% {transform: translate(814.978491px,791.698492px)}} #ewCH2RtGjgl297_to {animation: ewCH2RtGjgl297_to__to 3000ms linear infinite alternate forwards}@keyframes ewCH2RtGjgl297_to__to { 0% {transform: translate(1284.984985px,778.3815px)} 100% {transform: translate(1525.574985px,756.2685px)}} #ewCH2RtGjgl299_to {animation: ewCH2RtGjgl299_to__to 3000ms linear infinite alternate forwards}@keyframes ewCH2RtGjgl299_to__to { 0% {transform: translate(192.622972px,1161.456692px)} 100% {transform: translate(604.788995px,1094.839972px)}}]]></style><defs><linearGradient id="ewCH2RtGjgl4-fill" x1="0" y1="-1415" x2="-367.906" y2="165.04" spreadMethod="pad" gradientUnits="userSpaceOnUse" gradientTransform="translate(0 0)"><stop id="ewCH2RtGjgl4-fill-0" offset="23.4375%" stop-color="#06094c"/><stop id="ewCH2RtGjgl4-fill-1" offset="100%" stop-color="#13043b"/></linearGradient></defs><g mask="url(#ewCH2RtGjgl302)"><g><ellipse rx="1419.69" ry="1415" transform="translate(765.53 1415)" fill="url(#ewCH2RtGjgl4-fill)"/><g mask="url(#ewCH2RtGjgl300)"><g><path d="M347.829,1056.36l82.944,65.77-6.35,80.53-80.445-63.79-11.319,86.76-39.483-66.04-58.814,38.93-67.091-104.02l82.934,31.02-10.05-122.34l65.45-12.49-14.591,106.19l56.815-40.52Z" fill="#b80065"/><path d="M221.857,842.111l-61.926-68.586-41.824-71.285l131.021,20.862L420.901,942.323l-71.599-18.647l23.716,105.214-91.17-158.698L251.1,932.225l-62.064,4.162L240.39,1060.13l-122.685-10.86l2.588-26.76l50.419-39.654-91.9379-72.897l96.8779-37.556-67.608-79.869l113.813,49.577Z" fill="#ef98b8"/><path d="M-50.7628,667.465l-56.5982-95.707l30.4796,24.167l11.4922,9.112l58.49131,26.892-25.64781,42.355l15.9489,1.101-3.5255-16.666l17.572,17.636l56.611,3.907L95.029,742.397l-40.4725-32.09l48.6075,59.72L26.4066,780.33l17.7971-57.052-46.754-46.923-14.0465-.97l13.05486,61.714L-155.6,649.574l104.8372,17.891Z" fill="#4403b9"/><path d="M-23.3815,806.933L108.954,822.06L48.0699,863.587l-35.6137,44.62L1.68922,921.696L74.766,995.735L6.60076,1142.47l-82.73926,10.64L0.548204,1023.3L-129.171,1085.65l-46.968-37.24l24.847-31.13-52.816-80.003l192.9695,35.246-122.4165-97.064-47.505-82.566l64.33,34.91L48.0699,863.587l-71.4514-56.654Z" fill="#5591a9"/><path d="M55.4194,1219.3l97.0246-75.56l63.977,120.19-109.115-63.64l10.618,148.21-67.4544-53.49l21.365,65.23-84.5706,40.54-61.6043-134.41l89.7133,49.1-21.93275-91.09l61.97915-5.08Z" fill="#93095e"/><path d="M132.546,1564.26l-97.434-77.25l112.26,28.01l107.408,15.69-108.36,63.19l181.299,83.6-141.074-19.51l88.813,54.32-226.2307-74.33L182.637,1743.76l-161.795-92.7l125.914,99.83-133.5566-67.77l19.2012,126.21-99.9533-25.04l25.5508,45.68-137.4071-108.95l11.129,59.66L-333.304,1599l221.846,36.89l75.3327-94.39l85.716,45.94l82.9553-23.18Z" fill="#201a6c"/><path d="M637.865,1031.33L471.731,931.793l-48.947,30.659-31.473,39.428l66.906,97.11l122.086,4.45-77.879-36.33l129.198-8.54-133.773-55.24l140.016,28Z" fill="#b5168a"/><path d="M477.025,1171.51l120.577-31.47L647.909,1307l-92.643-26.01l106.927,84.78-109.888-42.23l30.174,65.44-117.158-25.97-44.959-.91-82.954-100.51l40.936-12.44l80.944,64.18l41.826-52.41-61.165-1.05l106.303-55.5-69.227-32.86Z" fill="#fa96b0"/><path d="M743.669,1287.2l-36.395-92.4l11.161-83.49l123.716,209.92-82.572,42.12l97.766,46.17-28.513,120.57-30.868-107.5-69.822,148.81-88.646-22.84-44.402-9.8-113.117-131.2l107.259,53.7l19.372-89.69l33.604,42.74l28.342,95.33l48.442-95.44-20.465-70.45-56.293-136.98l101.431,80.43Z" fill="#fc6e99"/><path d="M263.956,1327.04l103.078,43.61l109.089,147.49L374.88,1414.99l-42.035,129.33-131.016-174.2l111.288,37.41-49.161-80.49Z" fill="#fd18b0"/><path d="M556.757,1559.2l-88.119-12.26-80.445-63.79-17.499,75.08-54.142,14.68-12.945,69.37l68.317,3.34l104.929,83.2l103.814-22.74-95.551-57.12l122.545-10.43-50.904-79.33Z" fill="#d7288f"/><path d="M675.54,1602.55l154.438,14.01l61.19,134.93-184.182,19.17-77.352-25.75-42.567-69.34l66.162,5.02l35.623-9.88-74.949-59.42l13.17-47.17l48.467,38.43Z" fill="#fd3775"/><path d="M889.119,1358.47l6.949-74.13l133.952,185.85-127.139,124.54-93.4-29.15l43.482-54.48l33.835-88.39l54.785-22.64-52.464-41.6Z" fill="#fd418a"/><path d="M606.061,1755.02l138.742,49.01-39.858,73.45-114.97,170.62l22.138-173.91l46.795-58.63-89.765,24.56-38.012-75.04l41.336-18.06l33.594,8Z" fill="#fc8790"/><path d="M221.322,1449.97l-88.066-85.93-48.3896,21.78-.3945,70.01l88.8341.12l48.016-5.98Z" fill="#fc8790"/><path d="M325.7,1265.02l-54.463-43.19-129.719,62.35l48.967,38.83l66.309-32.99l68.906-25Z" fill="#fc8790"/><path d="M170.364,1132.53l-95.4347-75.67-223.8553,99.54-18.452,153.96l211.852-20.1-112.6045-125.71l238.4945-32.02Z" fill="#b84684"/><path d="M50.8371,1432.55l-92.2895-111.3L-112.552,1303l-9.684,138.88L3.67884,1541.72L108.786,1567.45L-60.099,1433.54l110.9361-.99Z" fill="#cc0f83"/><path d="M368.481,1569.19l-99.826-132.53-113.619-7.91l6.727,91.75l74.401,103.04l119.116,12.27-55.342-92.17l68.543,25.55Z" fill="#93095e"/><path d="M571.307,1437.73L443.394,1336.31l-137.27-58.01l36.426,72.93l148.936,162.99l59.922,2.61-90.438-71.7l110.337-7.4Z" fill="#f76187"/><path d="M437.054,1124.88l62.325,85.82-26.804,76.96-60.448-83.23-33.157,81.75-20.724-74.76-66.227,22.68-37.324-119.03l71.262,51.89l21.899-122.05l65.759,4.86-41.287,99.86l64.726-24.75Z" fill="#b80065"/><path d="M371.847,882.894l-41.516-83.093-21.61-80.491l119.831,54.506L536.246,1032.59l-63.617-36.861-4.431,108.901-46.256-178.691-45.355,52.55-60.38-12.109l17.209,134.19-114.439-42.58l9.362-25.44l58.392-25.58-69.084-95.12l102.246-11.423-44.039-95.588l95.993,78.055Z" fill="#ef98b8"/><path d="M-295.159,714.246l91.592-5.798l38.21,124.768l92.0969,92.985-119.8119,8.657l68.954,65.632-18.465,109.87-74.838-157.165-3.693,159.525-137.17-218.185l197.162,4.267-64.954-89.435-21.326,85.635-88.539-50.88-76.728-41.382l7.33-95.887l132.916,89.434-22.736-82.041Z" fill="#fc8790"/><path d="M90.4123,700.582L37.0978,627.173l-21.6654,5.12L2.29146,614.199L31.9152,597.488L26.511,566.371L9.31416,588.918l-31.39006,49.23l38.7888,63.555l45.676,33.577-37.7978-66.7l28.1159,6.017l37.7053,25.985Z" fill="#015486"/><path d="M156.305,641.361L126.866,533.179l22.902,31.535l8.636,11.89l48.969,41.494-35.416,34.668l14.957,5.23.923-17.189l12.25,21.795l53.091,18.565l23.149,71.335-30.411-41.874l31.07,70.967-76.001-9.941l31.697-51.061-32.595-57.991-13.173-4.606-3.416,63.65L60.7308,596.579l95.5742,44.782Z" fill="#4403b9"/><path d="M37.2988,427.893L2.7694,399.516l-14.4148,25.25-11.2636-15.509-5.6932,33.877-33.4768-4.379-6.0073-8.271-7.078,42.117-16.2861-2.131-10.4636,62.26l69.8713-52.618L-13.27,505.96l-12.9251,76.909L87.6097,497.166l-27.1433-3.55-39.0473-53.764l15.8797-11.959Z" fill="#f4057d"/><path d="M5.54718,839.662L-176.363,670.366l42.34,130.455L5.54718,839.662Z" fill="#e5af0f"/><path d="M146.556,784.653L269.12,833.902l-68.874,24.677-45.522,34.281-13.762,10.364l50.766,91.322L88.8058,1120.04L7.00029,1108.87L113.708,1002.12l-140.0125,27.07-35.2927-48.596l31.7595-23.918-29.8704-91.863L115.616,949.501L23.6298,822.846L-0.504109,729.861L51.9794,780.704L200.246,858.579l-53.69-73.926Z" fill="#5591a9"/><path d="M-20.8617,1049.08l-51.2771-27.76-50.1442,155.32l43.5531,59.97-1.1393-158.29l45.0546,62.04l31.75946-23.92-37.92096-52.21l20.1144-15.15Z" fill="#ecb5b2"/><path d="M115.674,1207.76l112.174-48.48l30.184,134.01-87.88-90.56-28.017,147.45-50.6866-69.79l3.6194,69.25-91.25321,17.54L-20.4426,1219.9l73.0841,71.32l2.4986-94.65l60.5339,11.19Z" fill="#93095e"/><path d="M100.545,1564.63L27.3318,1463.82l100.0612,56.6l98.597,43.31-119.819,33.45l151.72,128.85-129.783-55.8l70.881,76.17L1.94326,1614.89L102.19,1752.92L-28.5484,1620.26l94.6145,130.28L-44.108,1649.57l-14.1497,128.21-89.0683-50.48l12.655,51.25-103.25-142.16-4.727,61.13-110.913-220.36l202.495,93.82l96.2909-72.52l70.0806,67.18l85.2395-1.01Z" fill="#201a6c"/><path d="M720.657,1176.01L587.531,1035.55l-54.668,17.18-40.229,30.3l38.93,112.23l115.517,36.16-65.064-55.76l125.659,25.32-113.608-88.78l126.589,63.81Z" fill="#b5168a"/><path d="M530.862,1270.96l123.327.69l5.078,176.11-81.83-49.54l80.347,110.63L563.65,1439l11.984,71.74-105.269-55.87-42.727-12.61-53.389-119.74l42.322-1.48l60.823,83.75l53.462-40.26-58.177-16.97l115.873-26.48-57.69-50.12Z" fill="#fa96b0"/><path d="M755.876,1453.38l-10.987-99.69l32.166-78.6l64.166,237.17-89.751,19.61l81.535,70.55-58.293,110.27-1.816-112.99-105.04,127.09-78.827-45.4-39.909-21.13-74.31-157.56l88.669,80.37l41.607-82.51l21.106,50.48l2.536,100.45l70.868-80.56-1.416-74.1-18.521-148.39l76.217,104.94Z" fill="#fc6e99"/><path d="M287.206,1367.28l87.272,69.43l66.265,172.42-70.186-127.08-73.471,115.3-80.341-204.19l96.713,65.51-26.252-91.39Z" fill="#fd18b0"/><path d="M507.223,1670.22l-81.048-34.93-60.448-83.23-36.056,68.74-55.518.22-30.232,64.35l64.424,21.06l78.845,108.56l105.059,4.86-76.599-80.67l119.788,21.75-28.215-90.71Z" fill="#d7288f"/><path d="M876.513,1560.86l25.728-70.56l80.151,216.34-153.566,88.45-81.745-52.79l55.579-41.86l55.093-77.47l58.183-7.83-39.423-54.28Z" fill="#fd418a"/><path d="M503.913,1874.24l119.961,84-57.001,61.32-153.8,136.61l65.938-164.01l59.813-45.05-92.102.59-17.001-83.16l44.15-6.86l30.042,16.56Z" fill="#fc8790"/><path d="M214.813,1476.18l-62.03-106.83-51.849,8.66-18.403,68.23l84.858,23.27l47.424,6.67Z" fill="#fc8790"/><path d="M362.181,1322.82l-40.925-56.35-140.013,27.07l36.795,50.66l71.859-14.93l72.284-6.45Z" fill="#fc8790"/><path d="M247.858,1153l-71.712-98.74-239.5444,38.85-57.2776,145.5l207.6192,35.57-75.2326-152.06L247.858,1153Z" fill="#b84684"/><path d="M56.384,1414.75l-59.53128-132.7-63.24232-36.34-45.0164,133.06l94.6142,130.28l93.814,52.5-126.9036-174.73L56.384,1414.75Z" fill="#cc0f83"/><path d="M324.735,1630.91l-61.267-155.39-106.537-37.32-17.196,91.32l44.562,119.98l110.667,43.02-29.151-104.4l58.922,42.79Z" fill="#93095e"/><path d="M552.405,1555.42l-96.117-132.34-116.236-92.4l16.027,80.7l100.352,197.93l56.588,18.16-67.957-93.57l107.343,21.52Z" fill="#f76187"/><path d="M552.405,1555.42l-96.117-132.34-116.236-92.4l16.027,80.7l100.352,197.93l56.588,18.16-67.957-93.57l107.343,21.52Z" fill="#f76187"/><path d="M578.163,983.298l62.325,85.812-26.804,76.97-60.448-83.23-33.157,81.75-20.724-74.76-66.227,22.68-37.324-119.038l71.262,51.898l21.899-122.055l65.759,4.858-41.287,99.867l64.726-24.752Z" fill="#b80065"/><path d="M512.956,741.309l-41.515-83.093-21.61-80.491l119.831,54.506L677.356,891.004l-63.618-36.86-4.431,108.898-46.255-178.688-45.356,52.55-60.38-12.109l17.21,134.186L360.087,916.41l9.361-25.444l58.392-25.58-69.084-95.121l102.247-11.423-44.04-95.588l95.993,78.055Z" fill="#ef98b8"/><path d="M-154.05,572.661l91.592-5.798l38.2105,124.768l92.097,92.984-119.8124,8.658l68.9543,65.629-18.46442,109.87L-76.3118,811.609l-3.6923,159.523L-217.174,752.95l197.1613,4.266-64.9536-89.434-21.3267,85.635-88.539-50.88-76.728-41.382l7.33-95.887l132.917,89.434-22.737-82.041Z" fill="#fc8790"/><path d="M-84.5173,439.528l-52.9757,75.881-58.072-25.842l42.069-85.261l20.016-99.842l45.2716,62.335l58.045-55.372-38.4742,116.142-15.8797,11.959Z" fill="#f8c2a0"/><path d="M102.052,476.564L25.453,395.899l-55.1731-12.831l59.3219,81.68-59.7279-26.994l9.9713,64.464L83.8829,565.419l18.1691-88.855Z" fill="#0080a1"/><path d="M231.522,558.998l-53.315-73.409-21.665,5.12-13.141-18.094l29.624-16.711-5.405-31.117-17.196,22.547-31.391,49.23l38.789,63.555l45.676,33.577-37.798-66.7l28.116,6.017l37.706,25.985Z" fill="#015486"/><path d="M297.415,499.778L267.976,391.596l22.903,31.534l8.635,11.89l48.969,41.494-35.415,34.668l14.957,5.23.922-17.189l12.251,21.796l53.09,18.565l23.149,71.334-30.411-41.874l31.07,70.967-76.001-9.94l31.698-51.061-32.595-57.991-13.173-4.607-3.417,63.65L201.841,454.995l95.574,44.783Z" fill="#4403b9"/><path d="M178.408,286.309l-34.53-28.377-14.415,25.25L118.2,267.673l-5.693,33.877-33.4771-4.379-6.0073-8.271-7.078,42.117-16.2861-2.131-10.4631,62.26l69.8706-52.618l18.773,25.848-12.925,76.909l113.805-85.703-27.144-3.55-39.047-53.764l15.88-11.959Z" fill="#f4057d"/><path d="M146.656,698.078L-35.2541,528.782L7.08633,659.237L146.656,698.078Z" fill="#e5af0f"/><path d="M287.667,643.069l122.564,49.248-68.874,24.677-45.522,34.282-13.762,10.364l50.766,91.321L229.917,978.452l-81.806-11.168L254.819,860.535L114.806,887.604L79.5137,839.009l31.7593-23.917-29.8702-91.863L256.727,807.917L164.741,681.262l-24.134-92.985L193.09,639.12l148.267,77.874-53.69-73.925Z" fill="#5591a9"/><path d="M120.247,907.497l-51.2772-27.76L18.8261,1035.06l43.5527,59.96-1.1393-158.28l45.0545,62.035l31.759-23.917-37.92-52.213l20.114-15.148Z" fill="#ecb5b2"/><path d="M256.783,1066.18l112.174-48.49l30.185,134.01-87.881-90.56-28.017,147.45-50.686-69.79l3.619,69.25-91.253,17.54-24.257-147.27l73.084,71.31l2.498-94.64l60.534,11.19Z" transform="matrix(1.585127 0 0 1.784992-152.077142-880.478414)" fill="#93095e"/><path d="M75.329,1194.03l-88.9827-122.52-47.6392,35.88l39.4227,54.28-52.1694-8.7-74.0864,118.97l121.5481,82.8l134.2149-53.09-149.1781-53.19L75.329,1194.03Z" fill="#f9587a"/><path d="M241.654,1423.04l-73.213-100.8l100.061,56.59l98.596,43.31-119.818,33.45L399,1584.45l-129.784-55.81l70.881,76.17-197.045-131.5l100.246,138.03L112.56,1478.68l94.615,130.27L97.0007,1507.99L82.851,1636.2l-89.06857-50.48l12.65478,51.25L-96.8127,1494.8l-4.7273,61.14-110.913-220.36l202.49572,93.81l96.29088-72.51l70.0804,67.18l85.24-1.02Z" fill="#201a6c"/><path d="M174.335,1732.85l95.722-.11-82.251-70.42-61.714-77.07-17.708,86.1-50.8767,11.13l4.8473,74.32l30.7842,54.79-76.3278-71.27-2.394,85.77l226.502,27.75-66.584-120.99Z" fill="#06094c"/><path d="M861.766,1034.43L728.64,893.97l-54.669,17.178-40.228,30.295l38.93,112.227l115.517,36.17-65.065-55.77l125.66,25.33-113.608-88.782l126.589,63.812Z" fill="#b5168a"/><path d="M671.972,1129.37l123.327.7l5.078,176.1-81.83-49.53l80.347,110.63-94.134-69.86l11.984,71.75-105.269-55.88-42.727-12.61-53.389-119.73l42.322-1.48l60.823,83.74l53.462-40.26-58.177-16.96l115.873-26.49-57.69-50.12Z" fill="#fa96b0"/><path d="M896.986,1311.79l-10.987-99.68l32.165-78.61l64.167,237.18-89.752,19.6l81.535,70.55-58.293,110.28-1.816-112.99-105.04,127.08-78.827-45.4-39.909-21.12-74.309-157.56l88.669,80.37l41.607-82.52l21.105,50.48l2.537,100.46l70.867-80.56-1.416-74.11-18.52-148.39l76.217,104.94Z" fill="#fc6e99"/><path d="M428.317,1225.7l87.271,69.43l66.265,172.41-70.185-127.08-73.472,115.31-80.341-204.2l96.713,65.52-26.251-91.39Z" fill="#fd18b0"/><path d="M648.332,1528.64l-81.048-34.93-60.448-83.23-36.056,68.73-55.518.23-30.233,64.35l64.424,21.06l78.846,108.56l105.059,4.85-76.599-80.66l119.788,21.75-28.215-90.71Z" fill="#d7288f"/><path d="M750.678,1601.91l143.971,53.92l23.728,147.67-180.938-29.28-67.286-45.3-22.823-78.77l61.931,22.13l36.585-.36-56.318-77.54l24.731-42.62l36.419,50.15Z" fill="#fd3775"/><path d="M1017.62,1419.27l25.73-70.56l80.15,216.34-153.564,88.46-81.745-52.8l55.58-41.85l55.092-77.48l58.187-7.83-39.43-54.28Z" fill="#fd418a"/><path d="M645.022,1732.66l119.961,83.99-57.001,61.32-153.8,136.62l65.938-164.02l59.813-45.04-92.102.58-17.001-83.16l44.15-6.86l30.042,16.57Z" fill="#fc8790"/><path d="M355.922,1334.6l-62.03-106.83-51.849,8.65-18.403,68.24l84.858,23.26l47.424,6.68Z" fill="#fc8790"/><path d="M503.29,1181.23l-40.925-56.35-140.013,27.07l36.795,50.66l71.859-14.92l72.284-6.46Z" fill="#fc8790"/><path d="M388.967,1011.42l-71.712-98.74L77.7106,951.527L20.4332,1097.02L228.052,1132.6L152.82,980.533l236.147,30.887Z" fill="#b84684"/><path d="M-65.4033,1164.86l-79.6267-54.39-17.406,40.3-5.57,156.94-78.969-231.63-4.917,142.05-83.351-114.76-11.331,119.69l126.694,123.71l178.2481,67.29-13.7998-115.96-9.9716-133.24Z" fill="#13043b"/><path d="M197.495,1273.17l-59.532-132.7-63.2419-36.35-45.0167,133.07l94.6146,130.27l93.814,52.51L91.2292,1245.23l106.2658,27.94Z" fill="#cc0f83"/><path d="M465.845,1489.33l-61.268-155.39-106.536-37.33-17.196,91.32l44.562,119.99l110.666,43.01-29.15-104.4l58.922,42.8Z" fill="#93095e"/><path d="M693.515,1413.84L597.398,1281.5l-116.236-92.4l16.027,80.69l100.352,197.93l56.588,18.16-67.957-93.57l107.343,21.53Z" fill="#f76187"/><path d="M693.515,1413.84L597.398,1281.5l-116.236-92.4l16.027,80.69l100.352,197.93l56.588,18.16-67.957-93.57l107.343,21.53Z" fill="#f76187"/><path d="M1068.79,1051.9l35,95.82-43.52,62.21-33.95-92.93-50.473,64.73-.083-73.84-65.664,1.6-4.05-118.824l51.579,67.574l50.351-104.564l58.35,23.279-62.36,78.855l64.82-3.91Z" fill="#b80065"/><path d="M1070.22,813.414l-16.84-87.379.55-79.303l94.92,83.883l32.87,265.921-48.42-51.729-31.24,97.633l2.78-175.56-54.23,34.714-51.667-28.32-17.957,126.806-93.023-71.495l14.841-20.423l59.29-6.479-38.8-106.212l95.476,18.961-16-99.45l67.45,98.432Z" fill="#ef98b8"/><path d="M508.165,468.877l84.419,21.011l3.421,124.28l60.181,110.874L545.489,698.53l46.055,79.389-44.194,94.489-28.502-164.21-43.226,143.823-69.711-237.513L583.445,674.95l-36.48-99.862-40.728,71.657-67.484-71.613-59.159-59.598l30.612-84.983l98.045,119.36-.086-81.034Z" fill="#fc8790"/><path d="M604.434,367.91l-66.959,53.718-46.144-40.131l59.424-65.367l43.092-84.936l25.426,69.603l66.423-33.636-63.887,94.444-17.375,6.305Z" fill="#f8c2a0"/><path d="M764.181,455.073L714.96,359.835l-46.772-27.482l33.318,91.203-47.357-41.653-7.084,61.409l78.444,87.249l38.672-75.488Z" fill="#0080a1"/><path d="M860.854,567.086l-29.943-81.967-20.906-1.566-7.38-20.204l31.012-6.678l2.884-29.812-21.214,15.544-40.743,35.706l19.248,68.851l32.982,43.6-17.564-71.423l23.965,13.531l27.659,34.418Z" fill="#015486"/><path d="M935.35,532.208l.378-106.7l12.863,35.212l4.85,13.276l33.985,51.735-40.748,21.325l12.241,9.042l5.133-15.347l5.649,23.31l43.449,32.093l3.14,71.429-17.082-46.756l10.402,73.368-66.36-30.834l41.479-37.28-15.028-62.02-10.782-7.963-19.007,56.828-79.943-148.811l75.381,68.093Z" fill="#4403b9"/><path d="M880.914,304.187L856.73,268.508l-19.371,18.797-6.326-17.317-13.626,29.134-29.231-13.581-3.374-9.236-16.941,36.22-14.22-6.607-25.043,53.544l76.448-27.743l10.543,28.862-30.936,66.142L909.17,381.537l-23.7-11.012-21.93-60.033l17.374-6.305Z" fill="#f4057d"/><path d="M749.208,669.055L626.747,463.106l5.74,130.63l116.721,75.319Z" fill="#e5af0f"/><path d="M334.055,539.905l-7.558-69.17l15.818-77-71.648,46.267-25.471-89.474-37.915,124.244l19.189,52.529l68.871,114.911-14.597-154.874l53.311,52.567Z" fill="#f83084"/><path d="M890.696,659.552l98.714,79.893-68.559,2.652-49.807,18.074-15.058,5.465l23.157,97.505-124.607,84.444-71.312-33.613l123.35-66.337L672.975,832.05l-19.822-54.261l34.749-12.61-4.092-92.002L821.457,800.394L769.794,658.972l1.384-91.375l34.832,61.234L920.851,742.097l-30.155-82.545Z" fill="#5591a9"/><path d="M385.331,638.974l-30.873-37.828-34.571,61.577l21.298,58.301-34.081-26.858-2.857,94.524l63.929,6.22l34.161,93.512l110.436,31.183-85.354-118.736-83.207-146.973l66.423,54.346-25.304-69.268Z" fill="#e83b62"/><g id="ewCH2RtGjgl95_to" transform="translate(-6.725023,673.360094)"><path d="M183.753,498.347l-51.315-65.059-27.449,93.642L71.5439,381.512l3.4211,124.28L28.1523,377.645L-7.35716,461.791L71.8373,583.416L234.708,713.247l-18.134-49.642l42.459,40.815L214.75,583.201l-87.748-49.877l56.751-34.977Z" transform="scale(1.905146,1.905146) translate(-125.837908,-545.445999)" fill="#460336"/></g><g id="ewCH2RtGjgl96_to" transform="translate(283.771996,826.517517)"><path d="M347.808,819.953l-81.473-27.311l15.724-52.123-30.695,11.139L127.257,641.755l-7.933,44.72l76.798,55.811-31.5,102.304-18.307-84.229-23.437,118.99l66.243-1.811l105.265,133.74-25.429-116.296l71.182,99.69l108.081-61.45-41.921-14.206-24.541-6.13-90.92-80.106l62.453,2.179-5.483-15.008Z" transform="translate(-283.771996,-826.517517)" fill="#6d0542"/></g><path d="M672.93,851.678l-39.51-39.924-84.253,126.677l24.46,66.959l38.54-144.083l25.304,69.268l34.749-12.61-21.298-58.301l22.008-7.986Z" fill="#ecb5b2"/><path d="M756.941,1034.97l113.736-11.86-6.16,130.38-56.967-107.47-62.243,125.88-28.467-77.92-14.033,63.93-87.048-10.25l14.845-140.72l48.375,85.74l25.925-85.24l52.037,27.53Z" fill="#93095e"/><path d="M560.607,1099.03L510.631,962.223l-52.123,18.915l22.141,60.612-45.084-22.87-96.855,86.8l89.405,110.07l134.853-9.71-121.835-91.11l119.474-15.9Z" fill="#f9587a"/><g id="ewCH2RtGjgl100_to" transform="translate(516.206512,1346.549988)"><path d="M654.021,1354.74l-41.119-112.56l76.492,80.11l78.488,67.62-116.902-3.99l105.223,160.56-103.613-87.92l45.164,89.52L552.136,1372.1l56.301,154.13-85.265-158l53.139,145.47-74.561-123.31-44.871,112.39-68.063-71.41-1.349,50.18-57.988-158.74-19.567,54.17-45.381-231.96l159.979,143.3l105.354-38.23l46.688,81.12l77.469,23.53Z" transform="scale(1.694347,1.694347) translate(-516.206512,-1346.549988)" fill="#201a6c"/></g><path d="M515.586,1616.8l86.738,27.36-56.905-87.55-36.634-87.71-37.568,73.13-48.868-4.5-14.189,68.89l14.188,58.59-51.324-86.63-23.611,77.22l198.24,90.19-30.067-128.99Z" fill="#06094c"/><path d="M1312.91,1179.7l-85.48-165.76-53.82-.08-44.01,15.97l7.21,113.1l95.6,65.99-45-69.32l107.5,59.06-80.72-113.23l98.72,94.27Z" fill="#b5168a"/><path d="M1117.25,1211.48l111.54,36.01-39.43,161.41-61.74-68.47l45.12,123.53-67.8-90.45-7.08,68.6-81.39-80.95-35.557-23.71-18.428-124.07l38.705,10.8l34.16,93.51l58.5-21.23-48.46-32.1l111.58,9.2-39.72-62.08Z" fill="#fa96b0"/><path d="M1275.47,1441.72l14.97-93.69l48.79-62.16-1.17,233.81-86.2-7.94l56.22,87.47-80.38,83.43l26.61-103.14-126.93,85.28-60.05-63.85-30.87-30.64-27.93-164.42l60.23,98.44l58.32-63l6.5,51.9-22.82,91.96l84.34-52.83l17.24-67.71l20.32-140.09l42.81,117.18Z" fill="#fc6e99"/><path d="M872.446,1229.06l61.698,88.09l16.923,175.61-31.808-135.55-95.382,83.64-21.728-208.51l71.229,87.25-.932-90.53Z" fill="#fd18b0"/><path d="M996.015,1567.32l-64.686-54.98-33.95-92.93-49.846,52.08-50.347-15.72-43.475,49.77l53.095,37.61l44.282,121.22l93.955,34.55-49.221-95.24l103.073,54.12-2.88-90.48Z" fill="#d7288f"/><path d="M816.387,1664.54l-22.316-102.39-32.887,59.01-44.449-13.94-17.915,99.98l53.763-1.85l1.775,92.84l75.064,63.63-47.784-184.67l21.509,58.88l43.219-30.72-29.979-40.77Z" fill="#ac0d51"/><path d="M681.181,1583.51l-45.034-28.12.083,73.85-52.667,105.41l58.494-21.23l24.372,106.22l72.833,18.02-2.623-102.34-45.583,44-19.061-125.8l9.186-70.01Z" fill="#070a4f"/><path d="M1357.88,1573.94l40.95-56.7l18.52,219.48L1256.12,1773l-60.85-71.4l60.81-22.07l69.28-54.56l54.66,9.58-22.14-60.61Z" fill="#fd418a"/><path d="M942.011,1751.66l87.669,110.71-66.966,39.34-173.474,79.95l100.733-130.04l65.444-23.75-83.578-25.9l5.391-80.4l41.707,6.43l23.074,23.66Z" fill="#fc8790"/><path d="M779.643,1307.19L750.16,1192.37l-49.132-7.01-33.731,56.69l71.054,45.48l41.292,19.66Z" fill="#fc8790"/><path d="M951.478,1210.19l-22.984-62.92-133.599-15.59l20.665,56.57l68.826,7.06l67.092,14.88Z" fill="#fc8790"/><path d="M384.462,1089.07l-31.63-86.58-24.369,28.46-124.953,8.08l69.584,55.81l111.368-5.77Z" fill="#fb538e"/><path d="M890.372,1023.16L850.096,912.907L623.391,879.463l-88.26,115.71L714.31,1087.05L684.177,927.355l206.195,95.805Z" fill="#b84684"/><path d="M499.973,270.489l2.98,127.024l135.472,36.512-213.127,77.342L298.869,387.925L499.973,270.489Z" fill="#fa96b0"/><path d="M392.201,569.796L278.427,360.695L205.222,591.233l75.019,83.261l36.528-40.06L453.273,670.54l43.475-49.772-104.547-50.972Z" fill="#c996a7"/><g id="ewCH2RtGjgl117_to" transform="translate(305.788498,1082.100525)"><path d="M440.414,1032.16l-58.532-72.248-25.842,31.606-44.281,140.932-13.628-233.017-39.968,127.607-46.812-128.149-40.188,105.459l83.84,148.7l144.644,112.26l16.49-109.28l24.277-123.87Z" transform="scale(1.874916,1.874916) translate(-305.788498,-1082.100525)" fill="#13043b"/></g><path d="M651.485,1205.95l-20.75-137.6-48.203-51.16-74.045,107.94l53.138,145.46l71.856,74.61-71.273-195.11l89.277,55.86Z" fill="#cc0f83"/><path d="M840.534,1479.26l-16.652-158.7-87.175-64.47-38.408,78.01l10.37,121.76l89.495,70.81-.306-103.18l42.676,55.77Z" fill="#93095e"/><path d="M1065.64,1476.02l-53.98-147.77-82.192-117.27-5.655,77.89l41.421,208.55l46.726,32.73-38.172-104.47l91.852,50.34Z" fill="#f76187"/><path d="M1107.5,1153.17l8.93,101.58-58.19,48.87-8.66-98.53-65.563,49.51l19.093-71.35-63.839-15.39l26.942-115.82l32.274,78.58l75.793-88.02l50.32,37.54-80.72,60.08l63.62,12.95Z" fill="#b80065"/><path d="M1170.81,923.177l6.43-88.744l21.13-76.46l69.9,105.511-37.31,265.336-33.33-62.45-55.53,86.24l48.27-168.858-61.39,19.548-42.56-40.689-50.27,117.859-71.286-93.062l19.638-15.898l58.948,9.036-9.89-112.601l87.3,42.944l10.37-100.188l39.58,112.476Z" fill="#ef98b8"/><path d="M717.383,445.391l76.086,42.073-28.968,120.927L793.84,731.012L693.799,676.847l23.87,88.565-67.224,79.869l15.11-165.968-79.1,127.772-5.659-247.403l155.789,104.18-9.305-105.87-57.948,58.709-46.588-86.581-41.667-72.828l51.637-74.191l63.709,140.586l20.96-78.296Z" fill="#fc8790"/><path d="M836.59,372.7l-78.626,34.615-34.151-50.668l74.373-47.81l63.679-70.926l6.486,73.79l72.895-15.355-86.236,74.745-18.42,1.609Z" fill="#f8c2a0"/><path d="M968.26,498.102l-22.813-104.69-38.041-38.611l8.499,96.69-34.927-52.45L858.19,456.53l53.113,104.511l56.957-62.939Z" fill="#0080a1"/><path d="M1032.55,631.238l-7.64-86.899-19.78-6.906-1.89-21.418l31.69,1.549l10.53-28.052-24.53,9.542-48.622,23.979.713,71.47l20.536,50.623l1.581-73.521l19.632,19.252l17.78,40.381Z" fill="#015486"/><path d="M1113.57,616.762l28.07-102.966l3.28,37.329l1.24,14.075l19.39,58.74-44.9,10.086l9.48,11.892l8.94-13.5-.6,23.973l33.64,42.208-15.52,69.804-4.35-49.569-9.01,73.552-56.09-46.902l49.75-25.309l1.58-63.784-8.34-10.473-33.12,49.988-38.57-164.363l55.13,85.219Z" fill="#4403b9"/><path d="M1120.2,382.47l-14.1-40.702-23.59,13.159-1.61-18.359-20.73,24.627-24.71-20.66-.86-9.791-25.77,30.616-12.019-10.05-38.094,45.259l81.043-7.077l2.69,30.599-47.054,55.908L1127.4,464.473l-20.03-16.751-5.59-63.644l18.42-1.608Z" fill="#f4057d"/><path d="M898.231,700.93L833.423,470.408l-28.377,127.66L898.231,700.93Z" fill="#e5af0f"/><path d="M530.761,469.086l10.662-68.763l35.274-70.296-81.221,26.208-1.368-92.996-68.887,110.23l4.895,55.689L466.8,557.92l26.117-153.362l37.844,64.528Z" fill="#f83084"/><path d="M1037.37,728.248l74.6,102.635-66.91-15.124-52.807,4.61-15.963,1.394-2.953,100.156-142.288,49.424-60.154-50.864l136.373-32.257-125-49.518-5.056-57.525l36.84-3.217l19.938-89.923L933.911,846.43L920.733,696.499l25.065-87.904l17.744,68.133l81.518,139.031-7.69-87.511Z" fill="#5591a9"/><path d="M554.564,578.005l-19.998-44.503-49.383,50.561l5.432,61.808-25.944-34.734-27.306,90.566L497.5,724.202l8.714,99.138l98.575,58.609-51.612-136.708-42.206-163.43l50.047,69.63-6.454-73.436Z" fill="#e83b62"/><path d="M396.372,390.171L363.7,314.092l-50.831,83.37l5.457-149.091-28.968,120.928-11.941-135.856-56.15,72.119l44.913,137.91L389.787,610.894l-4.626-52.629l30.413,50.377L404.279,480.13l-71.807-70.813l63.9-19.146Z" fill="#460336"/><g id="ewCH2RtGjgl134_to" transform="translate(388.765991,714.139496)"><path d="M471.322,743.137L399.718,695.74l28.722-46.291-32.541,2.841L304.56,514.117l-19.275,41.149l59.688,73.721-56.993,90.692l4.19-86.081-53.537,108.889l64.455,15.339l66.95,156.336l5.636-118.891l42.869,114.656l120.356-31.475-36.804-24.537-22.113-12.252-67.02-100.83l59.759,18.215-1.399-15.911Z" transform="translate(-388.765991,-714.139496)" fill="#6d0542"/></g><path d="M777.129,857.652l-27.796-48.755L635.055,909.523l6.239,70.988l74.642-129.232l6.454,73.435l36.84-3.216-5.433-61.809l23.332-2.037Z" fill="#ecb5b2"/><path d="M810.681,1056.37l112.939,17.89-39.805,124.34-27.12-118.5-92.81,105.54-7.262-82.62-30.156,58.14-81.42-32.36l50.879-132.092L720.389,1092l47.178-75.65l43.114,40.02Z" fill="#93095e"/><path d="M604.402,1067.6L591.654,922.563l-55.259,4.825l5.648,64.256-37.611-33.716-116.093,58.852l57.775,129.39l132.779,25.4-94.022-119.43l119.531,15.46Z" fill="#f9587a"/><g id="ewCH2RtGjgl138_to" transform="translate(509.57402,1292.955017)"><path d="M628.229,1338.7l-10.488-119.34l53.082,97.12l58.254,85.56-111.881-34.01l59.944,182.23-77.252-111.66l20.38,98.12-94.961-207.54l14.361,163.4-41.332-174.61l13.554,154.22-40-138.34-72.526,96.98-47.203-86.53-14.332,48.12-14.791-168.29-32.967,47.28l16.4-235.76l117.315,179.68l111.693-9.75l24.032,90.4l68.718,42.72Z" transform="scale(1.711215,1) translate(-509.57402,-1292.955017)" fill="#201a6c"/></g><g id="ewCH2RtGjgl139_to" transform="translate(378.541504,1549.984985)"><path d="M426.462,1556.11l76.678,48.81-32.232-99.25-12.61-94.17-55.276,60.94-46.037-16.94-31.595,62.88-1.509,60.25-27.08-96.91-42.858,68.49l168.066,138.26l4.453-132.36Z" transform="scale(3.101494,3.101494) translate(-378.541504,-1549.984985)" fill="#06094c"/></g><path d="M1310.12,1339.59l-39.52-182.16-51.96-13.96-46.67,4.07-22.4,111.1l75.2,88.4-25.46-78.56l88.5,84.78-48.57-130.19l70.88,116.52Z" fill="#b5168a"/><path d="M1112.87,1319.81l98.39,63.56-79.99,145.74-41.86-82.07L1100.92,1578l-42.01-104.86-24.65,64.44-57.6-99.19-28.186-32.07l14.416-124.59l34.586,20.41l8.714,99.14l62.01-5.42-38.47-43.5l105.4,37.66-22.26-70.21Z" fill="#fa96b0"/><path d="M1205.92,1583.02l38.79-86.63l63.26-47.46-61.84,225.55-81.2-29.91l31.59,98.99-99.3,59.85l52.48-92.76-144.75,49.63-41.427-77.16-21.862-37.56l15.724-166.02L990,1590.16l72.69-45.82-7.2,51.82-45.92,82.94l95.18-29.28l34.24-60.96L1195,1458.79l10.92,124.23Z" fill="#fc6e99"/><path d="M871.849,1273.64l36.72,101.01-29.255,173.99l4.476-139.14-113.853,56.19l33.158-207.01l46.145,102.65l22.609-87.69Z" fill="#fd18b0"/><path d="M903.369,1632.25l-48.206-69.79-8.659-98.52-61.673,37.45-44.548-28.18-54.918,36.86l41.519,50.03l11.295,128.51l81.783,57.61-22.813-104.69l85.507,78.86l20.713-88.14Z" fill="#d7288f"/><path d="M595.059,1566.67L558.86,1527.9l-19.096,71.35-78.245,88.23l62.014-5.41-4.042,108.88l65.671,36.2l24.043-99.53-55.456,30.74l14.255-126.42l27.055-65.27Z" fill="#070a4f"/><path d="M803.336,1796.39l55.933,129.54-74.898,20.73-188.325,32.47l131.07-99.62l69.381-6.06-74.006-46.57l26.087-76.28l38.614,16.98l16.144,28.81Z" fill="#fc8790"/><path d="M761.919,1325.18l1.339-118.52-45.637-19.45-47.304,46.06l56.824,62.26l34.778,29.65Z" fill="#fc8790"/><path d="M953.09,1275.8l-5.863-66.7-124.999-49.52l5.271,59.97l64.649,24.57l60.942,31.68Z" fill="#fc8790"/><path d="M436.844,1012.55l-8.068-91.798-30.928,21.2-122.794-24.428l52.719,71.862l109.071,23.164Z" fill="#fb538e"/><path d="M942.632,1079.38L932.358,962.499L722.063,871.711l-115.3,89L755.978,1095.68l12.363-162.027L942.632,1079.38Z" fill="#b84684"/><path d="M760.987,251.652L730.881,375.116L852.255,445.33L626.306,465.059L536.24,313.208l224.747-61.556Z" fill="#fa96b0"/><path d="M579.164,512.959L523.566,281.633L392.989,485.431l50.842,99.777l45.686-29.272l122.477,70.088l54.918-36.861-87.748-76.204Z" fill="#c996a7"/><path d="M505.669,972.003L467.892,887.12l-33.169,23.862-79.369,124.708L402.7,807.096L330.959,920.042L319.018,784.186l-66.203,91.496l42.368,165.268l110.565,145.74l44.305-101.3l55.616-113.387Z" fill="#13043b"/><path d="M664.418,1194.32l15.689-138.27-33.277-61.839-99.551,85.159l13.554,154.21l50.035,90.6-18.18-206.84l71.73,76.98Z" fill="#cc0f83"/><path d="M776.052,1507.09l25.127-157.59-67.464-84.76-57.356,65.44-21.601,120.28l68.056,91.49l26.499-99.74l26.739,64.88Z" fill="#93095e"/><path d="M994.332,1562.03l-13.769-156.67-48.942-134.47-25.688,73.77-14.147,212.14l36.63,43.67-9.736-110.77l75.652,72.33Z" fill="#f76187"/><path d="M994.332,1562.03l-13.769-156.67-48.942-134.47-25.688,73.77-14.147,212.14l36.63,43.67-9.736-110.77l75.652,72.33Z" fill="#f76187"/><path d="M1288.04,1110.17l8.93,101.59-58.19,48.86-8.66-98.53-65.56,49.51l19.09-71.35-63.84-15.39l26.94-115.82l32.28,78.58l75.78-88.013l50.33,37.543-80.72,60.08l63.62,12.94Z" fill="#b80065"/><path d="M1351.35,880.179l6.43-88.743l21.13-76.46l69.9,105.511-37.31,265.343-33.33-62.46-55.53,86.25l48.27-168.865-61.39,19.543-42.56-40.684-50.27,117.856-71.29-93.059l19.64-15.898l58.95,9.036-9.89-112.601l87.3,42.944l10.37-100.188l39.58,112.475Z" fill="#ef98b8"/><path d="M897.922,402.392l76.086,42.073L945.04,565.393l29.339,122.62-100.041-54.164l23.87,88.564-67.224,79.869l15.11-165.967-79.101,127.771-5.658-247.402L917.124,620.863l-9.305-105.87-57.948,58.709-46.588-86.581-41.667-72.827l51.637-74.191l63.709,140.585l20.96-78.296Z" fill="#fc8790"/><path d="M1017.13,329.703l-78.626,34.614-34.151-50.667l74.373-47.81l63.684-70.926l6.48,73.79l72.9-15.355-86.24,74.745-18.42,1.609Z" fill="#f8c2a0"/><path d="M1148.8,455.105l-22.81-104.691-38.04-38.611l8.49,96.69-34.92-52.45-22.79,57.49l53.11,104.511l56.96-62.939Z" fill="#0080a1"/><path d="M1213.09,588.24l-7.64-86.899-19.78-6.906-1.89-21.418l31.69,1.549L1226,446.514l-24.53,9.542-48.62,23.978.71,71.471l20.54,50.623l1.58-73.521l19.63,19.252l17.78,40.381Z" fill="#015486"/><path d="M1294.11,573.765l28.07-102.966l3.28,37.33l1.24,14.075l19.39,58.739-44.9,10.087l9.48,11.891l8.94-13.499-.6,23.972l33.64,42.209-15.52,69.804-4.36-49.569-9,73.552-56.09-46.902l49.74-25.31l1.59-63.784-8.34-10.473-33.12,49.989-38.58-164.363l55.14,85.218Z" fill="#4403b9"/><path d="M1300.74,339.472l-14.1-40.703-23.59,13.16-1.62-18.359-20.72,24.626L1216,297.537l-.86-9.791-25.77,30.616-12.02-10.05-38.09,45.259l81.04-7.077l2.69,30.599-47.06,55.908l132.01-11.526-20.03-16.751-5.59-63.644l18.42-1.608Z" fill="#f4057d"/><path d="M1078.77,657.933l-64.81-230.522-28.375,127.66l93.185,102.862Z" fill="#e5af0f"/><path d="M711.3,426.088l10.662-68.763l35.274-70.296-81.221,26.208-1.368-92.996-68.887,110.23l4.894,55.689l36.685,128.762L673.456,361.56L711.3,426.088Z" fill="#f83084"/><path d="M1217.9,685.25l74.61,102.635-66.91-15.124-52.81,4.611-15.96,1.393-2.95,100.157-142.29,49.423-60.156-50.864l136.376-32.257-125.002-49.518-5.056-57.524l36.839-3.217l19.939-89.923l99.92,158.39-13.18-149.931l25.07-87.904l17.74,68.133l81.52,139.031-7.7-87.511Z" fill="#5591a9"/><path d="M735.103,535.007l-19.997-44.503-49.384,50.561l5.433,61.808-25.945-34.734-27.306,90.566l60.136,22.499l8.713,99.138l98.576,58.609-51.613-136.708-42.206-163.43l50.048,69.63-6.455-73.436Z" fill="#e83b62"/><path d="M576.911,347.173l-32.672-76.08-50.831,83.371l5.457-149.091L469.897,326.3L457.956,190.445l-56.15,72.118l44.913,137.91L570.326,567.895L565.7,515.266l30.413,50.378-11.295-128.513-71.807-70.812l63.9-19.146Z" fill="#460336"/><path d="M651.862,700.14l-71.604-47.397l28.722-46.291-32.541,2.842L485.1,471.121L465.825,512.27l59.688,73.721-56.993,90.691l4.19-86.081-53.537,108.89l64.455,15.338l66.95,156.336l5.636-118.89L599.083,866.93l120.356-31.475-36.804-24.536-22.113-12.253-67.02-100.83l59.759,18.215-1.399-15.911Z" fill="#6d0542"/><path d="M957.668,814.656L929.872,765.9L815.594,866.527l6.239,70.987l74.641-129.232l6.455,73.436l36.839-3.217-5.432-61.808l23.332-2.037Z" fill="#ecb5b2"/><path d="M991.22,1013.37l112.94,17.89-39.81,124.34-27.12-118.49-92.807,105.53-7.261-82.61-30.156,58.13-81.42-32.36l50.879-132.09l24.463,95.3l47.177-75.655l43.115,40.015Z" fill="#93095e"/><path d="M784.941,1024.6L772.193,879.566l-55.259,4.825l5.648,64.256-37.611-33.716-116.093,58.853l57.775,129.386l132.78,25.41-94.023-119.44l119.531,15.46Z" fill="#f9587a"/><path d="M808.768,1295.7L798.28,1176.37l53.082,97.11l58.254,85.56-111.881-34.01l59.945,182.23-77.253-111.65l20.38,98.12-94.961-207.54l14.361,163.39-41.332-174.61l13.555,154.22-40.001-138.34-72.526,96.98L532.7,1301.3l-14.332,48.12-14.791-168.29-32.967,47.28l16.4-235.763L604.325,1172.34l111.693-9.76l24.032,90.4l68.718,42.72Z" fill="#201a6c"/><path d="M607.002,1513.11l76.678,48.81-32.232-99.24-12.61-94.18-55.276,60.95-46.037-16.95-31.595,62.88-1.51,60.26-27.079-96.92-42.858,68.49l168.065,138.26l4.454-132.36Z" fill="#06094c"/><path d="M1490.66,1296.6l-39.52-182.17-51.96-13.96-46.67,4.07-22.4,111.11l75.2,88.4-25.46-78.56l88.5,84.77-48.57-130.19l70.88,116.53Z" fill="#b5168a"/><g id="ewCH2RtGjgl178_to" transform="translate(1550.425094,1380.57455)"><path d="M1293.41,1276.82l98.39,63.55-80,145.74-41.86-82.06l11.52,130.96-42.01-104.87-24.66,64.44-57.59-99.19-28.19-32.07l14.42-124.59l34.58,20.41l8.72,99.14l62.01-5.41-38.47-43.51l105.4,37.66-22.26-70.2Z" transform="scale(1.758705,1.758705) translate(-1260.405029,-1386.869995)" fill="#fa96b0"/></g><g id="ewCH2RtGjgl179_to" transform="translate(1358.760169,1454.03673)"><path d="M1386.46,1540.02l38.79-86.63l63.26-47.46-61.84,225.55-81.21-29.91l31.6,98.99-99.3,59.85l52.48-92.76-144.75,49.63-41.43-77.16-21.86-37.56l15.72-166.02l32.62,110.62l72.69-45.81-7.2,51.81-45.92,82.94l95.18-29.28l34.24-60.95l56.01-130.08l10.92,124.23Z" transform="scale(2.422332,2.422332) translate(-1305.35498,-1583.170044)" fill="#fc6e99"/></g><path d="M1052.39,1230.65l36.72,101.01-29.26,173.98l4.48-139.14-113.852,56.19l33.157-207.01l46.145,102.66l22.61-87.69Z" fill="#fd18b0"/><g id="ewCH2RtGjgl181_to" transform="translate(108.215612,1612.934151)"><path d="M1083.91,1589.26l-48.21-69.79-8.66-98.53-61.67,37.45-44.549-28.18-54.918,36.87l41.519,50.02l11.295,128.51l81.783,57.61-22.813-104.69l85.503,78.87l20.72-88.14Z" transform="scale(2.5283,2.5283) translate(-974.906525,-1562.079956)" fill="#d7288f"/></g><path d="M885.155,1636.83l5.032-104.66-47.088,48.51-39.314-24.93-43.27,91.96l52.414,12.07-22.394,90.14l55.981,80.83l1.8-190.71l5.486,62.42l49.724-18.52-18.371-47.11Z" fill="#ac0d51"/><path d="M775.598,1523.68l-36.199-38.77-19.096,71.35-78.245,88.23l62.013-5.42-4.041,108.89l65.671,36.2l24.043-99.54-55.456,30.75l14.254-126.43l27.056-65.26Z" fill="#070a4f"/><path d="M983.874,1753.39l55.936,129.55-74.901,20.72-188.325,32.48l131.071-99.63l69.381-6.06-74.007-46.57l26.087-76.28l38.615,16.98l16.143,28.81Z" fill="#fc8790"/><path d="M942.458,1282.18l1.338-118.52-45.637-19.45-47.304,46.07l56.824,62.25l34.779,29.65Z" fill="#fc8790"/><path d="M1133.63,1232.8l-5.86-66.7-125-49.52l5.27,59.97l64.65,24.58l60.94,31.67Z" fill="#fc8790"/><path d="M617.383,969.548l-8.068-91.794-30.928,21.2-122.794-24.428l52.719,71.863l109.071,23.159Z" fill="#fb538e"/><path d="M1123.17,1036.39L1112.9,919.5L902.601,828.713l-115.299,89L936.517,1052.68L948.88,890.655l174.29,145.735Z" fill="#b84684"/><path d="M941.527,208.654L911.42,332.118l121.37,70.215-225.945,19.728-90.066-151.85l224.748-61.557Z" fill="#fa96b0"/><path d="M759.703,469.961L704.105,238.635L573.528,442.433L624.37,542.21l45.686-29.272l122.476,70.088l54.919-36.861-87.748-76.204Z" fill="#c996a7"/><path d="M686.209,929.006l-37.777-84.883-33.169,23.862-79.369,124.712L583.24,764.099L511.499,877.045L499.558,741.189l-66.203,91.496l42.368,165.266L586.288,1143.69l44.305-101.3l55.616-113.384Z" fill="#13043b"/><path d="M844.958,1151.33l15.689-138.27-33.277-61.845-99.551,85.155l13.554,154.22l50.035,90.59-18.18-206.84l71.73,76.99Z" fill="#cc0f83"/><path d="M956.591,1464.09l25.127-157.59-67.464-84.76-57.356,65.44-21.6,120.29l68.055,91.49l26.499-99.75l26.739,64.88Z" fill="#93095e"/><path d="M1174.87,1519.03l-13.77-156.66-48.94-134.48-25.69,73.78-14.14,212.13l36.63,43.67-9.74-110.77l75.65,72.33Z" fill="#f76187"/><path d="M1174.87,1519.03l-13.77-156.66-48.94-134.48-25.69,73.78-14.14,212.13l36.63,43.67-9.74-110.77l75.65,72.33Z" fill="#f76187"/><path d="M1230.18,437.601l35,95.821-43.52,62.21-33.95-92.934-50.48,64.733-.08-73.845-65.66,1.601-4.05-118.821l51.58,67.578l50.35-104.568l58.35,23.279-62.37,78.856l64.83-3.91Z" fill="#b80065"/><path d="M1231.6,199.114l-16.83-87.379.55-79.3028l94.92,83.8828l32.86,265.922-48.41-51.729-31.24,97.632l2.77-175.559L1212,287.295l-51.67-28.321-17.96,126.808-93.02-71.497l14.84-20.422l59.29-6.48-38.8-106.211l95.48,18.96-16-99.45l67.44,98.432Z" fill="#ef98b8"/><g id="ewCH2RtGjgl198_to" transform="translate(867.549508,307.558704)"><path d="M669.553,-145.423l84.419,21.011l3.421,124.280537L817.573,110.742L706.876,84.2304L752.931,163.62l-44.194,94.488L680.235,93.8983L637.009,237.721L567.298,0.208241L744.832,60.6498l-36.48-99.8617-40.727,71.6568-67.484-71.6128-59.16-59.5975l30.612-84.9836l98.045,119.3606-.085-81.0346Z" transform="translate(-679.277008,-37.179504)" fill="#fc8790"/></g><path d="M1096.74,-82.092l.38-106.7l12.86,35.212l4.85,13.276l33.98,51.7353-40.74,21.3249l12.24,9.0416l5.13-15.3467l5.65,23.3097l43.45,32.0932l3.14,71.429L1160.6,6.52698L1171,79.895l-66.36-30.8335l41.48-37.2803-15.03-62.0204-10.78-7.963-19.01,56.82825-79.94-148.81105l75.38,68.093Z" fill="#4403b9"/><path d="M910.595,54.7555L788.134,-151.193l5.741,130.6293l116.72,75.3192Z" fill="#e5af0f"/><path d="M495.442,-74.3942l-7.558-69.1708l15.818-77-71.648,46.268-25.47-89.475-37.916,124.245l19.189,52.528L456.728,27.9123L442.131,-126.961l53.311,52.5668Z" fill="#f83084"/><path d="M1052.08,45.2516l98.72,79.8924-68.56,2.652-49.81,18.075-15.06,5.464l23.16,97.506-124.606,84.444-71.313-33.613l123.35-66.337-133.599-15.586-19.821-54.26l34.749-12.61-4.093-92.0024L982.844,186.094L931.182,44.671l1.384-91.3747l34.832,61.2343L1082.24,127.796l-30.16-82.5444Z" fill="#5591a9"/><g id="ewCH2RtGjgl203_to" transform="translate(894.360465,135.090003)"><path d="M546.719,24.6741l-30.873-37.8282-34.571,61.5774l21.297,58.3007-34.08-26.8577-2.858,94.5247l63.929,6.219l34.161,93.512L674.16,305.305L588.806,186.569L505.599,39.5962l66.424,54.3461-25.304-69.2682Z" transform="scale(1.09841,1) translate(-569.896988,-146.075453)" fill="#e83b62"/></g><g id="ewCH2RtGjgl204_to" transform="translate(430.011006,299.703205)"><path d="M345.14,-115.953l-51.315-65.058-27.449,93.6417-33.445-145.4187l3.421,124.28-46.812-128.146-35.51,84.146l79.195,121.6246L396.096,98.9476L377.961,49.3054L420.42,90.1205L376.138,-31.0989l-87.749-49.8764l56.751-34.9777Z" transform="scale(2.430272,1) translate(-287.225006,68.853195)" fill="#460336"/></g><g id="ewCH2RtGjgl205_to" transform="translate(682.593997,162.854354)"><path d="M509.195,205.653l-81.472-27.311l15.723-52.122-30.695,11.139L288.644,27.4557L280.711,72.175l76.798,55.811-31.5,102.304-18.307-84.229-23.436,118.99l66.242-1.811L455.773,396.978L430.345,280.684l71.181,99.691l108.081-61.45-41.921-14.206-24.541-6.131-90.92-80.106l62.453,2.179-5.483-15.008Z" transform="translate(-445.158997,-212.216854)" fill="#6d0542"/></g><path d="M834.317,237.378l-39.51-39.924-84.253,126.677l24.461,66.96l38.539-144.084l25.304,69.268l34.749-12.61-21.298-58.301l22.008-7.986Z" fill="#ecb5b2"/><path d="M918.329,420.67l113.731-11.855-6.16,130.372-56.963-107.464-62.242,125.881-28.467-77.926-14.034,63.931-87.047-10.252l14.844-140.715l48.375,85.739l25.925-85.244l52.038,27.533Z" fill="#93095e"/><path d="M721.994,484.728L672.019,347.923l-52.124,18.916l22.141,60.609-45.084-22.864-96.855,86.795l89.406,110.074l134.852-9.712L602.52,500.627l119.474-15.899Z" fill="#f9587a"/><path d="M815.409,740.444L774.29,627.883l76.492,80.111l78.487,67.62-116.902-3.994L917.591,932.178L813.977,844.257l45.164,89.519L713.523,757.805l56.302,154.122L684.56,753.933l53.138,145.463L663.137,776.09L618.266,888.476l-68.063-71.403-1.348,50.175-57.989-158.74-19.567,54.171-45.38-231.959L585.897,674.022l105.355-38.233L737.94,716.91l77.469,23.534Z" fill="#201a6c"/><path d="M676.973,1002.5l86.738,27.36-56.905-87.548-36.634-87.711-37.568,73.125-48.868-4.494-14.189,68.891l14.189,58.597-51.325-86.635L508.8,1041.3l198.24,90.19-30.067-128.99Z" fill="#06094c"/><path d="M1474.3,565.404l-85.48-165.762-53.82-.083-44.01,15.973l7.2,113.1l95.6,65.985-44.99-69.312l107.49,59.053-80.71-113.227l98.72,94.273Z" fill="#b5168a"/><path d="M1278.63,597.184l111.55,36.011-39.43,161.403-61.74-68.466l45.12,123.528-67.81-90.454-7.08,68.599-81.39-80.949-35.55-23.708-18.43-124.064l38.71,10.796l34.16,93.512l58.5-21.228-48.46-32.1l111.58,9.192-39.73-62.072Z" fill="#fa96b0"/><path d="M1436.86,827.417l14.97-93.69l48.78-62.16-1.16,233.815-86.21-7.942l56.22,87.467-80.37,83.433l26.6-103.145-126.92,85.285-60.06-63.848-30.87-30.638-27.92-164.42l60.23,98.435l58.32-63.004l6.5,51.904-22.82,91.961l84.34-52.833l17.24-67.711l20.32-140.088l42.81,117.179Z" fill="#fc6e99"/><path d="M1033.83,614.76l61.7,88.095l16.92,175.604-31.8-135.553-95.386,83.646-21.728-208.509l71.234,87.251-.94-90.534Z" fill="#fd18b0"/><path d="M1157.4,953.02l-64.68-54.977-33.95-92.935-49.85,52.084-50.347-15.724-43.475,49.772l53.095,37.609l44.287,121.221l93.95,34.55-49.22-95.241l103.07,54.121-2.88-90.48Z" fill="#d7288f"/><path d="M977.774,1050.24L955.458,947.854l-32.887,59.006-44.449-13.944-17.915,99.984l53.763-1.85l1.775,92.84l75.064,63.63-47.784-184.67l21.509,58.88l43.216-30.72-29.976-40.77Z" fill="#ac0d51"/><path d="M842.568,969.208l-45.034-28.113.083,73.845-52.667,105.41l58.494-21.23l24.372,106.22l72.833,18.02-2.623-102.34-45.583,44-19.061-125.79l9.186-70.022Z" fill="#070a4f"/><path d="M1231.79,1048.93l116.94,90.28-15.42,140.92-156.59-78.5-49.62-60.44-.98-78.1l50.56,37.87l33.23,10.17-31.63-86.58l33.06-31.612l20.45,55.992Z" fill="#fd3775"/><path d="M1519.27,959.643l40.94-56.699l18.52,219.476-161.22,36.28-60.85-71.4l60.81-22.07l69.28-54.56l54.66,9.58-22.14-60.607Z" fill="#fd418a"/><path d="M1103.4,1137.37l87.67,110.7-66.97,39.34-173.474,79.95l100.734-130.04l65.44-23.75-83.57-25.9l5.39-80.4l41.7,6.43l23.08,23.67Z" fill="#fc8790"/><path d="M941.03,692.894L911.547,578.072l-49.132-7.013-33.731,56.696l71.054,45.474l41.292,19.665Z" fill="#fc8790"/><path d="M1112.87,595.887l-22.99-62.919-133.599-15.586l20.665,56.569l68.824,7.058l67.1,14.878Z" fill="#fc8790"/><path d="M545.85,474.775l-31.63-86.586-24.369,28.456-124.954,8.081l69.584,55.815l111.369-5.766Z" fill="#fb538e"/><path d="M1051.76,408.86l-40.28-110.252-226.702-33.445-88.26,115.71l179.18,91.878-30.133-159.695L1051.76,408.86Z" fill="#b84684"/><path d="M553.589,-44.5024L439.815,-253.604L366.61,-23.0655l75.018,83.2612l36.528-40.06L614.66,56.2415L658.135,6.46928L553.589,-44.5024Z" fill="#c996a7"/><path d="M601.801,417.859l-58.532-72.246-25.842,31.606-44.28,140.937-13.629-233.023-39.967,127.605-46.813-128.147-40.187,105.456L416.39,538.752L561.034,651.009l16.49-109.278l24.277-123.872Z" fill="#13043b"/><path d="M812.873,591.652L792.122,454.048l-48.203-51.152-74.045,107.936l53.139,145.464l71.855,74.602-71.273-195.105l89.278,55.859Z" fill="#cc0f83"/><path d="M1001.92,864.963L985.269,706.259l-87.175-64.467-38.408,78.007l10.371,121.758l89.494,70.816-.305-103.182l42.674,55.772Z" fill="#93095e"/><path d="M1227.03,861.722L1173.05,713.95l-82.2-117.268-5.65,77.888l41.42,208.554l46.72,32.731-38.17-104.48l91.86,50.347Z" fill="#f76187"/><path d="M865.231,1275.44l25.515,69.85-110.07-39.16-99.477-15.55-107.362-110.75l110.98-55.31l65.833,25.79-86.873,31.53L772.03,1282.46l6.11-125.12l148.481,95.82-61.39,22.28Z" fill="#b92281"/><path d="M1268.89,538.869l8.93,101.586-58.19,48.863-8.66-98.526L1145.4,640.3l19.1-71.35-63.84-15.392L1127.6,437.74l32.27,78.581l75.79-88.016l50.32,37.539-80.72,60.08l63.63,12.945Z" fill="#b80065"/><g id="ewCH2RtGjgl232_to" transform="translate(1442.105017,263.239015)"><path d="M1332.2,308.877l6.43-88.744l21.12-76.46l69.91,105.512-37.31,265.338-33.33-62.456-55.53,86.247l48.27-168.862-61.39,19.543-42.56-40.684-50.27,117.855-71.29-93.058l19.64-15.897l58.95,9.035-9.9-112.601l87.3,42.944l10.38-100.188l39.58,112.476Z" transform="translate(-1277.955017,-340.993515)" fill="#ef98b8"/></g><g id="ewCH2RtGjgl233_to" transform="translate(71.040348,252.263991)"><path d="M878.77,-168.909l76.086,42.073L925.888,-5.90835L955.226,116.712L855.185,62.5475l23.871,88.5645-67.225,79.869L826.942,65.0135L747.841,192.785l-5.658-247.4026L897.972,49.5617l-9.305-105.8695L830.719,2.40115L784.131,-84.1799l-41.667-72.8281l51.637-74.191L857.81,-90.6131l20.96-78.2959Z" transform="translate(-848.704498,0.109009)" fill="#fc8790"/></g><path d="M1193.94,16.9379l-7.64-86.8987-19.79-6.9056-1.88-21.4187l31.69,1.5497l10.53-28.0526-24.53,9.542-48.63,23.9787.72,71.4702l20.53,50.6229l1.58-73.5204l19.64,19.252l17.78,40.3805Z" fill="#015486"/><path d="M1274.95,2.46169l28.08-102.96669l3.28,37.3299l1.23,14.0752l19.4,58.73928-44.9,10.08672l9.48,11.8913l8.94-13.4996-.6,23.9725l33.64,42.2085-15.52,69.8042-4.36-49.569-9,73.552-56.09-46.902l49.74-25.31l1.59-63.7837-8.34-10.4729-33.12,49.9887-38.58-164.363l55.13,85.21859Z" fill="#4403b9"/><path d="M1059.62,86.6302L994.81,-143.892L966.433,-16.2321L1059.62,86.6302Z" fill="#e5af0f"/><g id="ewCH2RtGjgl237_to" transform="translate(1157.512496,308.263004)"><path d="M1198.75,113.948l74.61,102.635-66.92-15.124-52.8,4.61-15.96,1.394-2.96,100.157-142.285,49.423-60.154-50.864l136.369-32.257-124.995-49.518-5.056-57.525l36.839-3.216l19.939-89.9233L1095.3,232.13L1082.12,82.1989l25.06-87.90406L1124.93,62.428l81.51,139.031-7.69-87.511Z" transform="translate(-1102.820496,-175.668924)" fill="#5591a9"/></g><path d="M715.951,-36.2951l-19.998-44.5034-49.383,50.5613l5.432,61.8082-25.945-34.73422L598.751,87.4032l60.136,22.4988L667.6,209.04l98.576,58.609-51.613-136.708-42.206-163.4299l50.048,69.6293-6.454-73.4355Z" fill="#e83b62"/><path d="M557.759,-224.129l-32.672-76.079-50.831,83.37l5.457-149.091-28.968,120.928-11.941-135.856-56.15,72.118l44.912,137.911L551.173,-3.40658l-4.625-52.62882l30.413,50.37722L565.666,-134.17l-71.807-70.813l63.9-19.146Z" fill="#460336"/><g id="ewCH2RtGjgl240_to" transform="translate(809.399993,65.243493)"><path d="M632.709,128.837L561.104,81.4399l28.723-46.2907-32.542,2.8414-91.338-138.1736-19.275,41.1496L506.36,14.6874L449.367,105.379l4.189-86.0812L400.019,128.188l64.456,15.338l66.949,156.336l5.637-118.891L579.93,295.627l120.355-31.475-36.804-24.536-22.112-12.253-67.021-100.83l59.759,18.215-1.398-15.911Z" transform="translate(-550.151993,-99.839493)" fill="#6d0542"/></g><path d="M938.515,243.352l-27.796-48.755L796.442,295.224l6.239,70.987l74.641-129.232l6.455,73.435l36.839-3.216-5.432-61.808l23.331-2.038Z" fill="#ecb5b2"/><path d="M972.068,442.071L1085.01,459.96L1045.2,584.3l-27.12-118.497-92.809,105.536-7.261-82.615-30.157,58.132-81.419-32.357l50.879-132.091l24.462,95.296l47.178-75.651l43.115,40.018Z" fill="#93095e"/><path d="M765.789,453.298L753.041,308.263l-55.259,4.825l5.648,64.256-37.611-33.716-116.093,58.853l57.775,129.387L740.28,557.274L646.257,437.835l119.532,15.463Z" fill="#f9587a"/><g id="ewCH2RtGjgl244_to" transform="translate(330.051579,695.959956)"><path d="M789.616,724.397L779.127,605.065l53.083,97.114l58.254,85.562-111.882-34.014l59.945,182.23-77.252-111.653l20.379,98.119-94.96-207.539l14.361,163.394-41.332-174.606l13.554,154.215-40.001-138.339-72.526,96.981-47.202-86.527-14.332,48.117L484.425,609.83l-32.967,47.278l16.4-235.763L585.173,601.033l111.693-9.752l24.032,90.4l68.718,42.716Z" transform="scale(1.473196,1.473196) translate(-670.960999,-678.65097)" fill="#201a6c"/></g><path d="M587.849,941.812l76.677,48.804-32.232-99.243-12.609-94.172-55.277,60.942-46.036-16.947-31.595,62.883-1.51,60.256-27.079-96.918-42.858,68.492L583.395,1074.17l4.454-132.358Z" fill="#06094c"/><path d="M1471.51,725.292l-39.53-182.164-51.96-13.962-46.66,4.074-22.41,111.105l75.21,88.399-25.46-78.559l88.5,84.772-48.57-130.192l70.88,116.527Z" fill="#b5168a"/><path d="M1274.26,705.514l98.39,63.558-80,145.733-41.86-82.061l11.51,130.96-42-104.864-24.66,64.435-57.59-99.186-28.19-32.072l14.42-124.591l34.58,20.413l8.72,99.138l62.01-5.414-38.47-43.507l105.39,37.663-22.25-70.205Z" fill="#fa96b0"/><path d="M1367.31,968.721l38.78-86.635l63.27-47.457-61.84,225.551-81.21-29.91l31.59,98.99-99.3,59.85l52.48-92.76-144.74,49.63-41.43-77.16-21.86-37.56l15.72-166.02l32.62,110.618l72.69-45.814-7.2,51.812-45.92,82.944l95.18-29.28l34.24-60.955l56.01-130.072l10.92,124.228Z" fill="#fc6e99"/><path d="M1033.24,659.343l36.72,101.009-29.26,173.986l4.48-139.139-113.855,56.19L964.482,644.38l46.148,102.653l22.61-87.69Z" fill="#fd18b0"/><path d="M1064.76,1017.95l-48.21-69.786-8.66-98.526-61.673,37.451-44.548-28.177-54.918,36.861l41.519,50.025l11.295,128.512l81.783,57.61-22.813-104.69l85.505,78.86l20.72-88.14Z" fill="#d7288f"/><path d="M866.002,1065.52l5.032-104.65-47.089,48.51-39.313-24.933-43.27,91.963l52.414,12.07-22.394,90.14l55.981,80.83l1.8-190.71l5.486,62.42l49.724-18.52-18.371-47.12Z" fill="#ac0d51"/><path d="M756.446,952.374l-36.199-38.772-19.096,71.349-78.245,88.229l62.013-5.41-4.041,108.88l65.671,36.2l24.043-99.53-55.456,30.74l14.255-126.42l27.055-65.266Z" fill="#070a4f"/><path d="M1111.71,1129.79l89.51,117.36-51.5,132.15-130.86-116.23-32.24-71.18l19.33-75.69l39.01,49.63l29.46,18.39-8.07-91.79l40.14-22l5.22,59.36Z" fill="#fd3775"/><path d="M1412.57,1117.7l54.28-44.21-39.11,216.78-165.15-6.54-40.23-84.67l64.47-5.63l81.08-34.83l50.31,23.36-5.65-64.26Z" fill="#fd418a"/><path d="M964.722,1182.09l55.928,129.54-74.893,20.73-188.325,32.47l131.071-99.62l69.381-6.06-74.007-46.57l26.087-76.28l38.614,16.98l16.144,28.81Z" fill="#fc8790"/><path d="M923.306,710.876l1.338-118.516-45.637-19.448-47.304,46.063l56.824,62.254l34.779,29.647Z" fill="#fc8790"/><path d="M1114.48,661.501l-5.87-66.704-124.996-49.518l5.271,59.972l64.645,24.572l60.95,31.678Z" fill="#fc8790"/><path d="M598.231,398.245l-8.068-91.794-30.928,21.2-122.794-24.428l52.719,71.863l109.071,23.159Z" fill="#fb538e"/><path d="M1104.02,465.083l-10.28-116.885-210.291-90.787-115.299,89L917.365,481.38l12.363-162.027l174.292,145.73Z" fill="#b84684"/><path d="M740.551,-101.342l-55.599-231.325-130.576,203.798l50.842,99.7763l45.686-29.272L773.38,11.7238l54.919-36.8614-87.748-76.2044Z" fill="#c996a7"/><g id="ewCH2RtGjgl261_to" transform="translate(181.031002,484.126707)"><path d="M667.056,357.704L629.279,272.82L596.11,296.682L516.741,421.394l47.346-228.598-71.742,112.946-11.94-135.855-66.203,91.496l42.367,165.265L567.135,572.392l44.304-101.3l55.617-113.388Z" transform="scale(2.023405,2.023405) translate(-540.629013,-371.139511)" fill="#13043b"/></g><path d="M825.805,580.023l15.689-138.268-33.278-61.844-99.55,85.158L722.22,619.284l50.035,90.597-18.18-206.844l71.73,76.986Z" fill="#cc0f83"/><path d="M937.438,892.789l25.127-157.592-67.463-84.759-57.356,65.441-21.601,120.284l68.056,91.49L910.7,827.908l26.738,64.881Z" fill="#93095e"/><path d="M1155.72,947.727l-13.77-156.662-48.94-134.475-25.69,73.775-14.15,212.133l36.63,43.668-9.73-110.765l75.65,72.326Z" fill="#f76187"/><path d="M1155.72,947.727l-13.77-156.662-48.94-134.475-25.69,73.775-14.15,212.133l36.63,43.668-9.73-110.765l75.65,72.326Z" fill="#f76187"/><path d="M698.815,1254.02l6.508,74.05-96.151-66.22-92.05-40.68-74.944-134.67l121.561-24.8l56.891,41.9-92.099,8.04l78.436,125.12l38.393-119.29l118.538,130.87-65.083,5.68Z" fill="#b92281"/><g id="ewCH2RtGjgl267_to" transform="translate(1373.859985,515.813995)"><path d="M1449.43,495.871l8.93,101.586-58.2,48.864-8.66-98.526-65.56,49.507l19.1-71.35-63.84-15.392l26.94-115.817l32.27,78.581l75.79-88.017l50.32,37.539-80.72,60.081l63.63,12.944Z" transform="translate(-1373.859985,-515.813995)" fill="#b80065"/></g><g id="ewCH2RtGjgl268_to" transform="translate(1236.714995,505.583498)"><path d="M1512.74,265.88l6.43-88.744l21.12-76.46l69.91,105.512-37.31,265.337-33.33-62.455-55.53,86.247l48.26-168.862-61.39,19.543-42.55-40.684-50.27,117.855-71.29-93.058l19.64-15.897l58.95,9.035-9.9-112.601l87.3,42.944l10.38-100.188l39.58,112.476Z" transform="translate(-1458.494995,-297.996498)" fill="#ef98b8"/></g><g id="ewCH2RtGjgl269_to" transform="translate(1013.39593,293.231005)"><path d="M1059.31,-211.907l76.09,42.073-28.97,120.9276l29.34,122.6201-100.05-54.1643l23.88,88.5646-67.229,79.869L1007.48,22.0155L928.381,149.787l-5.659-247.4027L1078.51,6.56369l-9.3-105.86949-57.95,58.7089-46.59-86.5811-41.667-72.828l51.638-74.191l63.709,140.586l20.96-78.296Z" transform="scale(2.140991,1) translate(-1029.246002,43.106995)" fill="#fc8790"/></g><path d="M1455.49,-40.5339L1483.56,-143.5l3.29,37.329l1.23,14.0755l19.4,58.7393-44.9,10.0867l9.47,11.8913l8.95-13.4996-.6,23.972506L1514.04,41.3032l-15.52,69.8038-4.36-49.5686-9,73.5516-56.09-46.9014l49.74-25.31l1.59-63.783894-8.35-10.472906-33.11,49.9887-38.58-164.3625l55.13,85.2181Z" fill="#4403b9"/><path d="M1240.16,43.6327l-64.81-230.5217-28.38,127.6593l93.19,102.8624Z" fill="#e5af0f"/><g id="ewCH2RtGjgl272_to" transform="translate(1509.769985,261.268854)"><path d="M1379.29,70.9507L1453.9,173.585l-66.92-15.124-52.8,4.611-15.96,1.394-2.96,100.156-142.28,49.423-60.16-50.863l136.37-32.257-125-49.519-5.05-57.524l36.84-3.217l19.94-89.9229l99.92,158.3899-13.18-149.9306l25.06-87.9041l17.75,68.1332l81.51,139.0305-7.69-87.5103Z" transform="translate(-1283.359985,-132.671154)" fill="#5591a9"/></g><g id="ewCH2RtGjgl273_to" transform="translate(863.003021,283.697002)"><path d="M896.49,-79.2932l-19.998-44.5038-49.383,50.5617l5.433,61.8082-25.945-34.7341-27.306,90.5664l60.135,22.499l8.714,99.1378l98.575,58.609L895.103,87.9425L852.897,-75.4869l50.048,69.62924-6.455-73.43554Z" transform="translate(-863.003021,-50.427002)" fill="#e83b62"/></g><g id="ewCH2RtGjgl274_to" transform="translate(305.169017,195.817499)"><path d="M813.249,85.8401L741.644,38.4428l28.723-46.29063-32.542,2.84131L646.487,-143.18l-19.275,41.15L686.9,-28.3097L629.907,62.3821l4.189-86.0813L580.559,85.1906l64.456,15.3384l66.949,156.336l5.637-118.891L760.47,252.63l120.355-31.475-36.804-24.537-22.112-12.252L754.888,83.5359l59.759,18.2151-1.398-15.9109Z" transform="translate(-730.692017,-56.842499)" fill="#6d0542"/></g><g id="ewCH2RtGjgl275_to" transform="translate(1048.015533,237.407501)"><path d="M1119.05,200.356L1091.26,151.6L976.981,252.227l6.239,70.988l74.64-129.233l6.46,73.436l36.84-3.217-5.44-61.808l23.33-2.037Z" transform="scale(2.013874,2.013874) translate(-1048.015533,-237.407501)" fill="#ecb5b2"/></g><path d="M1152.61,399.073l112.94,17.889-39.81,124.34-27.12-118.497-92.81,105.536-7.26-82.615-30.16,58.132-81.417-32.357L1037.85,339.41l24.46,95.296l47.18-75.651l43.12,40.018Z" fill="#93095e"/><g id="ewCH2RtGjgl277_to" transform="translate(609.205018,472.893632)"><path d="M946.328,410.301L933.58,265.266l-55.259,4.825l5.648,64.256-37.611-33.716-116.093,58.853L788.04,488.871l132.779,25.406-94.023-119.439l119.532,15.463Z" transform="scale(1.941277,1.941277) translate(-838.296509,-389.771484)" fill="#f9587a"/></g><g id="ewCH2RtGjgl278_to" transform="translate(1166.310007,629.249446)"><path d="M970.155,681.399L959.666,562.067l53.084,97.114L1071,744.743L959.121,710.729l59.949,182.23-77.256-111.653l20.379,98.119-94.96-207.539L881.594,835.28L840.262,660.674l13.554,154.215L813.815,676.55l-72.526,96.981-47.202-86.527-14.332,48.117-14.791-168.289-32.967,47.278l16.4-235.763L765.712,558.035l111.693-9.752l24.032,90.4l68.718,42.716Z" transform="scale(1.547012,1.547012) translate(-851.498505,-635.652985)" fill="#201a6c"/></g><path d="M768.389,898.816l76.677,48.804-32.232-99.243-12.609-94.173-55.277,60.943L698.912,798.2l-31.595,62.883-1.51,60.256-27.079-96.918-42.858,68.491L763.935,1031.17l4.454-132.354Z" fill="#06094c"/><path d="M1652.05,682.295l-39.53-182.163-51.96-13.963-46.66,4.074-22.41,111.105l75.21,88.399-25.47-78.559l88.51,84.772-48.57-130.191l70.88,116.526Z" fill="#b5168a"/><g id="ewCH2RtGjgl281_to" transform="translate(1614.706152,760.92918)"><path d="M1454.8,662.517l98.39,63.558-80,145.733-41.86-82.06l11.51,130.96-42.01-104.865-24.65,64.436-57.59-99.187-28.19-32.072l14.42-124.59l34.58,20.413l8.72,99.138l62.01-5.415-38.47-43.507l105.39,37.664-22.25-70.206Z" transform="scale(2.09655,2.09655) translate(-1421.794983,-772.569)" fill="#fa96b0"/></g><path d="M1547.84,925.724l38.79-86.636l63.27-47.457-61.84,225.549-81.21-29.911l31.59,98.991-99.3,59.85l52.48-92.76-144.74,49.64-41.43-77.17-21.86-37.557l15.72-166.021l32.62,110.618l72.69-45.813-7.2,51.811-45.92,82.942l95.18-29.277l34.24-60.956l56.01-130.071l10.91,124.228Z" fill="#fc6e99"/><g id="ewCH2RtGjgl283_to" transform="translate(1181.179993,746.362976)"><path d="M1213.78,616.347l36.72,101.009-29.26,173.986l4.48-139.139-113.86,56.19l33.16-207.009l46.15,102.653l22.61-87.69Z" transform="translate(-1181.179993,-746.362976)" fill="#fd18b0"/></g><g id="ewCH2RtGjgl284_to" transform="translate(857.345098,1080.766001)"><path d="M1245.29,974.957l-48.2-69.79-8.66-98.526-61.67,37.451-44.55-28.177-54.92,36.861l41.52,50.025l11.29,128.509l81.79,57.61-22.82-104.689l85.51,78.869l20.71-88.143Z" transform="scale(2.514633,2.514633) translate(-1136.290039,-947.780518)" fill="#d7288f"/></g><g id="ewCH2RtGjgl285_to" transform="translate(758.195564,1098.79134)"><path d="M1046.54,1022.53l5.03-104.657-47.09,48.511-39.309-24.934-43.27,91.96l52.414,12.07-22.394,90.14l55.979,80.83l1.8-190.71l5.49,62.42l49.72-18.52-18.37-47.11Z" transform="scale(2.229853,2.229853) translate(-993.405518,-1067.161469)" fill="#ac0d51"/></g><path d="M936.984,909.378l-36.199-38.773-19.095,71.35-78.245,88.235l62.013-5.42-4.041,108.89l65.67,36.2l24.043-99.54-55.456,30.75l14.255-126.431l27.055-65.261Z" fill="#070a4f"/><g id="ewCH2RtGjgl287_to" transform="translate(1274.460022,1181.865051)"><path d="M1292.25,1086.79l89.51,117.37-51.5,132.14-130.86-116.22-32.24-71.19l19.33-75.68l39.01,49.62l29.46,18.4-8.07-91.8l40.14-22l5.22,59.36Z" transform="scale(2.470314,2.470314) translate(-1274.460022,-1181.865051)" fill="#fd3775"/></g><path d="M1593.11,1074.7l54.27-44.2-39.1,216.78-165.15-6.55-40.23-84.67l64.46-5.63l81.09-34.83l50.31,23.36-5.65-64.26Z" fill="#fd418a"/><g id="ewCH2RtGjgl289_to" transform="translate(1222.359975,1214.740007)"><path d="M1145.26,1139.09l55.93,129.55-74.89,20.72-188.329,32.48l131.069-99.63l69.38-6.06-74-46.57l26.08-76.28l38.62,16.98l16.14,28.81Z" transform="translate(-1069.580475,-1207.570007)" fill="#fc8790"/></g><g id="ewCH2RtGjgl290_to" transform="translate(1058.710022,598.895996)"><path d="M1103.84,667.878l1.34-118.515-45.63-19.449-47.31,46.063l56.83,62.255l34.77,29.646Z" transform="translate(-1058.710022,-598.895996)" fill="#fc8790"/></g><path d="M1295.02,618.503l-5.87-66.704-125-49.518l5.27,59.972l64.65,24.572l60.95,31.678Z" fill="#fc8790"/><path d="M778.77,355.249l-8.068-91.795-30.928,21.2L616.98,260.226l52.719,71.863l109.071,23.16Z" fill="#fb538e"/><g id="ewCH2RtGjgl293_to" transform="translate(1116.624542,326.399498)"><path d="M1284.56,422.086l-10.28-116.884-210.29-90.787-115.301,88.999L1097.9,438.384l12.37-162.028l174.29,145.73Z" transform="scale(1.271235,1.271235) translate(-1116.624542,-326.399498)" fill="#b84684"/></g><g id="ewCH2RtGjgl294_to" transform="translate(868.561006,316.791502)"><path d="M847.596,314.707l-37.777-84.884-33.169,23.862-79.369,124.712l47.346-228.598-71.742,112.946-11.94-135.855-66.203,91.496l42.367,165.265L747.675,529.395l44.304-101.3l55.617-113.388Z" transform="translate(-721.169006,-328.142502)" fill="#13043b"/></g><g id="ewCH2RtGjgl295_to" transform="translate(955.618011,501.89949)"><path d="M1006.34,537.027l15.69-138.268-33.274-61.844-99.55,85.158L902.76,576.287l50.035,90.597-18.18-206.843l71.725,76.986Z" transform="translate(-955.618011,-501.89949)" fill="#cc0f83"/></g><g id="ewCH2RtGjgl296_to" transform="translate(1069.897491,746.048492)"><path d="M1117.98,849.792L1143.11,692.2l-67.47-84.759-57.35,65.441-21.605,120.284l68.055,91.49l26.5-99.746l26.74,64.882Z" transform="translate(-1069.897491,-746.048492)" fill="#93095e"/></g><g id="ewCH2RtGjgl297_to" transform="translate(1284.984985,778.3815)"><path d="M1336.26,904.731l-13.77-156.662-48.94-134.475-25.69,73.775-14.15,212.132l36.63,43.668-9.73-110.765l75.65,72.327Z" transform="translate(-1284.984985,-778.3815)" fill="#f76187"/></g><path d="M1336.26,904.731l-13.77-156.662-48.94-134.475-25.69,73.775-14.15,212.132l36.63,43.668-9.73-110.765l75.65,72.327Z" transform="translate(-1556.545 257.1685)" fill="#f76187"/><g id="ewCH2RtGjgl299_to" transform="translate(192.622972,1161.456692)"><path d="M879.354,1211.02l6.508,74.05-96.151-66.22-92.05-40.68-74.944-134.67l121.561-24.8l56.891,41.9-92.099,8.04l78.436,125.12l38.393-119.29l118.538,130.87-65.083,5.68Z" transform="scale(1.334694,1.334694) translate(-783.576996,-1151.884979)" fill="#b92281"/></g></g><mask id="ewCH2RtGjgl300" mask-type="alpha"><ellipse rx="1419.69" ry="1415" transform="translate(757.503 1415)" fill="#f8d3c5"/></mask></g></g><mask id="ewCH2RtGjgl302" mask-type="alpha"><rect width="1513" height="1571" rx="0" ry="0" fill="#c4c4c4"/></mask></g></svg>