<svg id="e3oBIdX1SmJ1" xmlns="http://www.w3.org/2000/svg" xmlns:xlink="http://www.w3.org/1999/xlink" viewBox="0 0 1512 2053" shape-rendering="geometricPrecision" text-rendering="geometricPrecision"><style><![CDATA[#e3oBIdX1SmJ10_to {animation: e3oBIdX1SmJ10_to__to 3000ms linear infinite alternate forwards}@keyframes e3oBIdX1SmJ10_to__to { 0% {transform: translate(343.971492px,573.817504px)} 100% {transform: translate(597.617992px,573.817504px)}} #e3oBIdX1SmJ11_to {animation: e3oBIdX1SmJ11_to__to 3000ms linear infinite alternate forwards}@keyframes e3oBIdX1SmJ11_to__to { 0% {transform: translate(74.542999px,1176.919983px)} 100% {transform: translate(488.531499px,1170.654983px)}} #e3oBIdX1SmJ16_to {animation: e3oBIdX1SmJ16_to__to 3000ms linear infinite alternate forwards}@keyframes e3oBIdX1SmJ16_to__to { 0% {transform: translate(360.979012px,842.148468px)} 100% {transform: translate(81.580012px,838.792968px)}} #e3oBIdX1SmJ17_to {animation: e3oBIdX1SmJ17_to__to 3000ms linear infinite alternate forwards}@keyframes e3oBIdX1SmJ17_to__to { 0% {transform: translate(201.201px,1439.640015px)} 100% {transform: translate(-105.3755px,1442.025015px)}} #e3oBIdX1SmJ19_to {animation: e3oBIdX1SmJ19_to__to 3000ms linear infinite alternate forwards}@keyframes e3oBIdX1SmJ19_to__to { 0% {transform: translate(135.918605px,1794.549993px)} 100% {transform: translate(465.984505px,1788.999993px)}} #e3oBIdX1SmJ22_to {animation: e3oBIdX1SmJ22_to__to 3000ms linear infinite alternate forwards}@keyframes e3oBIdX1SmJ22_to__to { 0% {transform: translate(695.751495px,1507.215027px)} 100% {transform: translate(948.172495px,1507.215027px)}} #e3oBIdX1SmJ23_to {animation: e3oBIdX1SmJ23_to__to 3000ms linear infinite alternate forwards}@keyframes e3oBIdX1SmJ23_to__to { 0% {transform: translate(932.597535px,1522.720007px)} 100% {transform: translate(1276.032535px,1514.920007px)}} #e3oBIdX1SmJ24_to {animation: e3oBIdX1SmJ24_to__to 3000ms linear infinite alternate forwards}@keyframes e3oBIdX1SmJ24_to__to { 0% {transform: translate(1407.36499px,1745.765015px)} 100% {transform: translate(1153.42499px,1745.765015px)}} #e3oBIdX1SmJ28_to {animation: e3oBIdX1SmJ28_to__to 3000ms linear infinite alternate forwards}@keyframes e3oBIdX1SmJ28_to__to { 0% {transform: translate(1245.794983px,1059.211517px)} 100% {transform: translate(953.542983px,1059.211517px)}} #e3oBIdX1SmJ35_to {animation: e3oBIdX1SmJ35_to__to 3000ms linear infinite alternate forwards}@keyframes e3oBIdX1SmJ35_to__to { 0% {transform: translate(547.610016px,1700.565002px)} 100% {transform: translate(321.981016px,1700.565002px)}} #e3oBIdX1SmJ38_to {animation: e3oBIdX1SmJ38_to__to 3000ms linear infinite alternate forwards}@keyframes e3oBIdX1SmJ38_to__to { 0% {transform: translate(577.472999px,1665.205px)} 100% {transform: translate(228.164499px,1665.205px)}} #e3oBIdX1SmJ44_to {animation: e3oBIdX1SmJ44_to__to 3000ms linear infinite alternate forwards}@keyframes e3oBIdX1SmJ44_to__to { 0% {transform: translate(157.995946px,954.90699px)} 100% {transform: translate(452.709001px,957.09199px)}} #e3oBIdX1SmJ48_to {animation: e3oBIdX1SmJ48_to__to 3000ms linear infinite alternate forwards}@keyframes e3oBIdX1SmJ48_to__to { 0% {transform: translate(26.174202px,346.459007px)} 100% {transform: translate(315.805802px,343.372007px)}} #e3oBIdX1SmJ50_to {animation: e3oBIdX1SmJ50_to__to 3000ms linear infinite alternate forwards}@keyframes e3oBIdX1SmJ50_to__to { 0% {transform: translate(469.215012px,723.115982px)} 100% {transform: translate(803.559012px,730.896982px)}} #e3oBIdX1SmJ51_to {animation: e3oBIdX1SmJ51_to__to 3000ms linear infinite alternate forwards}@keyframes e3oBIdX1SmJ51_to__to { 0% {transform: translate(196.719555px,1213.460022px)} 100% {transform: translate(452.709005px,1210.935022px)}} #e3oBIdX1SmJ52_to {animation: e3oBIdX1SmJ52_to__to 3000ms linear infinite alternate forwards}@keyframes e3oBIdX1SmJ52_to__to { 0% {transform: translate(107.54451px,1444.809998px)} 3.333333% {transform: translate(107.54451px,1444.809998px)} 100% {transform: translate(515.83401px,1446.819998px)}} #e3oBIdX1SmJ54_to {animation: e3oBIdX1SmJ54_to__to 3000ms linear infinite alternate forwards}@keyframes e3oBIdX1SmJ54_to__to { 0% {transform: translate(840.008514px,1050.08902px)} 100% {transform: translate(844.262px,1050.02px)}} #e3oBIdX1SmJ55_to {animation: e3oBIdX1SmJ55_to__to 3000ms linear infinite alternate forwards}@keyframes e3oBIdX1SmJ55_to__to { 0% {transform: translate(548.643157px,1586.518999px)} 100% {transform: translate(786.634505px,1589.570024px)}} #e3oBIdX1SmJ56_to {animation: e3oBIdX1SmJ56_to__to 3000ms linear infinite alternate forwards}@keyframes e3oBIdX1SmJ56_to__to { 0% {transform: translate(959.305969px,1542.290039px)} 100% {transform: translate(455.336969px,1542.290039px)}} #e3oBIdX1SmJ57_to {animation: e3oBIdX1SmJ57_to__to 3000ms linear infinite alternate forwards}@keyframes e3oBIdX1SmJ57_to__to { 0% {transform: translate(1285.565002px,1823.550049px)} 100% {transform: translate(1032.185002px,1823.550049px)}} #e3oBIdX1SmJ61_to {animation: e3oBIdX1SmJ61_to__to 3000ms linear infinite alternate forwards}@keyframes e3oBIdX1SmJ61_to__to { 0% {transform: translate(1280.456051px,1142.010026px)} 100% {transform: translate(1663.550051px,1145.920026px)}} #e3oBIdX1SmJ69_to {animation: e3oBIdX1SmJ69_to__to 3000ms linear infinite alternate forwards}@keyframes e3oBIdX1SmJ69_to__to { 0% {transform: translate(826.193959px,997.181914px)} 100% {transform: translate(1269.561487px,995.928988px)}} #e3oBIdX1SmJ71_to {animation: e3oBIdX1SmJ71_to__to 3000ms linear infinite alternate forwards}@keyframes e3oBIdX1SmJ71_to__to { 0% {transform: translate(187.247029px,1526.605042px)} 100% {transform: translate(458.546029px,1526.605042px)}} #e3oBIdX1SmJ73_to {animation: e3oBIdX1SmJ73_to__to 3000ms linear infinite alternate forwards}@keyframes e3oBIdX1SmJ73_to__to { 0% {transform: translate(1173.335007px,1253.759978px)} 100% {transform: translate(786.634507px,1253.759978px)}} #e3oBIdX1SmJ76_to {animation: e3oBIdX1SmJ76_to__to 3000ms linear infinite alternate forwards}@keyframes e3oBIdX1SmJ76_to__to { 0% {transform: translate(1121.385px,1866.590007px)} 100% {transform: translate(1486.105px,1866.590007px)}} #e3oBIdX1SmJ77_to {animation: e3oBIdX1SmJ77_to__to 3000ms linear infinite alternate forwards}@keyframes e3oBIdX1SmJ77_to__to { 0% {transform: translate(1091.097473px,455.59549px)} 100% {transform: translate(1419.487473px,451.85049px)}} #e3oBIdX1SmJ78_to {animation: e3oBIdX1SmJ78_to__to 3000ms linear infinite alternate forwards}@keyframes e3oBIdX1SmJ78_to__to { 0% {transform: translate(890.894px,240.877px)} 100% {transform: translate(584.641px,240.877px)}} #e3oBIdX1SmJ79_to {animation: e3oBIdX1SmJ79_to__to 3000ms linear infinite alternate forwards}@keyframes e3oBIdX1SmJ79_to__to { 0% {transform: translate(135.210495px,684.613998px)} 100% {transform: translate(-121.023505px,678.515998px)}} #e3oBIdX1SmJ80_to {animation: e3oBIdX1SmJ80_to__to 3000ms linear infinite alternate forwards}@keyframes e3oBIdX1SmJ80_to__to { 0% {transform: translate(54.298508px,284.681px)} 100% {transform: translate(336.645953px,287.197px)}} #e3oBIdX1SmJ81_to {animation: e3oBIdX1SmJ81_to__to 3000ms linear infinite alternate forwards}@keyframes e3oBIdX1SmJ81_to__to { 0% {transform: translate(258.995506px,196.430008px)} 100% {transform: translate(475.553006px,195.413008px)}} #e3oBIdX1SmJ82_to {animation: e3oBIdX1SmJ82_to__to 3000ms linear infinite alternate forwards}@keyframes e3oBIdX1SmJ82_to__to { 0% {transform: translate(919.528985px,94.936729px)} 100% {transform: translate(711.407485px,94.517869px)}} #e3oBIdX1SmJ84_to {animation: e3oBIdX1SmJ84_to__to 3000ms linear infinite alternate forwards}@keyframes e3oBIdX1SmJ84_to__to { 0% {transform: translate(207.580647px,451.850494px)} 100% {transform: translate(446.012997px,451.850494px)}} #e3oBIdX1SmJ86_to {animation: e3oBIdX1SmJ86_to__to 3000ms linear infinite alternate forwards}@keyframes e3oBIdX1SmJ86_to__to { 0% {transform: translate(549.718509px,451.850499px)} 100% {transform: translate(973.709509px,444.511599px)}} #e3oBIdX1SmJ87_to {animation: e3oBIdX1SmJ87_to__to 3000ms linear infinite alternate forwards}@keyframes e3oBIdX1SmJ87_to__to { 0% {transform: translate(1261.989654px,189.454594px)} 100% {transform: translate(1531.020354px,189.454594px)}} #e3oBIdX1SmJ89_to {animation: e3oBIdX1SmJ89_to__to 3000ms linear infinite alternate forwards}@keyframes e3oBIdX1SmJ89_to__to { 0% {transform: translate(138.375519px,1177px)} 100% {transform: translate(-126.576481px,1174.54px)}} #e3oBIdX1SmJ91_to {animation: e3oBIdX1SmJ91_to__to 3000ms linear infinite alternate forwards}@keyframes e3oBIdX1SmJ91_to__to { 0% {transform: translate(1187.569478px,774.364982px)} 100% {transform: translate(867.221978px,774.364982px)}} #e3oBIdX1SmJ93_to {animation: e3oBIdX1SmJ93_to__to 3000ms linear infinite alternate forwards}@keyframes e3oBIdX1SmJ93_to__to { 0% {transform: translate(990.135498px,1274.484985px)} 100% {transform: translate(615.876998px,1271.144985px)}} #e3oBIdX1SmJ94_to {animation: e3oBIdX1SmJ94_to__to 3000ms linear infinite alternate forwards}@keyframes e3oBIdX1SmJ94_to__to { 0% {transform: translate(1316.400024px,1555.744995px)} 3.333333% {transform: translate(1316.400024px,1555.744995px)} 100% {transform: translate(1020.598524px,1559.554995px)}} #e3oBIdX1SmJ95_to {animation: e3oBIdX1SmJ95_to__to 3000ms linear infinite alternate forwards}@keyframes e3oBIdX1SmJ95_to__to { 0% {transform: translate(1298.609985px,254.377998px)} 100% {transform: translate(1005.999985px,259.926998px)}} #e3oBIdX1SmJ96_to {animation: e3oBIdX1SmJ96_to__to 3000ms linear infinite alternate forwards}@keyframes e3oBIdX1SmJ96_to__to { 0% {transform: translate(1445.959961px,525.201996px)} 3.333333% {transform: translate(1445.959961px,525.201996px)} 100% {transform: translate(1136.840961px,525.201996px)}} #e3oBIdX1SmJ98_to {animation: e3oBIdX1SmJ98_to__to 3000ms linear infinite alternate forwards}@keyframes e3oBIdX1SmJ98_to__to { 0% {transform: translate(1325.095012px,862.605005px)} 100% {transform: translate(1569.575012px,867.261005px)}} #e3oBIdX1SmJ103_to {animation: e3oBIdX1SmJ103_to__to 3000ms linear infinite alternate forwards}@keyframes e3oBIdX1SmJ103_to__to { 0% {transform: translate(1063.015991px,933.501495px)} 100% {transform: translate(915.144491px,933.501495px)}} #e3oBIdX1SmJ105_to {animation: e3oBIdX1SmJ105_to__to 3000ms linear infinite alternate forwards}@keyframes e3oBIdX1SmJ105_to__to { 0% {transform: translate(473.658493px,1281.455017px)} 100% {transform: translate(237.145993px,1279.860017px)}} #e3oBIdX1SmJ106_to {animation: e3oBIdX1SmJ106_to__to 3000ms linear infinite alternate forwards}@keyframes e3oBIdX1SmJ106_to__to { 0% {transform: translate(722.562003px,732.688019px)} 100% {transform: translate(590.981003px,732.688019px)}} #e3oBIdX1SmJ108_to {animation: e3oBIdX1SmJ108_to__to 3000ms linear infinite alternate forwards}@keyframes e3oBIdX1SmJ108_to__to { 0% {transform: translate(255.933638px,704.471061px)} 100% {transform: translate(-29.570999px,706.210994px)}} #e3oBIdX1SmJ109_to {animation: e3oBIdX1SmJ109_to__to 3000ms linear infinite alternate forwards}@keyframes e3oBIdX1SmJ109_to__to { 0% {transform: translate(504.792023px,1258.794983px)} 100% {transform: translate(780.638023px,1258.794983px)}} #e3oBIdX1SmJ110_to {animation: e3oBIdX1SmJ110_to__to 3000ms linear infinite alternate forwards}@keyframes e3oBIdX1SmJ110_to__to { 0% {transform: translate(991.688022px,1044.017997px)} 100% {transform: translate(713.922022px,1048.907997px)}} #e3oBIdX1SmJ111_to {animation: e3oBIdX1SmJ111_to__to 3000ms linear infinite alternate forwards}@keyframes e3oBIdX1SmJ111_to__to { 0% {transform: translate(1281.149968px,1007.985016px)} 100% {transform: translate(1599.939968px,1007.985016px)}} #e3oBIdX1SmJ113_to {animation: e3oBIdX1SmJ113_to__to 3000ms linear infinite alternate forwards}@keyframes e3oBIdX1SmJ113_to__to { 0% {transform: translate(1403.289978px,764.160004px)} 100% {transform: translate(1147.629978px,764.160004px)}} #e3oBIdX1SmJ114_to {animation: e3oBIdX1SmJ114_to__to 3000ms linear infinite alternate forwards}@keyframes e3oBIdX1SmJ114_to__to { 0% {transform: translate(378.153956px,1961.909949px)} 100% {transform: translate(-59.262544px,1961.909949px)}}]]></style><defs><linearGradient id="e3oBIdX1SmJ5-fill" x1="999" y1="664" x2="999" y2="2052.81" spreadMethod="pad" gradientUnits="userSpaceOnUse" gradientTransform="translate(0 0)"><stop id="e3oBIdX1SmJ5-fill-0" offset="0%" stop-color="#6226ad"/><stop id="e3oBIdX1SmJ5-fill-1" offset="100%" stop-color="#06094c"/></linearGradient><linearGradient id="e3oBIdX1SmJ6-fill" x1="756.5" y1="0" x2="780.5" y2="1169.5" spreadMethod="pad" gradientUnits="userSpaceOnUse" gradientTransform="translate(0 0)"><stop id="e3oBIdX1SmJ6-fill-0" offset="76.5625%" stop-color="#fe4d8e"/><stop id="e3oBIdX1SmJ6-fill-1" offset="100%" stop-color="#36317b"/></linearGradient></defs><g mask="url(#e3oBIdX1SmJ118)"><g><g opacity="0.9"><path d="M747.5,1892c-423.663,0-642.737,395.4-857.5-53.81v-728.19h2218l-19.06,826.64c-52.53-23.93-93.09-277.94-388.48-98.45-108.91,66.17-71.26,192.81-443.45,192.81-108.48,0-303.381-139-509.51-139Z" fill="url(#e3oBIdX1SmJ5-fill)"/><path d="M2050,1372.5c0-180.24-33.46-358.71-98.46-525.233-65.01-166.519-160.28-317.823-280.4-445.271-120.11-127.448-262.7-228.546-419.64-297.521C1094.57,35.5007,926.365,-0.000008,756.5,0s-338.066,35.5008-495.001,104.475C104.564,173.45,-38.0301,274.548,-158.143,401.996c-120.112,127.448-215.391,278.752-280.395,445.271C-503.543,1013.79,-537,1192.26,-537,1372.5h1293.5h1293.5Z" fill="url(#e3oBIdX1SmJ6-fill)"/><g mask="url(#e3oBIdX1SmJ115)"><g><path d="M915.948,637.168h148.592l63.55,90.406h-144.114l63.554,101.148-101.148-36.7-30.434,90.407-164.701-53.707l118.155-36.7-118.155-120.84l60.868-68.028l76.979,124.42l26.854-90.406Z" fill="#b80065"/><g id="e3oBIdX1SmJ10_to" transform="translate(343.971492,573.817504)"><path d="M590.128,516.328L462.127,495.74L353.818,455.46l162.016-87.721L896.256,455.46l-94.881,40.28l118.154,91.302L680.534,495.74l20.588,91.302-64.448,56.392l164.701,87.721-144.114,91.301-20.587-30.434l20.587-84.14h-164.7l73.399-120.84-144.113-27.749l168.281-42.965Z" transform="translate(-636.673492,-595.097504)" fill="#ef98b8"/></g><g id="e3oBIdX1SmJ11_to" transform="translate(74.542999,1176.919983)"><path d="M-160.871,1111.58l70.7135-104.73l171.8616,57.29l181.7079-26.86-91.302,137.85l131.582-23.27l107.413,107.41-238.995-42.96l175.442,130.68-359.8347-23.27L158.684,1111.58h-154.85468l77.87478,91.3-131.5815,56.39-110.9936,51.02-101.148-84.14l212.1416-74.29-110.9936-40.28Z" transform="translate(-74.542999,-1176.919983)" fill="#fc8790"/></g><path d="M-52.5626,755.323L-207.417,775.015l-60.868,50.127h141.428l-80.56,43.86l80.56,40.28L31.578,845.729l-84.1406-90.406Z" fill="#0080a1"/><path d="M148.836,679.239h-127.1063L9.19808,706.987h-31.32888l6.2657-45.651L-55.25,642.539l10.7413,36.7l28.6436,73.399L87.968,760.694l76.085-23.273L57.5341,725.785L87.968,699.826l60.868-20.587Z" fill="#015486"/><path d="M138.095,560.188L-7.80811,506.482h54.60181h20.5876l87.7207-20.588l8.951,66.238l18.462-12.198-18.462-14.655l34.722,3.912l65.531-43.297l99.357,31.329h-72.504l105.624,22.378-75.19,75.189-30.434-75.189-92.384-10.41-16.26,10.743l68.364,54.269L7.4088,629.112L138.095,560.188Z" fill="#4403b9"/><path d="M232.977,882.429l-342.828,64.448L71.8567,1004.16L232.977,882.429Z" fill="#e5af0f"/><g id="e3oBIdX1SmJ16_to" transform="translate(360.979012,842.148468)"><path d="M290.265,684.609L448.7,589.727l-30.434,94.882v76.98v23.273l145.009,17.007l53.706,212.141-81.455,80.56-29.539-201.4-87.721,174.55h-84.14v-53.71L206.125,973.73L448.7,849.31h-219.302L104.977,801.869l101.148-17.007L418.266,684.609h-128.001Z" transform="translate(-360.979012,-842.148468)" fill="#5591a9"/></g><g id="e3oBIdX1SmJ17_to" transform="translate(201.201,1439.640015)"><path d="M10.9894,1364l-67.1334,23.27l67.1334,77.88h90.4066l-53.707,33.12l128.001,51.02l40.28-84.14h145.008l97.568-135.16-204.981,57.28-242.5756,40.28L118.403,1364h-107.4136Z" transform="translate(-201.201,-1439.640015)" fill="#e83b62"/></g><path d="M-281.711,1568.98l-114.575,37.59l114.575,84.15-215.722-26.86l171.861,57.29h-198.715l97.568,90.41l205.875-47.45L37.8439,1606.57h-76.9797l76.9797-37.59h-187.9739l-111.889,94.88-19.692-94.88Z" fill="#460336"/><g id="e3oBIdX1SmJ19_to" transform="translate(135.918605,1794.549993)"><path d="M240.138,1505.43l-77.875,97.56-63.5526-47.44v47.44L-113.431,1717.57l57.287,33.12l114.5744-76.98L182.851,1767.7L58.4304,1750.69l151.2736,91.3l30.434-91.3l235.415-76.98-171.862-23.27l171.862-47.45-30.434-178.12-40.28,50.12-20.588,30.44-154.854,84.14l34.014-84.14h-23.273Z" transform="translate(-181.061005,-1633.429993)" fill="#6d0542"/></g><path d="M445.119,1077.56l-74.295,34.02l131.582,178.13h103.833L428.111,1165.28h107.414v-53.7h-90.406v-34.02Z" fill="#ecb5b2"/><path d="M737.821,1054.29l40.28-161.12l175.442,73.399-175.442,24.168L919.529,1138.43h-120.84l80.56,51.02-57.287,113.68-185.289-90.4l141.428-23.28-103.833-77.87l63.553-57.29Z" fill="#93095e"/><g id="e3oBIdX1SmJ22_to" transform="translate(695.751495,1507.215027)"><path d="M727.976,1354.15h-212.142v80.56h93.987l-53.707,50.13l70.714,175.44l195.134-67.13l53.707-188.87-185.288,120.84l37.595-170.97Z" transform="translate(-695.751495,-1507.215027)" fill="#f9587a"/></g><g id="e3oBIdX1SmJ23_to" transform="translate(932.597535,1522.720007)"><path d="M1124.51,1354.15h-174.546l147.696-64.45l131.58-73.39-63.55,157.54l272.11-63.56-171.86,97.57l145.01-17.01-313.29,111h238.99l-258.69,37.59h225.57l-205.87,40.28l131.58,117.26-131.58,57.29l68.03,26.85h-246.16l64.448,53.71-340.143-53.71L919.53,1634.24v-162.83l134.27-23.27l70.71-93.99Z" transform="translate(-1040.817535,-1525.570007)" fill="#201a6c"/></g><g id="e3oBIdX1SmJ24_to" transform="translate(1407.36499,1745.765015)"><path d="M1414.53,1673.71l80.56-104.73-148.15,34.01-138.29,6.27l81.45,87.72-30.43,64.45l87.27,53.71l87.28,9.84-144.12,26.86l93.99,70.71l221.99-225.57-191.55-23.27Z" transform="translate(-1407.36499,-1745.765015)" fill="#06094c"/></g><path d="M1212.23,367.739L942.803,401.753l-26.854,73.399v68.029l158.431,46.546l137.85-97.567-117.26,26.853l134.27-117.26L1034.1,455.46l178.13-87.721Z" fill="#b5168a"/><path d="M1158.52,650.595l104.73-134.267l201.4,134.267-124.42,50.126h191.56l-157.54,47.441l90.4,43.86-151.27,70.714-50.13,36.7-179.02-36.7l34.01-47.441h145.01v-90.406l-68.03,50.126l68.03-147.693-104.73,23.273Z" fill="#fa96b0"/><path d="M1552.37,549.447l-120.84-67.133-60.87-97.567l319.56,118.154-53.71,113.68l147.7-33.12l74.29,151.274-128-87.721l53.71,215.722-117.26,50.127-57.29,26.853-239-43.86l164.7-33.12-57.28-110.993l74.29,17.007l114.58,76.979-30.44-141.427-84.14-57.288-181.71-97.567h181.71Z" fill="#fc6e99"/><g id="e3oBIdX1SmJ28_to" transform="translate(1245.794983,1059.211517)"><path d="M1060.96,993.423l151.27-40.28l248.84,64.447-201.4-24.167l67.13,171.857-296.28-74.29l154.86-53.71-124.42-43.857Z" transform="translate(-1245.794983,-1059.211517)" fill="#fd18b0"/></g><path d="M1585.49,993.423l-107.41,60.867h-144.11l46.54,93.99-46.54,60.86l46.54,84.15l77.88-53.71h187.97l93.99-111-154.86,19.7l125.32-113.68-125.32-41.177Z" fill="#d7288f"/><path d="M1629.35,1287.02l-151.27-20.59l64.45,74.3-41.18,53.7l128,74.3l24.17-74.3l128,43.86l124.42-70.71-276.59-26.85h91.31l-20.59-74.3-70.72,20.59Z" fill="#ac0d51"/><path d="M1451.23,1431.13l-60.87,47.44l101.15,36.7l118.15,124.42v-90.4l157.54,19.69l60.87-90.41-141.43-47.44l37.6,84.14-181.71-36.7-91.3-47.44Z" fill="#070a4f"/><path d="M1811.06,1159.02l195.14-64.45l20.58,110.99l23.28,276.59-128-202.29v-101.15l-76.98,101.15-107.42-47.44l29.54-53.71l43.86-19.69Z" fill="#fc8790"/><path d="M1121.82,1159.02l-171.857-17.01-34.014,63.55l60.868,74.3l97.563-74.3l47.44-46.54Z" fill="#fc8790"/><path d="M1074.38,876.163h-97.563L889.096,1050.71h87.721l43.863-90.407l53.7-84.14Z" fill="#fc8790"/><g id="e3oBIdX1SmJ35_to" transform="translate(547.610016,1700.565002)"><path d="M626.827,1589.57h-134.266l26.853,47.44-51.021,174.55l110.993-67.14l47.441-154.85Z" transform="translate(-547.610016,-1700.565002)" fill="#fb538e"/></g><path d="M787.948,866.317h-170.967L458.546,1159.02l114.575,178.13l214.827-198.72-233.625-38.49L787.948,866.317Z" fill="#b84684"/><path d="M-80.3122,1320.14L-423.14,1371.16l279.275,214.83L7.40881,1525.12L-29.2908,1455.3L87.9689,1287.02l-46.5458-84.14-121.7353,117.26Z" fill="#c996a7"/><g id="e3oBIdX1SmJ38_to" transform="translate(577.472999,1665.205)"><path d="M576.7,1484.84L448.699,1528.7l30.434,51.02l170.966,130.69-325.821-97.57L479.133,1731h-198.715l124.421,107.41l245.26-40.28L875.668,1656.7L734.24,1579.72L576.7,1484.84Z" transform="translate(-578.042999,-1661.625)" fill="#13043b"/></g><path d="M919.528,1283.44l-198.715-40.28-93.987,40.28L737.82,1438.29h225.568l137.852-60.86h-302.552l120.84-93.99Z" fill="#cc0f83"/><path d="M1387.67,1161.7l-225.56-56.39-131.59,86.83l87.73,91.3l171.86,46.54l141.42-86.82-141.42-51.02l97.56-30.44Z" fill="#93095e"/><path d="M1495.09,852.89h-229.15l-201.4,53.707l103.83,46.546l306.13,47.437l68.03-47.437h-162.02L1495.09,852.89Z" fill="#f76187"/><path d="M1073.84,634.816l143.53,38.458l37.98,103.775-139.2-37.3l35.21,114.15-88.2-61.628-52.8,79.449-145.187-94.504l123.628-4.869-82.853-147.303l76.4-49.957L1024.5,715.192l49.34-80.376Z" fill="#b80065"/><path d="M790.397,433.765L672.086,380.75l-94.193-66.94l179.199-42.799L1101.85,454.204l-102.076,14.35l90.496,118.771L883.051,437.278l-3.744,93.519-76.847,37.79l136.384,127.36-162.833,50.891-12.009-34.725l41.663-75.945L646.577,593.54l102.174-97.725L616.73,431.712l173.667,2.053Z" fill="#ef98b8"/><g id="e3oBIdX1SmJ44_to" transform="translate(157.995946,954.90699)"><path d="M-89.0734,814.359L6.33657,731.502L157.515,831.318l182.466,21.091-123.867,109.52l133.121,11.576l75.953,131.555L205.457,1001.7l135.639,171.64L-0.454106,1057.73L219.593,897.066L70.0152,856.987L121.606,965.333L-20.0874,985.748L-140.505,1006.3l-75.924-107.449L7.71324,881.994L-89.0734,814.359Z" transform="translate(-104.379501,-952.42099)" fill="#fc8790"/></g><path d="M107.751,498.276L-46.9238,477.218l-71.7672,32.665L17.9177,546.487l-89.167,21.515L-3.8595,627.76L165.626,607.379L107.751,498.276Z" fill="#0080a1"/><path d="M321.981,476.91L199.206,444.013l-19.287,23.559-30.261-8.108l17.867-42.474-33.177-28.35.876,38.229l8.671,78.312l98.21,34.655l79.515-2.788-99.877-38.809l36.116-17.197l64.122-4.132Z" fill="#015486"/><path d="M342.416,359.137L215.385,269.498l52.741,14.132l19.886,5.328l90.061,2.818-8.498,66.298l20.99-7.004-14.04-18.934l32.526,12.765l74.504-24.861l87.864,55.977-70.034-18.766l96.233,48.953-92.088,53.167-9.937-80.504-86.542-33.966-18.486,6.169l51.989,70.113-244.21-29.295l144.072-32.751Z" fill="#4403b9"/><g id="e3oBIdX1SmJ48_to" transform="translate(26.174202,346.459007)"><path d="M24.9212,233.29l-62.732-1.055l6.2961,38.755-25.9384-6.951l23.4188,40.563-40.5625,23.419-13.8338-3.707l29.1153,50.429-19.7332,11.393l43.04,74.547L-5.42782,346.554L37.8028,358.138l53.167,92.088L140.779,264.334l-32.888,18.989-89.9199-24.094l6.9501-25.939Z" transform="translate(-26.174202,-346.459007)" fill="#f4057d"/></g><path d="M350.664,694.954L2.8367,668.476L163.526,770.841l187.138-75.887Z" fill="#e5af0f"/><g id="e3oBIdX1SmJ50_to" transform="translate(469.215012,723.115982)"><path d="M457.198,518.702l177.594-50.643-53.954,83.772-19.924,74.357-6.024,22.48l135.666,53.958-3.03,218.814-99.53,56.733L611.59,775.99L481.682,921.885l-81.273-21.777l13.9-51.877-113.214-72.036l266.512-57.398-211.83-56.76L247.874,584.01l102.103,9.752l230.861-41.931-123.64-33.129Z" transform="translate(-469.215012,-723.115982)" fill="#5591a9"/></g><g id="e3oBIdX1SmJ51_to" transform="translate(196.719555,1213.460022)"><path d="M11.5995,1102.66l-70.8694,5.11l44.6904,92.59l87.3259,23.4-60.4486,18.09l110.4342,82.41l60.685-70.85l140.067,37.54l129.225-105.31-212.823,2.28-244.73522-23.87L115.353,1130.46l-103.7535-27.8Z" transform="translate(-196.719555,-1213.460022)" fill="#e83b62"/></g><g id="e3oBIdX1SmJ52_to" transform="translate(107.54451,1444.809998)"><path d="M196.335,1298.58L95.8618,1372.67L46.753,1310.39l-12.2786,45.83-234.5674,55.76l46.764,46.82l130.5937-44.7l95.8555,122.98-115.7793-48.63L79.8298,1615.8l53.0272-80.32l247.317-13.43-159.982-66.96l178.284-1.34l16.706-179.93-51.881,37.99-27.763,24.07-171.355,41.19l54.632-72.47-22.48-6.02Z" transform="translate(-107.54451,-1444.809998)" fill="#6d0542"/></g><path d="M505.073,938.346l-80.566,13.626l80.995,206.118l100.295,26.87-139.856-166.28l103.754,27.8l13.9-51.88-87.326-23.399l8.804-32.855Z" fill="#ecb5b2"/><g id="e3oBIdX1SmJ54_to" transform="translate(840.008514,1050.08902)"><path d="M793.824,991.623l80.609-145.205L1024.9,962.724L849.181,940.66l98.382,179.27-116.722-31.28l64.61,70.13-84.758,94.98-155.576-135.28l142.632,14.12-80.139-102.09l76.214-38.887Z" transform="translate(-844.262,-1050.02)" fill="#93095e"/></g><g id="e3oBIdX1SmJ55_to" transform="translate(548.643157,1586.518999)"><path d="M706.703,1278.72L501.79,1223.81l-20.851,77.82l90.784,24.32-64.85,34.52l22.897,187.77l205.86-14.34l100.76-168.54-210.25,68.77l80.563-155.41Z" transform="translate(-658.664505,-1386.025024)" fill="#f9587a"/></g><g id="e3oBIdX1SmJ56_to" transform="translate(959.305969,1542.290039)"><path d="M1089.73,1381.35l-168.603-45.18l159.343-24.02l146.09-36.84-102.16,135.72l279.29,9.04-191.26,49.76l144.47,21.1-331.34,26.13l230.85,61.86-259.599-30.64l217.879,58.38-209.28-14.38l96.75,147.32-141.929,21.28l58.759,43.55-237.767-63.71l48.352,68.55-314.653-139.91l304.315-70.51l42.144-157.29l135.716,12.27l92.633-72.48Z" transform="translate(-959.305969,-1542.290039)" fill="#201a6c"/></g><g id="e3oBIdX1SmJ57_to" transform="translate(1285.565002,1823.550049)"><path d="M1287.15,1765.08l104.93-80.31-151.9-5.49-135.21-29.74l55.98,105.82-46.08,54.37l70.4,74.47l81.75,32.09-146.15-11.36l72.48,92.63l272.81-160.42-179.01-72.06Z" transform="translate(-1285.565002,-1823.550049)" fill="#06094c"/></g><path d="M1429.76,451.252l-269.05-36.878-44.94,63.948-17.6,65.71l140.99,85.966l158.4-58.565-120.22-4.411l160.04-78.513L1235,489.881l194.76-38.629Z" fill="#b5168a"/><path d="M1304.67,710.569l135.91-102.586l159.79,181.818-133.15,16.216l185.02,49.578-164.45,5.05l75.98,65.765-164.42,29.152-57.92,22.475L1178,896.254l45.14-37.021l140.07,37.531l23.39-87.326-78.68,30.811l103.94-125.054-107.19-4.626Z" fill="#fa96b0"/><path d="M1711.29,714.803l-99.35-96.122-33.54-109.996l278.08,196.836-81.3,95.905l151.24,6.235l32.61,165.349-100.94-117.861-3.95,222.271-126.24,18.07-62.29,11.11-219.5-104.22l167.66,10.64-26.6-122.043l67.36,35.656l90.74,104.007l7.21-144.482-66.45-77.112-150.26-141.272l175.52,47.029Z" fill="#fc6e99"/><g id="e3oBIdX1SmJ61_to" transform="translate(1280.456051,1142.010026)"><path d="M1121.7,1016.46l156.55.25l223.68,126.66-188.28-75.48l20.36,183.39-266.96-148.45l163.48-11.8-108.83-74.57Z" transform="translate(-1284.490051,-1133.870026)" fill="#fd18b0"/></g><path d="M1628.37,1152.22l-119.51,31-139.2-37.3l20.63,102.83-60.71,46.74l23.18,93.33l89.12-31.73l181.57,48.65l119.51-82.88-154.67-21.06l150.46-77.37-110.38-72.21Z" fill="#d7288f"/><path d="M1594.74,1447.17l-140.79-59.04l43.03,88.44-53.68,41.22l104.41,104.89l42.58-65.5l112.28,75.49l138.49-36.1-260.22-97.53l88.19,23.64-.65-77.1-73.64,1.59Z" fill="#ac0d51"/><path d="M1385.39,1540.27l-71.08,30.07l88.21,61.63l81.92,150.76l23.4-87.33l147.08,59.8l82.19-71.57-124.33-82.43l14.53,91-166.01-82.48-75.91-69.45Z" fill="#070a4f"/><path d="M1803.39,1370.56l205.16-11.75-8.84,112.54-49.1,273.19-71.29-228.53l26.18-97.7-100.53,77.77-91.48-73.62l42.44-44.23l47.46-7.67Z" fill="#fc8790"/><path d="M1137.64,1192.17l-161.606-60.91-49.304,52.58l39.565,87.52l113.475-46.51l57.87-32.68Z" fill="#fc8790"/><path d="M1165.02,906.674l-94.24-25.253L940.871,1027.32l84.729,22.7l65.77-75.973l73.65-67.373Z" fill="#fc8790"/><path d="M548.073,1479.93l-129.692-34.75l13.66,52.78-94.459,155.39l124.587-36.12l85.904-137.3Z" fill="#fb538e"/><g id="e3oBIdX1SmJ69_to" transform="translate(826.193959,997.181914)"><path d="M890.894,823.028l-165.141-44.25L496.96,1020.5l64.568,201.71l258.938-136.34-215.702-97.645l286.13-165.197Z" transform="translate(-693.926987,-1000.493988)" fill="#b84684"/></g><path d="M-65.2383,1036.66L-409.59,997.217l214.158,279.793l161.8727-19.65-17.3786-76.93l156.8189-132.2-23.1831-93.323-147.9362,81.753Z" fill="#c996a7"/><g id="e3oBIdX1SmJ71_to" transform="translate(187.247029,1526.605042)"><path d="M526.76,1365.8l-134.992,9.24l16.192,57.16l131.317,170.48L249.81,1424.11l118.997,154.21-191.944-51.44l92.381,135.96l247.329,24.57l254.486-78.23-116.685-110.96L526.76,1365.8Z" transform="translate(-473.961029,-1526.605042)" fill="#13043b"/></g><path d="M910.032,1259.99l-181.518-90.34-101.21,14.59l67.133,178.3l217.882,58.38l148.901-23.11-292.236-78.31l141.048-59.51Z" fill="#cc0f83"/><g id="e3oBIdX1SmJ73_to" transform="translate(1173.335007,1253.759978)"><path d="M1393.73,1263.57l-203.29-112.85-149.57,49.81l61.11,110.89l153.95,89.44l159.09-47.26-123.41-85.89l102.12-4.14Z" transform="translate(-1227.945007,-1275.789978)" fill="#93095e"/></g><path d="M1577.41,993.08l-221.34-59.308-208.44-.249l88.25,71.837l283.42,125.05l77.99-28.21-156.5-41.94l136.62-67.18Z" fill="#f76187"/><path d="M1577.41,993.08l-221.34-59.308-208.44-.249l88.25,71.837l283.42,125.05l77.99-28.21-156.5-41.94l136.62-67.18Z" fill="#f76187"/><g id="e3oBIdX1SmJ76_to" transform="translate(1121.385,1866.590007)"><path d="M1769.76,1769.29l104.62,28.03-138.45,98.2-101.43,105.34L1412.87,2036l26.45-178.25l85.64-56.75-34.75,129.69l210.28-44.67-144.25-111.85l238.08-96.53-24.56,91.65Z" transform="translate(-1643.625,-1856.820007)" fill="#b92281"/></g><g id="e3oBIdX1SmJ77_to" transform="translate(1091.097473,455.59549)"><path d="M1104.67,367.009l143.53,38.457l37.99,103.775-139.21-37.3l35.21,114.15-88.2-61.628-52.8,79.449-145.185-94.504l123.625-4.869-82.85-147.303l76.4-49.957l42.15,140.105l49.34-80.375Z" transform="translate(-1091.097473,-455.59549)" fill="#b80065"/></g><g id="e3oBIdX1SmJ78_to" transform="translate(890.894,240.877)"><path d="M821.229,165.957L702.918,112.942L608.725,46.0022L787.924,3.20292L1132.68,186.396l-102.07,14.35l90.49,118.771L913.883,169.47l-3.744,93.519-76.848,37.79l136.385,127.36L806.843,479.03l-12.009-34.725l41.663-75.945-159.089-42.628l102.174-97.725-132.021-64.103l173.668,2.053Z" transform="translate(-855.784,-260.536)" fill="#ef98b8"/></g><g id="e3oBIdX1SmJ79_to" transform="translate(135.210495,684.613998)"><path d="M-58.2424,546.551l95.41-82.857L188.346,563.51l182.467,21.091-123.868,109.52l133.121,11.576l75.953,131.554L236.288,733.893l135.64,171.641L30.3769,789.922L250.424,629.258L100.846,589.179l51.591,108.346L10.7436,717.94L-109.674,738.495l-75.924-107.452L38.5443,614.186l-96.7867-67.635Z" transform="translate(-135.210495,-684.613998)" fill="#fc8790"/></g><g id="e3oBIdX1SmJ80_to" transform="translate(54.298508,284.681)"><path d="M138.582,230.468L-16.0927,209.41L-87.86,242.075L48.7487,278.679l-89.167,21.515l67.3899,59.758L196.457,339.571L138.582,230.468Z" transform="translate(-54.298508,-284.681)" fill="#0080a1"/></g><g id="e3oBIdX1SmJ81_to" transform="translate(258.995506,196.430008)"><path d="M352.812,209.102L230.037,176.204l-19.286,23.56-30.262-8.109l17.868-42.473-33.178-28.35.877,38.229l8.67,78.311l98.21,34.656l79.516-2.788-99.877-38.809l36.115-17.197l64.122-4.132Z" transform="translate(-258.995506,-196.430008)" fill="#015486"/></g><g id="e3oBIdX1SmJ82_to" transform="translate(919.528985,94.936729)"><path d="M373.248,91.3288L246.216,1.68954L298.958,15.8215L318.844,21.15l90.06,2.8178-8.497,66.298l20.99-7.0041-14.04-18.9343L439.883,77.093l74.504-24.8612L602.25,108.209L532.217,89.4434l96.232,48.9526-92.088,53.167-9.936-80.504-86.542-33.966-18.486,6.1687l51.988,70.1133L229.176,124.08L373.248,91.3288Z" transform="translate(-428.812485,-96.626269)" fill="#4403b9"/></g><path d="M55.7523,-34.5175l-62.73207-1.0553L-0.683637,3.18175L-26.622,-3.76842L-3.20322,36.7941L-43.7657,60.2129l-13.8338-3.7068l29.1152,50.4289-19.7331,11.393l43.03992,74.547L25.4032,78.7466L68.6339,90.3302L121.801,182.418L171.61,-3.47346L138.722,15.5147L48.8021,-8.57917l6.9502-25.93833Z" fill="#f4057d"/><g id="e3oBIdX1SmJ84_to" transform="translate(207.580647,451.850494)"><path d="M381.494,427.146L33.6673,400.668L194.357,503.033l187.137-75.887Z" transform="translate(-207.580647,-451.850494)" fill="#e5af0f"/></g><path d="M-118.526,813.037l-88.852-48.828-78.721-83.181-4.472,123.904-128.008-44.493l116.697,148.958l78.679,21.082l194.526,14.129L-225.68,832.513l107.154-19.476Z" fill="#f83084"/><g id="e3oBIdX1SmJ86_to" transform="translate(549.718509,451.850499)"><path d="M488.029,250.894l177.594-50.643-53.954,83.772-19.924,74.357-6.023,22.48l135.665,53.958-3.03,218.814-99.53,56.733l23.594-202.183L512.513,654.077L431.24,632.3l13.9-51.877-113.214-72.036l266.512-57.398-211.83-56.76-107.902-78.027l102.102,9.751l230.861-41.93-123.64-33.129Z" transform="translate(-500.046509,-455.307999)" fill="#5591a9"/></g><g id="e3oBIdX1SmJ87_to" transform="translate(1261.989654,189.454594)"><path d="M42.4301,834.853l-70.8694,5.104l44.6904,92.597l87.3259,23.399-60.4487,18.09L153.563,1056.46l60.684-70.853l140.067,37.533L483.54,917.834l-212.824,2.282L25.9813,896.24L146.184,862.654L42.4301,834.853Z" transform="translate(-227.550354,-945.656494)" fill="#e83b62"/></g><path d="M-293.348,957.092l-120.401,6.66l88.893,110.928-201.421-81.772l151.178,99.812-191.943-51.43l70.843,112.58l211.14,7.46L5.58792,1076.11l-74.35662-19.92l84.0869-16.39L-166.25,991.148l-132.634,62.692l5.536-96.748Z" fill="#460336"/><g id="e3oBIdX1SmJ89_to" transform="translate(138.375519,1177)"><path d="M227.166,1030.77l-100.473,74.09-49.109-62.28-12.2786,45.83-234.5674,55.76l46.764,46.82l130.59377-44.7L103.951,1269.27l-115.779-48.63l122.489,127.35l53.027-80.32l247.317-13.42-159.982-66.96l178.284-1.35l16.706-179.93L394.132,1044l-27.763,24.07-171.355,41.19l54.632-72.47-22.48-6.02Z" transform="translate(-138.375519,-1177)" fill="#6d0542"/></g><path d="M535.903,670.538l-80.566,13.627l80.995,206.113l100.295,26.874L496.772,750.868l103.753,27.801l13.901-51.877L527.1,703.393l8.803-32.855Z" fill="#ecb5b2"/><g id="e3oBIdX1SmJ91_to" transform="translate(1187.569478,774.364982)"><path d="M824.656,723.815L905.265,578.61L1055.73,694.916L880.013,672.853l98.382,179.265-116.722-31.276l64.61,70.133-84.758,94.979L685.949,850.672l142.632,14.124-80.139-102.095l76.214-38.886Z" transform="translate(-870.839478,-782.281982)" fill="#93095e"/></g><path d="M737.535,1010.91L532.622,956.005l-20.851,77.815l90.784,24.33-64.85,34.51l22.897,187.77l205.86-14.34l100.76-168.53-210.25,68.76l80.563-155.41Z" fill="#f9587a"/><g id="e3oBIdX1SmJ93_to" transform="translate(990.135498,1274.484985)"><path d="M1120.56,1113.54l-168.604-45.17l159.344-24.03l146.09-36.84-102.16,135.72l279.29,9.04-191.26,49.76l144.47,21.11-331.34,26.12l230.85,61.86-259.6-30.64l217.88,58.38-209.28-14.38l96.74,147.32-141.92,21.28l58.76,43.55-237.768-63.71l48.352,68.56-314.653-139.92l304.315-70.51l42.144-157.29l135.72,12.27l92.63-72.48Z" transform="translate(-990.135498,-1274.484985)" fill="#201a6c"/></g><g id="e3oBIdX1SmJ94_to" transform="translate(1316.400024,1555.744995)"><path d="M1317.99,1497.27l104.92-80.31-151.9-5.49-135.2-29.74l55.97,105.82-46.08,54.37l70.4,74.47l81.75,32.1-146.15-11.36l72.48,92.63l272.81-160.43-179-72.06Z" transform="translate(-1316.400024,-1555.744995)" fill="#06094c"/></g><g id="e3oBIdX1SmJ95_to" transform="translate(1298.609985,254.377998)"><path d="M1460.59,183.444l-269.05-36.878-44.94,63.948-17.6,65.71l140.99,85.966l158.4-58.565-120.21-4.411l160.04-78.513-202.39,1.372l194.76-38.629Z" transform="translate(-1298.609985,-254.377998)" fill="#b5168a"/></g><g id="e3oBIdX1SmJ96_to" transform="translate(1445.959961,525.201996)"><path d="M1335.51,442.761l135.91-102.586L1631.2,521.993l-133.15,16.215l185.03,49.578-164.45,5.05l75.97,65.765-164.42,29.152-57.92,22.476-163.42-81.784l45.13-37.021l140.07,37.531l23.4-87.326-78.69,30.811l103.94-125.054-107.18-4.625Z" transform="translate(-1445.959961,-525.201996)" fill="#fa96b0"/></g><path d="M1742.12,446.995l-99.35-96.121-33.54-109.997l278.08,196.836-81.3,95.905l151.24,6.236l32.61,165.348-100.94-117.861-3.95,222.271-126.24,18.07-62.29,11.111-219.5-104.222l167.66,10.637L1618,623.169l67.36,35.656l90.74,104.011l7.21-144.486-66.45-77.112L1566.6,399.966l175.52,47.029Z" fill="#fc6e99"/><g id="e3oBIdX1SmJ98_to" transform="translate(1325.095012,862.605005)"><path d="M1152.54,748.655l156.54.245l223.68,126.657-188.28-75.471l20.36,183.381-266.95-148.446l163.47-11.798-108.82-74.568Z" transform="translate(-1315.325012,-866.061005)" fill="#fd18b0"/></g><path d="M1659.2,884.415l-119.51,30.993-139.2-37.299l20.63,102.831-60.71,46.75l23.18,93.32l89.12-31.72l181.57,48.65l119.51-82.89-154.67-21.06l150.47-77.369-110.39-72.206Z" fill="#d7288f"/><path d="M1625.58,1179.36l-140.79-59.04l43.02,88.44-53.67,41.22l104.41,104.9l42.57-65.51l112.29,75.49l138.48-36.1-260.21-97.52l88.19,23.63-.66-77.09-73.63,1.58Z" fill="#ac0d51"/><path d="M1416.22,1272.46l-71.07,30.07l88.2,61.63l81.93,150.76l23.39-87.33l147.08,59.8l82.19-71.57-124.33-82.43l14.54,91-166.02-82.48-75.91-69.45Z" fill="#070a4f"/><path d="M1834.22,1102.75L2039.39,1091l-8.84,112.54-49.11,273.19-71.28-228.53l26.18-97.7-100.54,77.78-91.47-73.63l42.43-44.23l47.46-7.67Z" fill="#fc8790"/><g id="e3oBIdX1SmJ103_to" transform="translate(1063.015991,933.501495)"><path d="M1168.47,924.362l-161.6-60.909-49.308,52.584l39.565,87.513L1110.6,957.043l57.87-32.681Z" transform="translate(-1063.015991,-933.501495)" fill="#fc8790"/></g><path d="M1195.85,638.866l-94.24-25.252L971.703,759.509l84.727,22.704l65.77-75.974l73.65-67.373Z" fill="#fc8790"/><g id="e3oBIdX1SmJ105_to" transform="translate(473.658493,1281.455017)"><path d="M578.904,1212.13l-129.692-34.76l13.66,52.78-94.459,155.39L493,1349.42l85.904-137.29Z" transform="translate(-473.658493,-1281.455017)" fill="#fb538e"/></g><g id="e3oBIdX1SmJ106_to" transform="translate(722.562003,732.688019)"><path d="M921.726,555.22L756.585,510.971L527.792,752.693l64.567,201.712L851.297,818.062L635.595,720.417L921.726,555.22Z" transform="translate(-724.759003,-732.688019)" fill="#b84684"/></g><path d="M-301.84,390.465l154.085,102.633L8.68857,362.468L-76.5668,680.645L-329.229,727.854l27.389-337.389Z" fill="#fa96b0"/><g id="e3oBIdX1SmJ108_to" transform="translate(255.933638,704.471061)"><path d="M-34.4073,768.856L-378.759,729.409L-164.601,1009.2L-2.72821,989.556L-20.1069,912.618L136.712,780.42L113.529,687.1L-34.4073,768.856Z" transform="translate(121.023499,-848.149994)" fill="#c996a7"/></g><g id="e3oBIdX1SmJ109_to" transform="translate(504.792023,1258.794983)"><path d="M557.591,1097.99l-134.992,9.24l16.192,57.16l131.317,170.48L280.641,1156.3l118.997,154.21-191.944-51.43l92.381,135.95l247.329,24.57l254.486-78.22-116.685-110.96-127.614-132.43Z" transform="translate(-504.792023,-1258.794983)" fill="#13043b"/></g><g id="e3oBIdX1SmJ110_to" transform="translate(991.688022,1044.017997)"><path d="M940.864,992.185L759.346,901.846l-101.21,14.582l67.133,178.302l217.882,58.38L1092.06,1130l-292.244-78.31l141.048-59.505Z" transform="translate(-875.098022,-1027.477997)" fill="#cc0f83"/></g><g id="e3oBIdX1SmJ111_to" transform="translate(1281.149968,1007.985016)"><path d="M1424.56,995.762L1221.28,882.91l-149.57,49.812l61.1,110.898l153.96,89.44l159.08-47.27-123.41-85.883l102.12-4.145Z" transform="translate(-1258.779968,-1007.985016)" fill="#93095e"/></g><path d="M1608.24,725.272L1386.9,665.964l-208.44-.249l88.25,71.833l283.42,125.057l77.99-28.218-156.5-41.932l136.62-67.183Z" fill="#f76187"/><g id="e3oBIdX1SmJ113_to" transform="translate(1403.289978,764.160004)"><path d="M1608.24,725.272L1386.9,665.964l-208.44-.249l88.25,71.833l283.42,125.057l77.99-28.218-156.5-41.932l136.62-67.183Z" transform="translate(-1403.289978,-764.160004)" fill="#f76187"/></g><g id="e3oBIdX1SmJ114_to" transform="translate(378.153956,1961.909949)"><path d="M1800.59,1501.48l104.62,28.03-138.45,98.2-101.43,105.34-221.63,35.14l26.45-178.25l85.64-56.75-34.76,129.69l210.28-44.66-144.24-111.86l238.07-96.53-24.55,91.65Z" transform="translate(-1674.454956,-1589.009949)" fill="#b92281"/></g></g><mask id="e3oBIdX1SmJ115" mask-type="alpha"><path d="M747.5,1892c-423.663,0-642.737,395.4-857.5-53.81v-728.19h2218l-19.06,826.64c-52.53-23.93-93.09-277.94-388.48-98.45-108.91,66.17-71.26,192.81-443.45,192.81-108.48,0-303.381-139-509.51-139Z" transform="translate(0 0.000001)" fill="#201a6c"/><path d="M2050,1372.5c0-180.24-33.46-358.71-98.46-525.233-65.01-166.519-160.28-317.823-280.4-445.271-120.11-127.448-262.7-228.546-419.64-297.521C1094.57,35.5007,926.365,-0.000008,756.5,0s-338.066,35.5008-495.001,104.475C104.564,173.45,-38.0301,274.548,-158.143,401.996c-120.112,127.448-215.391,278.752-280.395,445.271C-503.543,1013.79,-537,1192.26,-537,1372.5h1293.5h1293.5Z" fill="#201a6c"/></mask></g></g></g><mask id="e3oBIdX1SmJ118" mask-type="alpha"><rect width="1512" height="2053" rx="0" ry="0" fill="#c4c4c4"/></mask></g></svg>