<svg id="efbkKegl2911" xmlns="http://www.w3.org/2000/svg" xmlns:xlink="http://www.w3.org/1999/xlink" viewBox="0 0 1151 1879" shape-rendering="geometricPrecision" text-rendering="geometricPrecision"><style><![CDATA[#efbkKegl2912_to {animation: efbkKegl2912_to__to 3000ms linear infinite alternate forwards}@keyframes efbkKegl2912_to__to { 0% {transform: translate(973.968006px,1073.863512px)} 100% {transform: translate(795.716006px,1054.455512px)}} #efbkKegl2913_to {animation: efbkKegl2913_to__to 3000ms linear infinite alternate forwards}@keyframes efbkKegl2913_to__to { 0% {transform: translate(701.87px,1278.800115px)} 100% {transform: translate(879.3725px,1269.865029px)}} #efbkKegl2914_to {animation: efbkKegl2914_to__to 3000ms linear infinite alternate forwards}@keyframes efbkKegl2914_to__to { 0% {transform: translate(843.765505px,1138.415039px)} 100% {transform: translate(637.984005px,1138.415039px)}} #efbkKegl2915_to {animation: efbkKegl2915_to__to 3000ms linear infinite alternate forwards}@keyframes efbkKegl2915_to__to { 0% {transform: translate(617.681px,907.764984px)} 100% {transform: translate(616.043px,1024.389984px)}} #efbkKegl2916_to {animation: efbkKegl2916_to__to 3000ms linear infinite alternate forwards}@keyframes efbkKegl2916_to__to { 0% {transform: translate(264.900992px,841.9235px)} 100% {transform: translate(486.664992px,855.077px)}} #efbkKegl2917_to {animation: efbkKegl2917_to__to 3000ms linear infinite alternate forwards}@keyframes efbkKegl2917_to__to { 0% {transform: translate(899.946017px,805.914496px)} 100% {transform: translate(790.089517px,812.554496px)}} #efbkKegl2918_to {animation: efbkKegl2918_to__to 3000ms linear infinite alternate forwards}@keyframes efbkKegl2918_to__to { 0% {transform: translate(718.914482px,587.455987px)} 100% {transform: translate(547.734482px,587.455987px)}} #efbkKegl29111_to {animation: efbkKegl29111_to__to 3000ms linear infinite alternate forwards}@keyframes efbkKegl29111_to__to { 0% {transform: translate(198.438012px,562.523018px)} 100% {transform: translate(404.562012px,562.491018px)}} #efbkKegl29112_to {animation: efbkKegl29112_to__to 3000ms linear infinite alternate forwards}@keyframes efbkKegl29112_to__to { 0% {transform: translate(409.079495px,729.274506px)} 100% {transform: translate(179.778px,734.402px)}} #efbkKegl29113_to {animation: efbkKegl29113_to__to 3000ms linear infinite alternate forwards}@keyframes efbkKegl29113_to__to { 0% {transform: translate(715.953486px,368.915991px)} 100% {transform: translate(413.574486px,365.691991px)}} #efbkKegl29118_to {animation: efbkKegl29118_to__to 3000ms linear infinite alternate forwards}@keyframes efbkKegl29118_to__to { 0% {transform: translate(899.286006px,191.547508px)} 100% {transform: translate(774.757006px,191.547508px)}} #efbkKegl29119_to {animation: efbkKegl29119_to__to 3000ms linear infinite alternate forwards}@keyframes efbkKegl29119_to__to { 0% {transform: translate(872.522008px,913.89302px)} 100% {transform: translate(738.876008px,970.22052px)}} #efbkKegl29120_to {animation: efbkKegl29120_to__to 3000ms linear infinite alternate forwards}@keyframes efbkKegl29120_to__to { 0% {transform: translate(881.669044px,1284.780619px)} 100% {transform: translate(657.043011px,1283.52999px)}} #efbkKegl29121_to {animation: efbkKegl29121_to__to 3000ms linear infinite alternate forwards}@keyframes efbkKegl29121_to__to { 0% {transform: translate(771.225016px,1488.030029px)} 100% {transform: translate(915.278516px,1488.030029px)}} #efbkKegl29122_to {animation: efbkKegl29122_to__to 3000ms linear infinite alternate forwards}@keyframes efbkKegl29122_to__to { 0% {transform: translate(362.742983px,1102.317017px)} 100% {transform: translate(536.605983px,1015.320017px)}} #efbkKegl29124_to {animation: efbkKegl29124_to__to 3000ms linear infinite alternate forwards}@keyframes efbkKegl29124_to__to { 0% {transform: translate(594.983515px,679.241009px)} 100% {transform: translate(328.446515px,682.852509px)}} #efbkKegl29125_to {animation: efbkKegl29125_to__to 3000ms linear infinite alternate forwards}@keyframes efbkKegl29125_to__to { 0% {transform: translate(570.045496px,734.086px)} 100% {transform: translate(741.002996px,729.2745px)}} #efbkKegl29126_to {animation: efbkKegl29126_to__to 3000ms linear infinite alternate forwards}@keyframes efbkKegl29126_to__to { 0% {transform: translate(969.153486px,532.939986px)} 100% {transform: translate(817.082486px,533.041486px)}} #efbkKegl29127_to {animation: efbkKegl29127_to__to 3000ms linear infinite alternate forwards}@keyframes efbkKegl29127_to__to { 0% {transform: translate(748.405476px,152.278995px)} 100% {transform: translate(753.205476px,364.484495px)}} #efbkKegl29128_to {animation: efbkKegl29128_to__to 3000ms linear infinite alternate forwards}@keyframes efbkKegl29128_to__to { 0% {transform: translate(898.714975px,547.441px)} 100% {transform: translate(901.882975px,392.8825px)}} #efbkKegl29129_to {animation: efbkKegl29129_to__to 3000ms linear infinite alternate forwards}@keyframes efbkKegl29129_to__to { 0% {transform: translate(693.445521px,411.516488px)} 100% {transform: translate(531.744021px,411.516488px)}} #efbkKegl29130_to {animation: efbkKegl29130_to__to 3000ms linear infinite alternate forwards}@keyframes efbkKegl29130_to__to { 0% {transform: translate(469.492993px,556.147992px)} 100% {transform: translate(216.873993px,556.147992px)}} #efbkKegl29131_to {animation: efbkKegl29131_to__to 3000ms linear infinite alternate forwards}@keyframes efbkKegl29131_to__to { 0% {transform: translate(799.043979px,237.348988px)} 100% {transform: translate(585.943979px,237.348988px)}} #efbkKegl29134_to {animation: efbkKegl29134_to__to 3000ms linear infinite alternate forwards}@keyframes efbkKegl29134_to__to { 0% {transform: translate(640.810521px,646.062512px)} 100% {transform: translate(872.894521px,646.062512px)}} #efbkKegl29137_to {animation: efbkKegl29137_to__to 3000ms linear infinite alternate forwards}@keyframes efbkKegl29137_to__to { 0% {transform: translate(816.128021px,1130.464996px)} 100% {transform: translate(554.093021px,1158.534996px)}} #efbkKegl29138_to {animation: efbkKegl29138_to__to 3000ms linear infinite alternate forwards}@keyframes efbkKegl29138_to__to { 0% {transform: translate(860.079993px,1364.834993px)} 100% {transform: translate(600.700993px,1372.894993px)}} #efbkKegl29139_to {animation: efbkKegl29139_to__to 3000ms linear infinite alternate forwards}@keyframes efbkKegl29139_to__to { 0% {transform: translate(828.049496px,1633.244998px)} 100% {transform: translate(938.314996px,1633.244998px)}} #efbkKegl29140_to {animation: efbkKegl29140_to__to 3000ms linear infinite alternate forwards}@keyframes efbkKegl29140_to__to { 0% {transform: translate(767.727498px,1465.204971px)} 100% {transform: translate(767.727498px,1583.674971px)}} #efbkKegl29141_to {animation: efbkKegl29141_to__to 3000ms linear infinite alternate forwards}@keyframes efbkKegl29141_to__to { 0% {transform: translate(933.561002px,1667.150029px)} 100% {transform: translate(869.460002px,1546.510029px)}} #efbkKegl29142_to {animation: efbkKegl29142_to__to 3000ms linear infinite alternate forwards}@keyframes efbkKegl29142_to__to { 0% {transform: translate(634.311507px,1364.590015px)} 100% {transform: translate(879.372507px,1364.590015px)}} #efbkKegl29143_to {animation: efbkKegl29143_to__to 3000ms linear infinite alternate forwards}@keyframes efbkKegl29143_to__to { 0% {transform: translate(956.052011px,1069.303494px)} 100% {transform: translate(836.710511px,1066.140494px)}} #efbkKegl29144_to {animation: efbkKegl29144_to__to 3000ms linear infinite alternate forwards}@keyframes efbkKegl29144_to__to { 0% {transform: translate(547.734508px,1175.670005px)} 100% {transform: translate(362.743508px,1115.520005px)}} #efbkKegl29145_to {animation: efbkKegl29145_to__to 3000ms linear infinite alternate forwards}@keyframes efbkKegl29145_to__to { 0% {transform: translate(470.336487px,914.404999px)} 100% {transform: translate(621.167987px,790.907999px)}} #efbkKegl29146_to {animation: efbkKegl29146_to__to 3000ms linear infinite alternate forwards}@keyframes efbkKegl29146_to__to { 0% {transform: translate(751.351001px,784.229504px)} 100% {transform: translate(367.522001px,804.630004px)}} #efbkKegl29147_to {animation: efbkKegl29147_to__to 3000ms linear infinite alternate forwards}@keyframes efbkKegl29147_to__to { 0% {transform: translate(646.239014px,837.077484px)} 100% {transform: translate(872.522014px,798.861484px)}} #efbkKegl29148_to {animation: efbkKegl29148_to__to 3000ms linear infinite alternate forwards}@keyframes efbkKegl29148_to__to { 0% {transform: translate(788.454014px,677.925511px)} 100% {transform: translate(459.726514px,682.852511px)}} #efbkKegl29149_to {animation: efbkKegl29149_to__to 3000ms linear infinite alternate forwards}@keyframes efbkKegl29149_to__to { 0% {transform: translate(637.597981px,646.062498px)} 100% {transform: translate(627.727981px,480.026498px)}} #efbkKegl29150_to {animation: efbkKegl29150_to__to 3000ms linear infinite alternate forwards}@keyframes efbkKegl29150_to__to { 0% {transform: translate(748.4935px,465.917496px)} 100% {transform: translate(692.6055px,633.820496px)}} #efbkKegl29151_to {animation: efbkKegl29151_to__to 3000ms linear infinite alternate forwards}@keyframes efbkKegl29151_to__to { 0% {transform: translate(559.591004px,524.186992px)} 100% {transform: translate(336.672004px,524.186992px)}} #efbkKegl29152_to {animation: efbkKegl29152_to__to 3000ms linear infinite alternate forwards}@keyframes efbkKegl29152_to__to { 0% {transform: translate(331.774297px,666.578003px)} 100% {transform: translate(155.903297px,666.578003px)}} #efbkKegl29153_to {animation: efbkKegl29153_to__to 3000ms linear infinite alternate forwards}@keyframes efbkKegl29153_to__to { 0% {transform: translate(643.502022px,356.440506px)} 100% {transform: translate(411.025022px,368.916006px)}} #efbkKegl29154_to {animation: efbkKegl29154_to__to 3000ms linear infinite alternate forwards}@keyframes efbkKegl29154_to__to { 0% {transform: translate(957.313971px,1009.208503px)} 100% {transform: translate(842.300471px,945.673003px)}} #efbkKegl29155_to {animation: efbkKegl29155_to__to 3000ms linear infinite alternate forwards}@keyframes efbkKegl29155_to__to { 0% {transform: translate(795.832988px,844.81851px)} 100% {transform: translate(668.278488px,1009.20851px)}} #efbkKegl29156_to {animation: efbkKegl29156_to__to 3000ms linear infinite alternate forwards}@keyframes efbkKegl29156_to__to { 0% {transform: translate(736.916016px,773.957977px)} 100% {transform: translate(936.996016px,773.957977px)}} #efbkKegl29157_to {animation: efbkKegl29157_to__to 3000ms linear infinite alternate forwards}@keyframes efbkKegl29157_to__to { 0% {transform: translate(579.129003px,921.201992px)} 100% {transform: translate(910.985003px,903.882992px)}} #efbkKegl29158_to {animation: efbkKegl29158_to__to 3000ms linear infinite alternate forwards}@keyframes efbkKegl29158_to__to { 0% {transform: translate(723.562003px,836.413492px)} 100% {transform: translate(578.491003px,835.554492px)}} #efbkKegl29159_to {animation: efbkKegl29159_to__to 3000ms linear infinite alternate forwards}@keyframes efbkKegl29159_to__to { 0% {transform: translate(806.367004px,306.875504px)} 100% {transform: translate(733.795004px,452.964004px)}}]]></style><g id="efbkKegl2912_to" transform="translate(973.968006,1073.863512)"><path d="M752.951,1112.89l-75.298-65.17l7.449-73.694l73.03,63.214l12.161-79.135l35.159,62.965l55.078-32.465l59.905,99.455-75.973-33.22l6.872,113.06-60.685,7.77l15.565-96.81-53.263,34.03Z" transform="translate(-799.044006,-1066.887512)" fill="#b80065"/></g><g id="efbkKegl2913_to" transform="translate(701.87,1278.800115)"><path d="M865.058,1317.04l55.835,66.58l37.218,67.92-120.579-26.61-154.304-211.32l65.75,21.21-19.828-98.1l81.064,151.1l29.615-55.3l57.394-.31-44.985-116.69l113.077,16.94-2.916,24.46-47.339,33.61l83.462,72.24-90.199,29.04l60.858,77.27-104.123-52.04Z" transform="translate(-840.875,-1283.530029)" fill="#ef98b8"/></g><g id="efbkKegl2914_to" transform="translate(843.765505,1138.415039)"><path d="M484.629,1119.47l151.454,100.94l45.803-25.42l29.84-34.47-59.871-93.08-112.651-11.02l71.2,37.82-119.474.53l122.443,58.38-128.744-33.68Z" transform="translate(-598.177505,-1138.415039)" fill="#b5168a"/></g><g id="efbkKegl2915_to" transform="translate(617.681,907.764984)"><path d="M635.914,999.686L523.948,1021.79L480.781,865.409l85.038,29.173-97.071-84.022l100.643,45.061-26.575-61.881l107.676,30.518l41.499,3.39l74.623,97.122-38.046,9.121-73.483-63.605L615.43,916.1l56.461,4.438-99.257,45.005l63.28,34.143Z" transform="translate(-617.681,-907.764984)" fill="#fa96b0"/></g><g id="efbkKegl2916_to" transform="translate(264.900992,841.9235)"><path d="M391.963,878.19l31.79,87.024-11.951,76.146-110.11-200.047l77.079-34.05-89.371-48l28.704-109.246l26.388,100.598l67.406-132.876l81.409,26.032l40.81,11.52L635.99,782.348L538,726.889l-19.655,81.374-30.189-41.206-24.295-89.265-46.613,85.018l17.511,65.937l49.286,129.146-92.082-79.703Z" transform="translate(-462.694992,-829.5495)" fill="#fc6e99"/></g><g id="efbkKegl2917_to" transform="translate(899.946017,805.914496)"><path d="M835.732,868.753l-94.327-45.942-97.833-141.808l91.46,100.587l41.364-116.538L893.95,832.659L791.92,791.952l43.812,76.801Z" transform="translate(-768.761017,-766.902496)" fill="#fd18b0"/></g><g id="efbkKegl2918_to" transform="translate(718.914482,587.455987)"><path d="M569.92,638.675l81.131,16.27l73.03,63.212l17.638-68.044l50.286-10.429l13.319-63.055-63.02-6.942-95.257-82.451-96.314,15.021l87.111,57.945-113.367,2.64l45.443,75.833Z" transform="translate(-664.900482,-602.696487)" fill="#d7288f"/></g><path d="M676.474,470.655l67.629,76.786-.072-65.918l44.423-9.155-32.277-93.794-44.835,27.048-45.627-78.372-94.068-18.74L700.031,443.439l-46.267-40.048-22.155,46.68l44.865,20.584Z" fill="#ac0d51"/><path d="M829.954,475.757l51.654,2.658-35.16-62.964-5.3-114.877-39.655,45.813-71.197-79.081-70.5,19.116l50.86,86.075l17.856-59.128l75.983,98.3l25.459,64.088Z" fill="#070a4f"/><g id="efbkKegl29111_to" transform="translate(198.438012,562.523018)"><path d="M461.086,592.078L318.749,570.437L264.901,442.896l170.458-7.179l70.922,28.063l37.942,66.166-60.997-8.364-33.09,7.063l68.04,58.894-13.09,42.624-44-38.085Z" transform="translate(-404.562012,-532.940018)" fill="#fd3775"/></g><g id="efbkKegl29112_to" transform="translate(409.079495,729.274506)"><path d="M259.053,804.406l-7.876,67.766-120.04-178.486l119.86-107.309l85.675,32.104-41.226,47.628-32.985,79.358-51.036,17.713l47.628,41.226Z" transform="translate(-4.603,-734.402)" fill="#fd418a"/></g><g id="efbkKegl29113_to" transform="translate(715.953486,368.915991)"><path d="M528.248,455.817L401.094,402.885l38.252-65.278L548.873,187.236L525.006,345.895l-44.367,51.258l83.376-17.492l33.624,71.156-38.527,14.259-30.864-9.259Z" transform="translate(-499.366486,-326.155991)" fill="#fc8790"/></g><path d="M877.522,758.138l79.632,84.002l45.116-17.286l1.74-64.348-82.031-5.147-44.457,2.779Z" fill="#fc8790"/><path d="M777.494,922.285l49.443,42.796l121.014-49.975-44.453-38.477-61.881,26.575-64.123,19.081Z" fill="#fc8790"/><path d="M743.978,640.168l89.573,127.518l104.764,13.716-4.405-84.745-66.676-98.971L757.48,579.651l49.29,87.89-62.792-27.373Z" fill="#93095e"/><path d="M554.093,749.546L670.215,850.057l125.618,61.125-32.202-69.132L629.308,683.732l-55.283-5.799l82.103,71.065-102.035.548Z" fill="#f76187"/><g id="efbkKegl29118_to" transform="translate(899.286006,191.547508)"><path d="M665.167,225.215l-54.886-47.508L722.49,158.989l91.98-33.848l143.923,43.643-68.092,99.751-68.24,9.171l58.894-68.041-139.867-34.579l54.26,109.648-171.799-11.437l41.618-48.082Z" transform="translate(-784.337006,-204.937508)" fill="#b92281"/></g><g id="efbkKegl29119_to" transform="translate(872.522008,913.89302)"><path d="M671.906,1044.83l-55.863-82.446l26.268-69.251l54.181,79.96l32.227-73.29l17.665,69.919l61.604-17.103L840.11,1064.19l-64.784-51.76L752.7,1123.42l-60.629-8.19l40.093-89.49-60.258,19.09Z" transform="translate(-728.076508,-1008.27652)" fill="#b80065"/></g><g id="efbkKegl29120_to" transform="translate(881.669044,1284.780619)"><path d="M727.356,1271.04l36.7,78.76l18.371,75.24-109.583-56.92-94.353-244.05l58.021,37.5l6.236-99.88l39.196,166.93l42.917-45.75l55.519,14.56-13.25-124.37l104.839,45.64-9.146,22.86-54.424,20.21l61.921,91.39-94.643,4.7l38.785,90.39-87.106-77.21Z" transform="translate(-725.230011,-1243.36499)" fill="#ef98b8"/></g><g id="efbkKegl29121_to" transform="translate(771.225016,1488.030029)"><path d="M921.639,1505.35l25.055,101.15-20.528-30.3-7.74-11.42-44.403-40.93l33.387-29.87-13.709-5.66-1.19,15.76-10.884-20.74-48.66-20.08-19.972-66.91l27.259,40.23-27.294-67.02l69.986,13.45-30.276,45.16l28.957,55.17l12.074,4.98l4.408-58.33l110.901,121.96-87.371-46.6Z" transform="translate(-910.985016,-1488.030029)" fill="#4403b9"/></g><g id="efbkKegl29122_to" transform="translate(362.742983,1102.317017)"><path d="M411.025,981.732L531.193,1118.43l50.821-12.69l37.745-25.58-33.74-105.404-105.96-39.802l58.985,54.965-115.54-30.412l103.162,88.073-115.641-65.848Z" transform="translate(-515.391983,-1026.692017)" fill="#b5168a"/></g><path d="M588.158,905.188L474.287,897.56l-1.222-162.225l74.59,50.188-72.017-106.282l85.551,69.574-9.654-66.651l96.109,57.347l39.208,14.015l46.943,113.127-39.11-1.037-54.518-80.457-50.161,33.99l53.388,18.899L535.871,855.83l52.287,49.358Z" fill="#fa96b0"/><g id="efbkKegl29124_to" transform="translate(594.983515,679.241009)"><path d="M383.963,724.691l8.183,92.287-31.25,70.453-54.584-221.725l83.266-12.94-73.903-69.495l56.002-98.095-.548,104l99.5-110.902l71.897,46.215l36.437,21.69l65.518,149.095-80.297-78.932-40.047,73.515-18.495-47.616-.364-92.512-67.029,70.057-.151,68.223l14.18,137.501-68.315-100.819Z" transform="translate(-475.396515,-682.852509)" fill="#fc6e99"/></g><g id="efbkKegl29125_to" transform="translate(570.045496,734.086)"><path d="M815.055,830.432l-79.223-68.79-57.796-162.298l62.309,120.832l70.117-101.862l70.169,192.322-88.018-65.728l22.442,85.524Z" transform="translate(-779.333496,-714.888)" fill="#fd18b0"/></g><g id="efbkKegl29126_to" transform="translate(969.153486,532.939986)"><path d="M617.849,539.397l74.155,36.714l54.181,79.96l34.648-61.161l51.272,2.942l29.185-57.46-59.076-23.016L731.543,413.08l-96.92-10.418l69.146,78.516-110.188-26.792l24.268,85.011Z" transform="translate(-727.435486,-529.366486)" fill="#d7288f"/></g><g id="efbkKegl29127_to" transform="translate(748.405476,152.278995)"><path d="M764.259,404.68l45.45,91.674l16.992-63.691l45.279,2.654-6.902-98.952-50.308,14.523-23.788-87.511-86.012-42.448l89.087,163.56-34.325-50.658-33.482,39.354l38.009,31.495Z" transform="translate(-788.474976,-358.641495)" fill="#ac0d51"/></g><g id="efbkKegl29128_to" transform="translate(898.714975,547.441)"><path d="M911.188,449.332l49.207,15.936-17.666-69.919l24.613-112.334-50.162,33.989-48.302-94.813-73.046.217l26.85,96.306l32.55-52.493l47.953,114.617l8.003,68.494Z" transform="translate(-881.586975,-343.7295)" fill="#070a4f"/></g><g id="efbkKegl29129_to" transform="translate(693.445521,411.516488)"><path d="M524.783,466.219L392.897,408.476L373.894,271.344l166.507,37.183l61.243,45.463l19.524,73.732-56.754-23.866-33.791-1.742l50.479,74.497-23.676,37.783-32.643-48.175Z" transform="translate(-497.531021,-392.868988)" fill="#fd3775"/></g><g id="efbkKegl29130_to" transform="translate(469.492993,556.147992)"><path d="M274.679,619.022l-25.147,63.419-69.754-203.473l143.55-72.631l74.446,53.185-52.148,35.335-52.4,68.117-53.882,3.9l35.335,52.148Z" transform="translate(-288.775993,-544.388992)" fill="#fd418a"/></g><g id="efbkKegl29131_to" transform="translate(799.043979,237.348988)"><path d="M624.922,351.984L515.8,267.945l53.844-53.152l144.714-116.9L650.24,244.969l-56.121,38.027l85.062,4.684l14.061,77.434-40.904,3.802-27.416-16.932Z" transform="translate(-615.078979,-233.404488)" fill="#fc8790"/></g><path d="M884.049,734.402l55.177,101.75l48.05-5.021l18.334-61.704-77.9-26.202-43.661-8.823Z" fill="#fc8790"/><path d="M744.944,867.067l36.682,54.135L911.452,904.25l-32.98-48.671-66.651,9.653-66.877,1.835Z" fill="#fc8790"/><g id="efbkKegl29134_to" transform="translate(640.810521,646.062512)"><path d="M785.59,585.889l53.516,146.356l97.645,40.364l17.678-82.998-38.788-112.855-101.346-45.827l24.863,97.652-53.568-42.692Z" transform="translate(-870.009521,-651.769012)" fill="#93095e"/></g><path d="M573.866,642.394l86.152,127.142L765.535,861.09l-13.211-75.111L663.553,598.29l-51.898-19.909l60.911,89.893-98.7-25.88Z" fill="#f76187"/><path d="M573.866,642.394l86.152,127.142L765.535,861.09l-13.211-75.111L663.553,598.29l-51.898-19.909l60.911,89.893-98.7-25.88Z" fill="#f76187"/><g id="efbkKegl29137_to" transform="translate(816.128021,1130.464996)"><path d="M538.814,1167.02l-55.864-82.45l26.268-69.25l54.181,79.96l32.227-73.29l17.666,69.92l61.603-17.1l32.122,111.57-64.784-51.76-22.626,110.99-60.629-8.19l40.093-89.49-60.257,19.09Z" transform="translate(-594.983521,-1130.464996)" fill="#b80065"/></g><g id="efbkKegl29138_to" transform="translate(860.079993,1364.834993)"><path d="M594.262,1393.23l36.701,78.76l18.37,75.24-109.582-56.92-94.353-244.05l58.021,37.5l6.236-99.88l39.195,166.93l42.918-45.75l55.518,14.55-13.249-124.36l104.839,45.64-9.146,22.86-54.425,20.21l61.921,91.38-94.643,4.71l38.785,90.39-87.106-77.21Z" transform="translate(-592.136993,-1365.554993)" fill="#ef98b8"/></g><g id="efbkKegl29139_to" transform="translate(828.049496,1633.244998)"><path d="M850.56,1576.82l47.787,70.53l20.107-3.48l11.779,17.38-27.685,13.69l4.378,28.92l16.324-19.76l29.956-43.49-34.567-60.64-41.518-33.46l33.59,63.47-25.844-7.12-34.307-26.04Z" transform="translate(-901.882996,-1625.184998)" fill="#015486"/></g><g id="efbkKegl29140_to" transform="translate(767.727498,1465.204971)"><path d="M788.544,1627.54L813.6,1728.69l-20.529-30.3-7.74-11.42-44.402-40.93l33.386-29.87-13.709-5.66-1.19,15.76-10.883-20.74-48.661-20.08-19.972-66.91l27.259,40.23-27.294-67.02l69.987,13.45-30.277,45.16l28.958,55.17l12.073,4.98l4.408-58.33l110.905,121.96-87.375-46.6Z" transform="translate(-777.891998,-1610.219971)" fill="#4403b9"/></g><g id="efbkKegl29141_to" transform="translate(933.561002,1667.150029)"><path d="M894.236,1830.58l31.327,28.05l13.809-22.4l10.095,14.9l5.925-30.83l30.827,5.93l5.385,7.94l7.365-38.32l15.001,2.88l10.88-56.66-65.553,44.42-16.826-24.83l13.45-69.98-106.779,72.35l24.995,4.8l34.999,51.65-14.9,10.1Z" transform="translate(-936.996002,-1775.155029)" fill="#f4057d"/></g><g id="efbkKegl29142_to" transform="translate(634.311507,1364.590015)"><path d="M800.368,1496.34l-112.21-52.24l64.087-18.78l42.711-28.95l12.913-8.75-45.081-86.85l97.513-109.55l75.322,14.91-100.64,92.1l129.826-16.95l31.634,46.69-29.799,20.19l25.774,86.16-160.232-87.81l82.449,121.68l20.455,86.87-47.464-49.73-135.381-80.01l48.123,71.02Z" transform="translate(-842.300507,-1373.140015)" fill="#5591a9"/></g><g id="efbkKegl29143_to" transform="translate(956.052011,1069.303494)"><path d="M837.219,1109.03l-104.54,38.22-25.234-124.94l79.369,88.26l28.775-133.996l45.431,67.046-1.978-63.879l84.611-10.954l19.5,136.793-66.084-69.72-4.171,86.89-55.679-13.72Z" transform="translate(-835.299011,-1058.018494)" fill="#93095e"/></g><g id="efbkKegl29144_to" transform="translate(547.734508,1175.670005)"><path d="M277.932,1103.92l120.167,136.7l50.821-12.69l37.745-25.58-33.74-105.4-105.96-39.81l58.985,54.97-115.54-30.41l103.162,88.07-115.64-65.85Z" transform="translate(-382.298508,-1148.880005)" fill="#b5168a"/></g><g id="efbkKegl29145_to" transform="translate(470.336487,914.404999)"><path d="M455.064,1027.38l-113.871-7.63-1.221-162.226l74.589,50.188L342.544,801.43l85.551,69.574-9.653-66.652L514.55,861.7l39.208,14.014l46.943,113.127-39.11-1.036-54.518-80.457-50.161,33.989l53.388,18.9-107.522,17.782l52.286,49.361Z" transform="translate(-470.336487,-914.404999)" fill="#fa96b0"/></g><g id="efbkKegl29146_to" transform="translate(751.351001,784.229504)"><path d="M250.87,846.88l8.183,92.286-31.25,70.454L173.22,787.895l83.265-12.94-73.903-69.495l56.002-98.095-.548,104l99.5-110.902l71.897,46.216l36.438,21.689l65.517,149.095-80.297-78.932-40.047,73.515-18.495-47.616-.364-92.512-67.028,70.058-.152,68.222l14.181,137.501L250.87,846.88Z" transform="translate(-342.304001,-805.041504)" fill="#fc6e99"/></g><g id="efbkKegl29147_to" transform="translate(646.239014,837.077484)"><path d="M681.96,952.621l-79.222-68.789-57.796-162.298l62.309,120.831l70.116-101.862l70.169,192.322-88.018-65.728l22.442,85.524Z" transform="translate(-646.239014,-837.077484)" fill="#fd18b0"/></g><g id="efbkKegl29148_to" transform="translate(788.454014,677.925511)"><path d="M484.756,661.586L558.911,698.3l54.181,79.96l34.649-61.161l51.271,2.942l29.185-57.46-59.076-23.016L598.45,535.269l-96.92-10.418l69.146,78.516-110.188-26.792l24.268,85.011Z" transform="translate(-594.342514,-651.555511)" fill="#d7288f"/></g><g id="efbkKegl29149_to" transform="translate(637.597981,646.062498)"><path d="M631.165,526.868l45.45,91.674l16.992-63.691l45.279,2.655-6.902-98.953-50.308,14.523-23.788-87.511-86.012-42.448l89.088,163.56-34.326-50.658-33.482,39.354l38.009,31.495Z" transform="translate(-655.380981,-480.829498)" fill="#ac0d51"/></g><g id="efbkKegl29150_to" transform="translate(748.4935,465.917496)"><path d="M778.095,571.521l49.206,15.935-17.665-69.918l24.612-112.335-50.161,33.989-48.303-94.813-73.045.217l26.849,96.306l32.55-52.492l47.953,114.617l8.004,68.494Z" transform="translate(-748.4935,-465.917496)" fill="#070a4f"/></g><g id="efbkKegl29151_to" transform="translate(559.591004,524.186992)"><path d="M391.689,588.408L259.803,530.664L240.8,393.532l166.507,37.183l61.243,45.463l19.524,73.732-56.754-23.866-33.791-1.742l50.48,74.497-23.677,37.783-32.643-48.174Z" transform="translate(-364.437004,-515.056992)" fill="#fd3775"/></g><g id="efbkKegl29152_to" transform="translate(331.774297,666.578003)"><path d="M141.585,741.211L116.438,804.63L46.6846,601.156l143.5504-72.63L264.68,581.71l-52.148,35.336-52.4,68.117-53.882,3.9l35.335,52.148Z" transform="translate(-155.682297,-666.578003)" fill="#fd418a"/></g><g id="efbkKegl29153_to" transform="translate(643.502022,356.440506)"><path d="M491.83,474.173L382.709,390.134l53.844-53.152l144.714-116.9-64.119,147.076-56.121,38.027l85.062,4.684l14.062,77.434-40.905,3.802-27.416-16.932Z" transform="translate(-481.988022,-355.593506)" fill="#fc8790"/></g><g id="efbkKegl29154_to" transform="translate(957.313971,1009.208503)"><path d="M750.957,856.591l55.177,101.75l48.05-5.021l18.338-61.704-77.904-26.202-43.661-8.823Z" transform="translate(-811.739471,-907.466003)" fill="#fc8790"/></g><g id="efbkKegl29155_to" transform="translate(795.832988,844.81851)"><path d="M611.852,989.256l36.682,54.134l129.826-16.95-32.98-48.672-66.651,9.653-66.877,1.835Z" transform="translate(-695.105988,-1010.57901)" fill="#fc8790"/></g><g id="efbkKegl29156_to" transform="translate(736.916016,773.957977)"><path d="M652.497,708.078l53.516,146.356l97.644,40.364L821.335,811.8L782.548,698.945L681.201,653.118l24.863,97.652-53.567-42.692Z" transform="translate(-736.916016,-773.957977)" fill="#93095e"/></g><g id="efbkKegl29157_to" transform="translate(579.129003,921.201992)"><path d="M440.772,764.583l86.151,127.141L632.44,983.278l-13.211-75.11-88.77-187.69-51.899-19.909l60.912,89.893-98.7-25.879Z" transform="translate(-536.606003,-841.923492)" fill="#f76187"/></g><g id="efbkKegl29158_to" transform="translate(723.562003,836.413492)"><path d="M440.772,764.583l86.151,127.141L632.44,983.278l-13.211-75.11-88.77-187.69-51.899-19.909l60.912,89.893-98.7-25.879Z" transform="translate(-536.606003,-841.923492)" fill="#f76187"/></g><g id="efbkKegl29159_to" transform="translate(806.367004,306.875504)"><path d="M683.769,286.866L643.05,226.772l113.23,10.961l97.606-8.888l127.723,79.406-91.589,78.728-68.288-8.803l74.497-50.48-126.152-69.6L794.11,378.051L631.125,322.538l52.644-35.672Z" transform="translate(-806.367004,-306.875504)" fill="#b92281"/></g></svg>