<svg width="21" height="21" viewBox="0 0 21 21" fill="none" xmlns="http://www.w3.org/2000/svg">
<path d="M15.437 12.2816C15.2274 12.4847 15.1311 12.7785 15.1789 13.0666L15.8983 17.0481C15.959 17.3856 15.8166 17.7271 15.5341 17.9221C15.2574 18.1244 14.8892 18.1487 14.5873 17.9868L11.0031 16.1175C10.8785 16.0511 10.7401 16.0155 10.5985 16.0115H10.3792C10.3031 16.0228 10.2287 16.0471 10.1607 16.0843L6.57574 17.9626C6.39852 18.0516 6.19782 18.0831 6.00118 18.0516C5.5221 17.9609 5.20245 17.5045 5.28095 17.023L6.00118 13.0415C6.04892 12.751 5.95262 12.4556 5.74303 12.2493L2.82083 9.41689C2.57644 9.17978 2.49147 8.82371 2.60314 8.50244C2.71158 8.18197 2.98834 7.9481 3.32256 7.8955L7.34453 7.31203C7.65042 7.28047 7.9191 7.09434 8.05667 6.8192L9.82892 3.18567C9.871 3.10475 9.92522 3.0303 9.99077 2.96718L10.0636 2.91053C10.1016 2.86845 10.1453 2.83365 10.1939 2.80533L10.2821 2.77296L10.4197 2.71631H10.7604C11.0646 2.74787 11.3325 2.92995 11.4725 3.20186L13.2682 6.8192C13.3977 7.08382 13.6494 7.26752 13.9399 7.31203L17.9619 7.8955C18.3018 7.94405 18.5858 8.17874 18.6983 8.50244C18.8043 8.82694 18.7129 9.18301 18.4636 9.41689L15.437 12.2816Z" fill="#F9587A"/>
</svg>
