<svg width="1335" height="1001" viewBox="0 0 1335 1001" fill="none" xmlns="http://www.w3.org/2000/svg">
<rect x="667.047" y="152.403" width="76.7964" height="76.7964" transform="rotate(-60 667.047 152.403)" fill="#EAE8F4"/>
<circle cx="214" cy="214" r="214" fill="#EAE8F4"/>
<circle cx="16.5" cy="678.5" r="7.5" fill="#E9E6F5"/>
<circle cx="16.5" cy="713.5" r="7.5" fill="#E9E6F5"/>
<circle cx="16.5" cy="748.5" r="7.5" fill="#E9E6F5"/>
<circle cx="16.5" cy="783.5" r="7.5" fill="#E9E6F5"/>
<circle cx="16.5" cy="818.5" r="7.5" fill="#E9E6F5"/>
<circle cx="16.5" cy="853.5" r="7.5" fill="#E9E6F5"/>
<circle cx="16.5" cy="888.5" r="7.5" fill="#E9E6F5"/>
<circle cx="16.5" cy="923.5" r="7.5" fill="#E9E6F5"/>
<circle cx="16.5" cy="958.5" r="7.5" fill="#E9E6F5"/>
<circle cx="16.5" cy="993.5" r="7.5" fill="#E9E6F5"/>
<circle cx="51.5" cy="678.5" r="7.5" fill="#E9E6F5"/>
<circle cx="51.5" cy="713.5" r="7.5" fill="#E9E6F5"/>
<circle cx="51.5" cy="748.5" r="7.5" fill="#E9E6F5"/>
<circle cx="51.5" cy="783.5" r="7.5" fill="#E9E6F5"/>
<circle cx="51.5" cy="818.5" r="7.5" fill="#E9E6F5"/>
<circle cx="51.5" cy="853.5" r="7.5" fill="#E9E6F5"/>
<circle cx="51.5" cy="888.5" r="7.5" fill="#E9E6F5"/>
<circle cx="51.5" cy="923.5" r="7.5" fill="#E9E6F5"/>
<circle cx="51.5" cy="958.5" r="7.5" fill="#E9E6F5"/>
<circle cx="51.5" cy="993.5" r="7.5" fill="#E9E6F5"/>
<circle cx="86.5" cy="678.5" r="7.5" fill="#E9E6F5"/>
<circle cx="86.5" cy="713.5" r="7.5" fill="#E9E6F5"/>
<circle cx="86.5" cy="748.5" r="7.5" fill="#E9E6F5"/>
<circle cx="86.5" cy="783.5" r="7.5" fill="#E9E6F5"/>
<circle cx="86.5" cy="818.5" r="7.5" fill="#E9E6F5"/>
<circle cx="86.5" cy="853.5" r="7.5" fill="#E9E6F5"/>
<circle cx="86.5" cy="888.5" r="7.5" fill="#E9E6F5"/>
<circle cx="86.5" cy="923.5" r="7.5" fill="#E9E6F5"/>
<circle cx="86.5" cy="958.5" r="7.5" fill="#E9E6F5"/>
<circle cx="86.5" cy="993.5" r="7.5" fill="#E9E6F5"/>
<circle cx="121.5" cy="678.5" r="7.5" fill="#E9E6F5"/>
<circle cx="121.5" cy="713.5" r="7.5" fill="#E9E6F5"/>
<circle cx="121.5" cy="748.5" r="7.5" fill="#E9E6F5"/>
<circle cx="121.5" cy="783.5" r="7.5" fill="#E9E6F5"/>
<circle cx="121.5" cy="818.5" r="7.5" fill="#E9E6F5"/>
<circle cx="121.5" cy="853.5" r="7.5" fill="#E9E6F5"/>
<circle cx="121.5" cy="888.5" r="7.5" fill="#E9E6F5"/>
<circle cx="121.5" cy="923.5" r="7.5" fill="#E9E6F5"/>
<circle cx="121.5" cy="958.5" r="7.5" fill="#E9E6F5"/>
<circle cx="121.5" cy="993.5" r="7.5" fill="#E9E6F5"/>
<circle cx="156.5" cy="678.5" r="7.5" fill="#E9E6F5"/>
<circle cx="156.5" cy="713.5" r="7.5" fill="#E9E6F5"/>
<circle cx="156.5" cy="748.5" r="7.5" fill="#E9E6F5"/>
<circle cx="156.5" cy="783.5" r="7.5" fill="#E9E6F5"/>
<circle cx="156.5" cy="818.5" r="7.5" fill="#E9E6F5"/>
<circle cx="156.5" cy="853.5" r="7.5" fill="#E9E6F5"/>
<circle cx="156.5" cy="888.5" r="7.5" fill="#E9E6F5"/>
<circle cx="156.5" cy="923.5" r="7.5" fill="#E9E6F5"/>
<circle cx="156.5" cy="958.5" r="7.5" fill="#E9E6F5"/>
<circle cx="156.5" cy="993.5" r="7.5" fill="#E9E6F5"/>
<circle cx="191.5" cy="678.5" r="7.5" fill="#E9E6F5"/>
<circle cx="191.5" cy="713.5" r="7.5" fill="#E9E6F5"/>
<circle cx="191.5" cy="748.5" r="7.5" fill="#E9E6F5"/>
<circle cx="191.5" cy="783.5" r="7.5" fill="#E9E6F5"/>
<circle cx="191.5" cy="818.5" r="7.5" fill="#E9E6F5"/>
<circle cx="191.5" cy="853.5" r="7.5" fill="#E9E6F5"/>
<circle cx="191.5" cy="888.5" r="7.5" fill="#E9E6F5"/>
<circle cx="191.5" cy="923.5" r="7.5" fill="#E9E6F5"/>
<circle cx="191.5" cy="958.5" r="7.5" fill="#E9E6F5"/>
<circle cx="191.5" cy="993.5" r="7.5" fill="#E9E6F5"/>
<circle cx="226.5" cy="678.5" r="7.5" fill="#E9E6F5"/>
<circle cx="226.5" cy="713.5" r="7.5" fill="#E9E6F5"/>
<circle cx="226.5" cy="748.5" r="7.5" fill="#E9E6F5"/>
<circle cx="226.5" cy="783.5" r="7.5" fill="#E9E6F5"/>
<circle cx="226.5" cy="818.5" r="7.5" fill="#E9E6F5"/>
<circle cx="226.5" cy="853.5" r="7.5" fill="#E9E6F5"/>
<circle cx="226.5" cy="888.5" r="7.5" fill="#E9E6F5"/>
<circle cx="226.5" cy="923.5" r="7.5" fill="#E9E6F5"/>
<circle cx="226.5" cy="958.5" r="7.5" fill="#E9E6F5"/>
<circle cx="226.5" cy="993.5" r="7.5" fill="#E9E6F5"/>
<circle cx="261.5" cy="678.5" r="7.5" fill="#E9E6F5"/>
<circle cx="261.5" cy="713.5" r="7.5" fill="#E9E6F5"/>
<circle cx="261.5" cy="748.5" r="7.5" fill="#E9E6F5"/>
<circle cx="261.5" cy="783.5" r="7.5" fill="#E9E6F5"/>
<circle cx="261.5" cy="818.5" r="7.5" fill="#E9E6F5"/>
<circle cx="261.5" cy="853.5" r="7.5" fill="#E9E6F5"/>
<circle cx="261.5" cy="888.5" r="7.5" fill="#E9E6F5"/>
<circle cx="261.5" cy="923.5" r="7.5" fill="#E9E6F5"/>
<circle cx="261.5" cy="958.5" r="7.5" fill="#E9E6F5"/>
<circle cx="261.5" cy="993.5" r="7.5" fill="#E9E6F5"/>
<circle cx="296.5" cy="678.5" r="7.5" fill="#E9E6F5"/>
<circle cx="296.5" cy="713.5" r="7.5" fill="#E9E6F5"/>
<circle cx="296.5" cy="748.5" r="7.5" fill="#E9E6F5"/>
<circle cx="296.5" cy="783.5" r="7.5" fill="#E9E6F5"/>
<circle cx="296.5" cy="818.5" r="7.5" fill="#E9E6F5"/>
<circle cx="296.5" cy="853.5" r="7.5" fill="#E9E6F5"/>
<circle cx="296.5" cy="888.5" r="7.5" fill="#E9E6F5"/>
<circle cx="296.5" cy="923.5" r="7.5" fill="#E9E6F5"/>
<circle cx="296.5" cy="958.5" r="7.5" fill="#E9E6F5"/>
<circle cx="296.5" cy="993.5" r="7.5" fill="#E9E6F5"/>
<circle cx="331.5" cy="678.5" r="7.5" fill="#E9E6F5"/>
<circle cx="331.5" cy="713.5" r="7.5" fill="#E9E6F5"/>
<circle cx="331.5" cy="748.5" r="7.5" fill="#E9E6F5"/>
<circle cx="331.5" cy="783.5" r="7.5" fill="#E9E6F5"/>
<circle cx="331.5" cy="818.5" r="7.5" fill="#E9E6F5"/>
<circle cx="331.5" cy="853.5" r="7.5" fill="#E9E6F5"/>
<circle cx="331.5" cy="888.5" r="7.5" fill="#E9E6F5"/>
<circle cx="331.5" cy="923.5" r="7.5" fill="#E9E6F5"/>
<circle cx="331.5" cy="958.5" r="7.5" fill="#E9E6F5"/>
<circle cx="331.5" cy="993.5" r="7.5" fill="#E9E6F5"/>
<circle cx="366.5" cy="678.5" r="7.5" fill="#E9E6F5"/>
<circle cx="366.5" cy="713.5" r="7.5" fill="#E9E6F5"/>
<circle cx="366.5" cy="748.5" r="7.5" fill="#E9E6F5"/>
<circle cx="366.5" cy="783.5" r="7.5" fill="#E9E6F5"/>
<circle cx="366.5" cy="818.5" r="7.5" fill="#E9E6F5"/>
<circle cx="366.5" cy="853.5" r="7.5" fill="#E9E6F5"/>
<circle cx="366.5" cy="888.5" r="7.5" fill="#E9E6F5"/>
<circle cx="366.5" cy="923.5" r="7.5" fill="#E9E6F5"/>
<circle cx="366.5" cy="958.5" r="7.5" fill="#E9E6F5"/>
<circle cx="366.5" cy="993.5" r="7.5" fill="#E9E6F5"/>
<circle cx="401.5" cy="678.5" r="7.5" fill="#E9E6F5"/>
<circle cx="401.5" cy="713.5" r="7.5" fill="#E9E6F5"/>
<circle cx="401.5" cy="748.5" r="7.5" fill="#E9E6F5"/>
<circle cx="401.5" cy="783.5" r="7.5" fill="#E9E6F5"/>
<circle cx="401.5" cy="818.5" r="7.5" fill="#E9E6F5"/>
<circle cx="401.5" cy="853.5" r="7.5" fill="#E9E6F5"/>
<circle cx="401.5" cy="888.5" r="7.5" fill="#E9E6F5"/>
<circle cx="401.5" cy="923.5" r="7.5" fill="#E9E6F5"/>
<circle cx="401.5" cy="958.5" r="7.5" fill="#E9E6F5"/>
<circle cx="401.5" cy="993.5" r="7.5" fill="#E9E6F5"/>
<circle cx="436.5" cy="678.5" r="7.5" fill="#E9E6F5"/>
<circle cx="436.5" cy="713.5" r="7.5" fill="#E9E6F5"/>
<circle cx="436.5" cy="748.5" r="7.5" fill="#E9E6F5"/>
<circle cx="436.5" cy="783.5" r="7.5" fill="#E9E6F5"/>
<circle cx="436.5" cy="818.5" r="7.5" fill="#E9E6F5"/>
<circle cx="436.5" cy="853.5" r="7.5" fill="#E9E6F5"/>
<circle cx="436.5" cy="888.5" r="7.5" fill="#E9E6F5"/>
<circle cx="436.5" cy="923.5" r="7.5" fill="#E9E6F5"/>
<circle cx="436.5" cy="958.5" r="7.5" fill="#E9E6F5"/>
<circle cx="436.5" cy="993.5" r="7.5" fill="#E9E6F5"/>
<circle cx="471.5" cy="678.5" r="7.5" fill="#E9E6F5"/>
<circle cx="471.5" cy="713.5" r="7.5" fill="#E9E6F5"/>
<circle cx="471.5" cy="748.5" r="7.5" fill="#E9E6F5"/>
<circle cx="471.5" cy="783.5" r="7.5" fill="#E9E6F5"/>
<circle cx="471.5" cy="818.5" r="7.5" fill="#E9E6F5"/>
<circle cx="471.5" cy="853.5" r="7.5" fill="#E9E6F5"/>
<circle cx="471.5" cy="888.5" r="7.5" fill="#E9E6F5"/>
<circle cx="471.5" cy="923.5" r="7.5" fill="#E9E6F5"/>
<circle cx="471.5" cy="958.5" r="7.5" fill="#E9E6F5"/>
<circle cx="471.5" cy="993.5" r="7.5" fill="#E9E6F5"/>
<circle cx="506.5" cy="678.5" r="7.5" fill="#E9E6F5"/>
<circle cx="506.5" cy="713.5" r="7.5" fill="#E9E6F5"/>
<circle cx="506.5" cy="748.5" r="7.5" fill="#E9E6F5"/>
<circle cx="506.5" cy="783.5" r="7.5" fill="#E9E6F5"/>
<circle cx="506.5" cy="818.5" r="7.5" fill="#E9E6F5"/>
<circle cx="506.5" cy="853.5" r="7.5" fill="#E9E6F5"/>
<circle cx="506.5" cy="888.5" r="7.5" fill="#E9E6F5"/>
<circle cx="506.5" cy="923.5" r="7.5" fill="#E9E6F5"/>
<circle cx="506.5" cy="958.5" r="7.5" fill="#E9E6F5"/>
<circle cx="506.5" cy="993.5" r="7.5" fill="#E9E6F5"/>
<circle cx="1012" cy="811" r="7.5" transform="rotate(-90 1012 811)" fill="#E9E6F5"/>
<circle cx="1047" cy="811" r="7.5" transform="rotate(-90 1047 811)" fill="#E9E6F5"/>
<circle cx="1082" cy="811" r="7.5" transform="rotate(-90 1082 811)" fill="#E9E6F5"/>
<circle cx="1117" cy="811" r="7.5" transform="rotate(-90 1117 811)" fill="#E9E6F5"/>
<circle cx="1152" cy="811" r="7.5" transform="rotate(-90 1152 811)" fill="#E9E6F5"/>
<circle cx="1187" cy="811" r="7.5" transform="rotate(-90 1187 811)" fill="#E9E6F5"/>
<circle cx="1222" cy="811" r="7.5" transform="rotate(-90 1222 811)" fill="#E9E6F5"/>
<circle cx="1257" cy="811" r="7.5" transform="rotate(-90 1257 811)" fill="#E9E6F5"/>
<circle cx="1292" cy="811" r="7.5" transform="rotate(-90 1292 811)" fill="#E9E6F5"/>
<circle cx="1327" cy="811" r="7.5" transform="rotate(-90 1327 811)" fill="#E9E6F5"/>
<circle cx="1012" cy="776" r="7.5" transform="rotate(-90 1012 776)" fill="#E9E6F5"/>
<circle cx="1047" cy="776" r="7.5" transform="rotate(-90 1047 776)" fill="#E9E6F5"/>
<circle cx="1082" cy="776" r="7.5" transform="rotate(-90 1082 776)" fill="#E9E6F5"/>
<circle cx="1117" cy="776" r="7.5" transform="rotate(-90 1117 776)" fill="#E9E6F5"/>
<circle cx="1152" cy="776" r="7.5" transform="rotate(-90 1152 776)" fill="#E9E6F5"/>
<circle cx="1187" cy="776" r="7.5" transform="rotate(-90 1187 776)" fill="#E9E6F5"/>
<circle cx="1222" cy="776" r="7.5" transform="rotate(-90 1222 776)" fill="#E9E6F5"/>
<circle cx="1257" cy="776" r="7.5" transform="rotate(-90 1257 776)" fill="#E9E6F5"/>
<circle cx="1292" cy="776" r="7.5" transform="rotate(-90 1292 776)" fill="#E9E6F5"/>
<circle cx="1327" cy="776" r="7.5" transform="rotate(-90 1327 776)" fill="#E9E6F5"/>
<circle cx="1012" cy="741" r="7.5" transform="rotate(-90 1012 741)" fill="#E9E6F5"/>
<circle cx="1047" cy="741" r="7.5" transform="rotate(-90 1047 741)" fill="#E9E6F5"/>
<circle cx="1082" cy="741" r="7.5" transform="rotate(-90 1082 741)" fill="#E9E6F5"/>
<circle cx="1117" cy="741" r="7.5" transform="rotate(-90 1117 741)" fill="#E9E6F5"/>
<circle cx="1152" cy="741" r="7.5" transform="rotate(-90 1152 741)" fill="#E9E6F5"/>
<circle cx="1187" cy="741" r="7.5" transform="rotate(-90 1187 741)" fill="#E9E6F5"/>
<circle cx="1222" cy="741" r="7.5" transform="rotate(-90 1222 741)" fill="#E9E6F5"/>
<circle cx="1257" cy="741" r="7.5" transform="rotate(-90 1257 741)" fill="#E9E6F5"/>
<circle cx="1292" cy="741" r="7.5" transform="rotate(-90 1292 741)" fill="#E9E6F5"/>
<circle cx="1327" cy="741" r="7.5" transform="rotate(-90 1327 741)" fill="#E9E6F5"/>
<circle cx="1012" cy="706" r="7.5" transform="rotate(-90 1012 706)" fill="#E9E6F5"/>
<circle cx="1047" cy="706" r="7.5" transform="rotate(-90 1047 706)" fill="#E9E6F5"/>
<circle cx="1082" cy="706" r="7.5" transform="rotate(-90 1082 706)" fill="#E9E6F5"/>
<circle cx="1117" cy="706" r="7.5" transform="rotate(-90 1117 706)" fill="#E9E6F5"/>
<circle cx="1152" cy="706" r="7.5" transform="rotate(-90 1152 706)" fill="#E9E6F5"/>
<circle cx="1187" cy="706" r="7.5" transform="rotate(-90 1187 706)" fill="#E9E6F5"/>
<circle cx="1222" cy="706" r="7.5" transform="rotate(-90 1222 706)" fill="#E9E6F5"/>
<circle cx="1257" cy="706" r="7.5" transform="rotate(-90 1257 706)" fill="#E9E6F5"/>
<circle cx="1292" cy="706" r="7.5" transform="rotate(-90 1292 706)" fill="#E9E6F5"/>
<circle cx="1327" cy="706" r="7.5" transform="rotate(-90 1327 706)" fill="#E9E6F5"/>
<circle cx="1012" cy="671" r="7.5" transform="rotate(-90 1012 671)" fill="#E9E6F5"/>
<circle cx="1047" cy="671" r="7.5" transform="rotate(-90 1047 671)" fill="#E9E6F5"/>
<circle cx="1082" cy="671" r="7.5" transform="rotate(-90 1082 671)" fill="#E9E6F5"/>
<circle cx="1117" cy="671" r="7.5" transform="rotate(-90 1117 671)" fill="#E9E6F5"/>
<circle cx="1152" cy="671" r="7.5" transform="rotate(-90 1152 671)" fill="#E9E6F5"/>
<circle cx="1187" cy="671" r="7.5" transform="rotate(-90 1187 671)" fill="#E9E6F5"/>
<circle cx="1222" cy="671" r="7.5" transform="rotate(-90 1222 671)" fill="#E9E6F5"/>
<circle cx="1257" cy="671" r="7.5" transform="rotate(-90 1257 671)" fill="#E9E6F5"/>
<circle cx="1292" cy="671" r="7.5" transform="rotate(-90 1292 671)" fill="#E9E6F5"/>
<circle cx="1327" cy="671" r="7.5" transform="rotate(-90 1327 671)" fill="#E9E6F5"/>
<circle cx="1012" cy="636" r="7.5" transform="rotate(-90 1012 636)" fill="#E9E6F5"/>
<circle cx="1047" cy="636" r="7.5" transform="rotate(-90 1047 636)" fill="#E9E6F5"/>
<circle cx="1082" cy="636" r="7.5" transform="rotate(-90 1082 636)" fill="#E9E6F5"/>
<circle cx="1117" cy="636" r="7.5" transform="rotate(-90 1117 636)" fill="#E9E6F5"/>
<circle cx="1152" cy="636" r="7.5" transform="rotate(-90 1152 636)" fill="#E9E6F5"/>
<circle cx="1187" cy="636" r="7.5" transform="rotate(-90 1187 636)" fill="#E9E6F5"/>
<circle cx="1222" cy="636" r="7.5" transform="rotate(-90 1222 636)" fill="#E9E6F5"/>
<circle cx="1257" cy="636" r="7.5" transform="rotate(-90 1257 636)" fill="#E9E6F5"/>
<circle cx="1292" cy="636" r="7.5" transform="rotate(-90 1292 636)" fill="#E9E6F5"/>
<circle cx="1327" cy="636" r="7.5" transform="rotate(-90 1327 636)" fill="#E9E6F5"/>
<circle cx="1012" cy="601" r="7.5" transform="rotate(-90 1012 601)" fill="#E9E6F5"/>
<circle cx="1047" cy="601" r="7.5" transform="rotate(-90 1047 601)" fill="#E9E6F5"/>
<circle cx="1082" cy="601" r="7.5" transform="rotate(-90 1082 601)" fill="#E9E6F5"/>
<circle cx="1117" cy="601" r="7.5" transform="rotate(-90 1117 601)" fill="#E9E6F5"/>
<circle cx="1152" cy="601" r="7.5" transform="rotate(-90 1152 601)" fill="#E9E6F5"/>
<circle cx="1187" cy="601" r="7.5" transform="rotate(-90 1187 601)" fill="#E9E6F5"/>
<circle cx="1222" cy="601" r="7.5" transform="rotate(-90 1222 601)" fill="#E9E6F5"/>
<circle cx="1257" cy="601" r="7.5" transform="rotate(-90 1257 601)" fill="#E9E6F5"/>
<circle cx="1292" cy="601" r="7.5" transform="rotate(-90 1292 601)" fill="#E9E6F5"/>
<circle cx="1327" cy="601" r="7.5" transform="rotate(-90 1327 601)" fill="#E9E6F5"/>
<circle cx="1012" cy="566" r="7.5" transform="rotate(-90 1012 566)" fill="#E9E6F5"/>
<circle cx="1047" cy="566" r="7.5" transform="rotate(-90 1047 566)" fill="#E9E6F5"/>
<circle cx="1082" cy="566" r="7.5" transform="rotate(-90 1082 566)" fill="#E9E6F5"/>
<circle cx="1117" cy="566" r="7.5" transform="rotate(-90 1117 566)" fill="#E9E6F5"/>
<circle cx="1152" cy="566" r="7.5" transform="rotate(-90 1152 566)" fill="#E9E6F5"/>
<circle cx="1187" cy="566" r="7.5" transform="rotate(-90 1187 566)" fill="#E9E6F5"/>
<circle cx="1222" cy="566" r="7.5" transform="rotate(-90 1222 566)" fill="#E9E6F5"/>
<circle cx="1257" cy="566" r="7.5" transform="rotate(-90 1257 566)" fill="#E9E6F5"/>
<circle cx="1292" cy="566" r="7.5" transform="rotate(-90 1292 566)" fill="#E9E6F5"/>
<circle cx="1327" cy="566" r="7.5" transform="rotate(-90 1327 566)" fill="#E9E6F5"/>
<circle cx="1012" cy="531" r="7.5" transform="rotate(-90 1012 531)" fill="#E9E6F5"/>
<circle cx="1047" cy="531" r="7.5" transform="rotate(-90 1047 531)" fill="#E9E6F5"/>
<circle cx="1082" cy="531" r="7.5" transform="rotate(-90 1082 531)" fill="#E9E6F5"/>
<circle cx="1117" cy="531" r="7.5" transform="rotate(-90 1117 531)" fill="#E9E6F5"/>
<circle cx="1152" cy="531" r="7.5" transform="rotate(-90 1152 531)" fill="#E9E6F5"/>
<circle cx="1187" cy="531" r="7.5" transform="rotate(-90 1187 531)" fill="#E9E6F5"/>
<circle cx="1222" cy="531" r="7.5" transform="rotate(-90 1222 531)" fill="#E9E6F5"/>
<circle cx="1257" cy="531" r="7.5" transform="rotate(-90 1257 531)" fill="#E9E6F5"/>
<circle cx="1292" cy="531" r="7.5" transform="rotate(-90 1292 531)" fill="#E9E6F5"/>
<circle cx="1327" cy="531" r="7.5" transform="rotate(-90 1327 531)" fill="#E9E6F5"/>
<circle cx="1012" cy="496" r="7.5" transform="rotate(-90 1012 496)" fill="#E9E6F5"/>
<circle cx="1047" cy="496" r="7.5" transform="rotate(-90 1047 496)" fill="#E9E6F5"/>
<circle cx="1082" cy="496" r="7.5" transform="rotate(-90 1082 496)" fill="#E9E6F5"/>
<circle cx="1117" cy="496" r="7.5" transform="rotate(-90 1117 496)" fill="#E9E6F5"/>
<circle cx="1152" cy="496" r="7.5" transform="rotate(-90 1152 496)" fill="#E9E6F5"/>
<circle cx="1187" cy="496" r="7.5" transform="rotate(-90 1187 496)" fill="#E9E6F5"/>
<circle cx="1222" cy="496" r="7.5" transform="rotate(-90 1222 496)" fill="#E9E6F5"/>
<circle cx="1257" cy="496" r="7.5" transform="rotate(-90 1257 496)" fill="#E9E6F5"/>
<circle cx="1292" cy="496" r="7.5" transform="rotate(-90 1292 496)" fill="#E9E6F5"/>
<circle cx="1327" cy="496" r="7.5" transform="rotate(-90 1327 496)" fill="#E9E6F5"/>
<circle cx="1012" cy="461" r="7.5" transform="rotate(-90 1012 461)" fill="#E9E6F5"/>
<circle cx="1047" cy="461" r="7.5" transform="rotate(-90 1047 461)" fill="#E9E6F5"/>
<circle cx="1082" cy="461" r="7.5" transform="rotate(-90 1082 461)" fill="#E9E6F5"/>
<circle cx="1117" cy="461" r="7.5" transform="rotate(-90 1117 461)" fill="#E9E6F5"/>
<circle cx="1152" cy="461" r="7.5" transform="rotate(-90 1152 461)" fill="#E9E6F5"/>
<circle cx="1187" cy="461" r="7.5" transform="rotate(-90 1187 461)" fill="#E9E6F5"/>
<circle cx="1222" cy="461" r="7.5" transform="rotate(-90 1222 461)" fill="#E9E6F5"/>
<circle cx="1257" cy="461" r="7.5" transform="rotate(-90 1257 461)" fill="#E9E6F5"/>
<circle cx="1292" cy="461" r="7.5" transform="rotate(-90 1292 461)" fill="#E9E6F5"/>
<circle cx="1327" cy="461" r="7.5" transform="rotate(-90 1327 461)" fill="#E9E6F5"/>
<circle cx="1012" cy="426" r="7.5" transform="rotate(-90 1012 426)" fill="#E9E6F5"/>
<circle cx="1047" cy="426" r="7.5" transform="rotate(-90 1047 426)" fill="#E9E6F5"/>
<circle cx="1082" cy="426" r="7.5" transform="rotate(-90 1082 426)" fill="#E9E6F5"/>
<circle cx="1117" cy="426" r="7.5" transform="rotate(-90 1117 426)" fill="#E9E6F5"/>
<circle cx="1152" cy="426" r="7.5" transform="rotate(-90 1152 426)" fill="#E9E6F5"/>
<circle cx="1187" cy="426" r="7.5" transform="rotate(-90 1187 426)" fill="#E9E6F5"/>
<circle cx="1222" cy="426" r="7.5" transform="rotate(-90 1222 426)" fill="#E9E6F5"/>
<circle cx="1257" cy="426" r="7.5" transform="rotate(-90 1257 426)" fill="#E9E6F5"/>
<circle cx="1292" cy="426" r="7.5" transform="rotate(-90 1292 426)" fill="#E9E6F5"/>
<circle cx="1327" cy="426" r="7.5" transform="rotate(-90 1327 426)" fill="#E9E6F5"/>
<circle cx="1012" cy="391" r="7.5" transform="rotate(-90 1012 391)" fill="#E9E6F5"/>
<circle cx="1047" cy="391" r="7.5" transform="rotate(-90 1047 391)" fill="#E9E6F5"/>
<circle cx="1082" cy="391" r="7.5" transform="rotate(-90 1082 391)" fill="#E9E6F5"/>
<circle cx="1117" cy="391" r="7.5" transform="rotate(-90 1117 391)" fill="#E9E6F5"/>
<circle cx="1152" cy="391" r="7.5" transform="rotate(-90 1152 391)" fill="#E9E6F5"/>
<circle cx="1187" cy="391" r="7.5" transform="rotate(-90 1187 391)" fill="#E9E6F5"/>
<circle cx="1222" cy="391" r="7.5" transform="rotate(-90 1222 391)" fill="#E9E6F5"/>
<circle cx="1257" cy="391" r="7.5" transform="rotate(-90 1257 391)" fill="#E9E6F5"/>
<circle cx="1292" cy="391" r="7.5" transform="rotate(-90 1292 391)" fill="#E9E6F5"/>
<circle cx="1327" cy="391" r="7.5" transform="rotate(-90 1327 391)" fill="#E9E6F5"/>
<circle cx="1012" cy="356" r="7.5" transform="rotate(-90 1012 356)" fill="#E9E6F5"/>
<circle cx="1047" cy="356" r="7.5" transform="rotate(-90 1047 356)" fill="#E9E6F5"/>
<circle cx="1082" cy="356" r="7.5" transform="rotate(-90 1082 356)" fill="#E9E6F5"/>
<circle cx="1117" cy="356" r="7.5" transform="rotate(-90 1117 356)" fill="#E9E6F5"/>
<circle cx="1152" cy="356" r="7.5" transform="rotate(-90 1152 356)" fill="#E9E6F5"/>
<circle cx="1187" cy="356" r="7.5" transform="rotate(-90 1187 356)" fill="#E9E6F5"/>
<circle cx="1222" cy="356" r="7.5" transform="rotate(-90 1222 356)" fill="#E9E6F5"/>
<circle cx="1257" cy="356" r="7.5" transform="rotate(-90 1257 356)" fill="#E9E6F5"/>
<circle cx="1292" cy="356" r="7.5" transform="rotate(-90 1292 356)" fill="#E9E6F5"/>
<circle cx="1327" cy="356" r="7.5" transform="rotate(-90 1327 356)" fill="#E9E6F5"/>
<circle cx="1012" cy="321" r="7.5" transform="rotate(-90 1012 321)" fill="#E9E6F5"/>
<circle cx="1047" cy="321" r="7.5" transform="rotate(-90 1047 321)" fill="#E9E6F5"/>
<circle cx="1082" cy="321" r="7.5" transform="rotate(-90 1082 321)" fill="#E9E6F5"/>
<circle cx="1117" cy="321" r="7.5" transform="rotate(-90 1117 321)" fill="#E9E6F5"/>
<circle cx="1152" cy="321" r="7.5" transform="rotate(-90 1152 321)" fill="#E9E6F5"/>
<circle cx="1187" cy="321" r="7.5" transform="rotate(-90 1187 321)" fill="#E9E6F5"/>
<circle cx="1222" cy="321" r="7.5" transform="rotate(-90 1222 321)" fill="#E9E6F5"/>
<circle cx="1257" cy="321" r="7.5" transform="rotate(-90 1257 321)" fill="#E9E6F5"/>
<circle cx="1292" cy="321" r="7.5" transform="rotate(-90 1292 321)" fill="#E9E6F5"/>
<circle cx="1327" cy="321" r="7.5" transform="rotate(-90 1327 321)" fill="#E9E6F5"/>
<path d="M1228.76 30.3152L1302.97 50.2016L1248.64 104.532L1228.76 30.3152Z" fill="#EAE8F4"/>
<circle cx="1000" cy="902" r="50" fill="#EAE8F4"/>
</svg>
